<svg version="1" xmlns="http://www.w3.org/2000/svg" width="1280" height="1280" viewBox="0 0 960.000000 960.000000"><path d="M627.9 83.4c-.2.2-2.2.7-4.4 1.1-2.2.4-4.4.8-5 .9-.5.2-2.3.6-4 1.1-12.9 3.4-28.9 14.4-39.1 27-3.7 4.5-12.5 19.3-12.6 21.2 0 .4-.2 1.2-.4 1.8-5.1 16-5.5 35.3-1 51 1 3.3 7.5 17.6 8.6 18.5.3.3 1.8 2.4 3.3 4.7 3.9 5.7 14.1 15.3 21 19.7 5.9 3.8 19.3 9.6 23.1 10 1.2.1 2.6.4 3.1.7 3.2 1.6 34 1.5 34-.1 0-.1 1.2-.4 2.6-.6 4.5-.7 15-5.2 21.8-9.3 7.1-4.2 12.5-8.7 18.7-15.3 2.8-3 9.4-12.3 9.4-13.3 0-.4.8-1.9 1.8-3.3 4.9-7.2 8.5-22.2 8.5-35.7.1-11.4-.4-15.1-2.1-19.6-.6-1.5-.8-2.9-.6-3.2.3-.3.1-1.3-.5-2.4-.8-1.6-2.2-4.9-2.6-6.3-.4-1.8-5.3-10.3-8.1-14.3-1.9-2.6-3.4-4.9-3.4-5.1 0-.4-9.7-9.9-12.4-12.1-2.9-2.5-7.6-5.5-8.5-5.5-.5 0-1.1-.4-1.3-.8-.8-2-15.2-7.6-25.3-9.8-3.3-.7-24-1.5-24.6-1zM492.8 207.5c-.1.2-2.3.6-4.8.9-2.5.4-7.3 2.1-10.8 3.9-5.5 2.8-16.8 13.6-90.9 87.7-46.5 46.5-86 86.8-87.8 89.5-1.8 2.8-4 7.4-4.8 10.2-1.7 5.6-1.9 17.1-.5 21.7.5 1.7 1 3.6 1.1 4.1.9 4.3 10.7 15.3 38.3 42.9 17.5 17.5 32.9 32.7 34.3 33.7 1.3 1.1 2.1 1.9 1.8 1.9-.3 0 1.2 1.7 3.2 3.7 4.2 4.2 10.2 11.1 14.1 16.2 1.4 1.8 3.4 4.5 4.6 5.9 9 11.5 22.7 35.7 29.4 51.7 4.2 10.1 9.5 25.6 10.5 30.8.2.9.6 2.1.9 2.6.3.5.8 2.6 1.2 4.6.3 2.1.8 4.7 1 5.9.3 1.1.7 3.2 1 4.6.3 1.4.7 2.9.8 3.5.3 1 1.4 8.5 2.2 14.4 1 7.6 1.6 16.1 1.9 25.6.4 14.4 1.9 20.1 6.8 27.5 8.2 12.2 21.6 18.8 35.7 17.7 7.6-.7 9.7-1.1 10.6-2 .4-.4 1.6-.7 2.6-.7s1.8-.5 1.8-1c0-.6.5-1 1.1-1 2.5 0 10.9-7.4 14.3-12.4 5.6-8.4 6.9-13.5 6.9-26.6.1-13.2-1-27.8-2.9-41-1.4-9.9-2.1-14.1-3.1-18.5-.4-1.7-.6-3.3-.5-3.6 0-.3-.5-2.7-1.3-5.3-.8-2.6-1.4-5.1-1.4-5.4.1-.4 0-.9-.1-1.2-.1-.3-.3-1.2-.5-2-1.2-5.8-8-27.9-10-32.5-.7-1.7-2.5-6.2-4-10-1.5-3.9-4.5-10.7-6.6-15.2-2.2-4.5-3.9-8.7-3.9-9.2 0-.6-.4-1.1-1-1.1-.5 0-1-.9-1-2s-.3-2-.8-2c-.4 0-1.4-1.5-2.1-3.2-.8-1.8-3.6-6.6-6.1-10.8-2.6-4.1-5.3-8.6-6.1-9.9-.8-1.4-1.7-3-2.2-3.5-.4-.6-3.4-4.9-6.7-9.6-3.2-4.7-6.5-9.2-7.2-10-.8-.8-2.9-3.5-4.8-5.8l-3.3-4.4 54.3-53.9c29.9-29.6 54.8-53.9 55.3-53.9.8 0 11.9 9 13.7 11.1 1.3 1.5 25.6 19.3 33.5 24.6 26.7 17.8 58.3 32.4 84 38.9 4.1 1 4.5 1.1 4.8 1.4.2.2 1.9.6 6.2 1.4 1.7.3 4.1.8 5.5 1.1 1.4.3 4.8 1.1 7.5 1.6 14.3 3.1 27.4-.2 37.3-9.5 4.7-4.4 9.8-12.3 10.8-16.8 1.3-5.8 1.5-15.1.4-20-1.5-6.5-6.5-16-10.5-19.9-7-6.7-15.3-11.2-24-12.9-8.8-1.7-9.5-1.8-15.5-3.5-3-.8-6.2-1.7-7-1.9-4.6-1.2-22.6-8.4-30.5-12.3-9.7-4.8-10.3-5.1-18.1-10.1-2.8-1.7-5.6-3.2-6.3-3.2-.6 0-1.1-.5-1.1-1 0-.6-.5-1-1-1-.6 0-1.6-.5-2.3-1-1.4-1.2-7.3-5.6-11.3-8.5-1.5-1.1-3.2-2.5-3.8-3-.6-.6-2.9-2.4-5.2-4-10.3-7.5-26-22.3-66.1-62.2-30.5-30.4-39.9-38.9-44-39.6-1-.1-2.2-.5-2.8-.9-.5-.3-3.2-.9-6-1.3-2.7-.4-5.7-.9-6.7-1.1-.9-.1-1.8-.1-2 .1zM186.7 479.7c-.2.1-3 .5-6.3.8-5.3.5-17.3 2.3-19.9 2.9-.5.2-2.3.6-4 1-36.1 8.5-68 26-94.9 52.1-6.9 6.7-17.8 19.3-21.3 24.7-1.5 2.3-3.3 4.7-3.9 5.3-3.1 2.9-17.8 30.7-21.1 40-.6 1.6-1.4 3.9-1.9 5-.4 1.1-.9 2.9-1.1 3.9-.2 1.1-.7 2.4-1.2 3-.5.6-1.2 2.7-1.7 4.6-.4 1.9-.9 3.9-1 4.5-.2.5-.5 2-.8 3.3-.3 1.3-.7 3.1-1 4-.3.9-.7 3-1 4.7-.8 4.7-1.6 9.7-2.2 13-2.1 12.1-2 43.7.2 54.8.2 1.2.6 3.9.9 6 1.2 9 6.7 28.2 11.4 39.7 1.7 4.1 3.1 8 3.1 8.7 0 .6.3 1.3.8 1.5.4.2 2.3 3.4 4.2 7.3 2.9 6 6.8 12.6 12.3 20.9 9 13.5 26.5 32.3 40.7 43.6 13.2 10.6 42.7 28 44.4 26.3.3-.4.6-.1.6.5 0 .7.8 1.2 1.8 1.2s2.2.4 2.8.9c1 .9 10.6 4.3 13.9 4.8 1 .2 2.2.7 2.5 1.1.3.4 1 .8 1.5.8.6.1 4.8 1.1 9.5 2.3 9.5 2.3 13.1 3 17.5 3.5 1.7.2 5 .7 7.5 1.1 4.9.7 4.6 1 4.9-5 .1-1.1 0-5.4-.2-9.5s.1-8.3.5-9.3c.5-.9.5-1.7.1-1.7-.9 0-.9-18.2 0-19.7.4-.6.4-1.3 0-1.7-.9-.9-1-16.9-.1-18.2.5-.6-17.1-19-44.5-46.5-40.6-40.6-45.5-45.9-46.4-49.7-3-11.8 7.2-21.5 18.9-18 3.3 1 9.9 7.1 37.8 35 18.6 18.6 34 33.8 34.2 33.8.2 0 .4-13.8.4-30.8l.1-30.7-29.9-29.9c-16.4-16.4-30.4-30.8-31-32-4.1-7.4-1.4-17.2 5.7-20.6 9.2-4.5 11.6-3.1 34.5 19.6 10.7 10.7 19.8 19.4 20.1 19.4.3 0 .5-19.8.5-43.9 0-49.3 0-49.4 7.1-54 6.8-4.4 15.1-2.3 19.9 4.9l2.7 4v44.1c0 24.2.3 44.1.6 44.4.4.2 9.2-8.2 19.6-18.7 10.5-10.5 20.4-19.7 22.2-20.4 6.4-2.8 14.6-.7 18.5 4.7 2.6 3.5 3.1 10.6.9 14.7-1 1.9-15.1 16.7-31.4 33.1L215 704.6l.2 30.9.3 31 34.1-34.1c29.3-29.3 34.7-34.2 38.2-35.1 12.2-3.1 21.8 6.4 18.8 18.6-.6 2.6-10.5 12.9-46.6 48.8l-45.7 45.4v68l5.1-.6c10.7-1.1 26.8-3.9 28.6-5 .4-.2 2.1-.7 3.9-1 7.7-1.3 34-11.7 41.3-16.2 2.1-1.3 4-2.3 4.3-2.3.9 0 14.8-9.2 22-14.5 10-7.4 22.6-19 30.5-28.1 10.2-11.7 23.1-30.8 26.1-38.7.6-1.5 1.5-2.7 2-2.7s.9-.7.9-1.5 1.4-4.1 3-7.3c1.7-3.3 3-6.5 3-7.1 0-.6.4-1.9.9-2.9 1.3-2.2 4.9-12.5 5.5-15.4.3-1.3 1.2-4.8 2.1-7.8.8-3 1.8-7.1 2.1-9 .2-1.9.7-4.6 1-6 .2-1.4.6-4.1.9-6 .2-1.9.7-6 1-9 .9-6.8.9-32.2 0-37-.3-1.9-.8-5.3-1-7.5-.2-2.2-.7-5.1-.9-6.5-.3-1.4-1-4.8-1.5-7.5-1.8-9.2-8.2-28.7-13.1-39.9-13.6-30.4-35-57.4-62-78.2-6.4-4.9-9.8-7.2-19.5-13.2-6.6-4-23.4-12.2-25.1-12.2-.8 0-1.4-.4-1.4-1 0-.5-.3-.9-.7-.8-.8.2-8.1-2.1-9.8-3.1-.5-.3-1.6-.6-2.3-.7-.8-.2-2.1-.6-3-1-2-.8-2.7-1-6.4-1.7-1.5-.3-3.1-.8-3.6-1.1-.5-.3-2.4-.8-4.3-1.1-1.9-.3-5.2-1-7.4-1.5-4.7-1-9.8-1.8-17.5-2.6-5.8-.6-31.9-1.2-32.3-.7z"/><path d="M746.6 479.8c-.2.2-3 .5-6.2.8-3.3.2-7 .6-8.4.9-1.4.3-3.8.7-5.5 1-1.6.3-4.2.8-5.7 1.1-1.5.3-3 .5-3.3.5-.2 0-2.3.6-4.5 1.4-2.2.8-4 1.2-4 1 0-.9-24.6 8.2-32.5 12-7.2 3.5-20.5 10.8-23 12.7-.5.5-4.7 3.4-9.3 6.6-8.2 5.8-22.7 18.5-28.6 25.1-1.7 1.9-3.9 4.3-4.9 5.3-3.1 3.3-12.1 15.2-15.7 20.9-1.9 3-3.8 5.5-4.2 5.7-.5.2-.8.7-.8 1.2 0 .4-1.6 3.6-3.4 6.9-1.9 3.4-3.2 6.1-2.8 6.1.4 0 .2.4-.4.8-1.7 1.2-8.8 17.2-7.6 17.2.4 0 .2.4-.3.8-.9.6-4.8 12.2-7.4 21.7-3.2 12.3-5.2 25.8-5.7 38.5-.2 5.8-.4 10.7-.5 11-.1.3-.1.7-.1 1 0 .3.4 5.4.8 11.5.4 6 .8 12.5.8 14.2.1 1.8.4 3.3.7 3.3.3 0 .6.6.6 1.2.1 2.7 1.4 9.9 2.9 15.5 2.8 11 3.6 13.8 4.4 15.8 1.3 3.2 2.3 5.9 2.6 7 .1.5.8 2.3 1.5 4 .7 1.6 1.3 3.2 1.3 3.5.8 3.9 17 33.2 18.7 33.8.5.2.9.9.9 1.5 0 1.1 2.5 4.6 6.4 9 .9.9 1.6 2 1.6 2.5.1 1.1 15.1 17.3 22.1 23.7 10.8 9.9 35.4 27.5 38.4 27.5.7 0 2.3.8 3.6 1.9 1.3 1 3.5 2.2 4.9 2.6 1.4.4 3.2 1.3 4 2 2.1 1.7 22.6 9.2 30.5 11.1 1.1.3 2.7.7 3.5.9.8.2 1.5.4 1.5.5 0 .1.9.3 2 .5s3.6.7 5.5 1.1c5.7 1.2 6.3 1.3 11 1.9 2.5.3 6.2.8 8.3 1.1 2 .3 3.7.1 3.8-.3.1-1.1.1-63.4 0-65.6-.1-.9-20.1-21.8-44.6-46.2-24.4-24.5-45.1-45.7-45.9-47.3-1.8-3.5-1.3-10.3 1-14.3 3.6-6.1 11.7-8.6 18.8-5.9 1.6.6 18.2 16.3 36.9 35s34.1 34 34.3 34c.2 0 .4-13.9.4-30.8v-30.8L714.5 675c-31.5-31.5-33-33.3-32.7-40.8.4-9.7 11.5-16.4 21.1-12.5 1.2.5 11.4 10 22.5 21.1l20.3 20.2v-45.2c.1-30.4.5-46.2 1.2-48.1.6-1.5 2.4-4.2 4-5.9 2.4-2.6 3.6-3.1 8.4-3.3 4.6-.2 6.4.2 9.5 2.2 6.7 4.4 6.8 5 6.6 55 0 24.4.1 44.3.3 44.3.6 0 1-.4 22-21.1 14.6-14.5 19.6-18.9 22.3-19.5 7.2-1.7 13.2.3 17 5.6 2.7 3.8 3.3 11 1.1 15-1.4 2.6-36.4 38.4-55.7 57l-6.1 5.9.1 10c.1 5.6-.2 10.1-.6 10.1-.4 0-.5.6-.2 1.4.8 2 1 14.6.3 14.6-.4 0-.4 1.5 0 3.2.8 4.2.7 7-.2 8.5-.4.6-.4 1.4.1 1.7.4.2.7 3.2.5 6.5-.1 3.4 0 6.1.2 6.1s15.4-15 33.8-33.4c18.4-18.3 34.6-34.1 36-35.1 1.5-.9 4.6-1.7 7.1-1.7 10.5 0 17.8 9.9 14.6 19.8-1.3 3.7-2.3 4.9-42.6 44.1-14.8 14.3-32.3 31.4-39 38l-12 11.8.1 33.5v33.5l4.5-.2c3.8-.1 15.2-1.9 23.5-3.7 3.6-.8 15.9-4.4 18.8-5.5 1.5-.6 2.7-.7 2.7-.3 0 .4.4.2.8-.3.4-.6 2.5-1.6 4.7-2.4 13.5-4.5 36.9-18 52-29.9 7.9-6.2 26.5-24.7 31-30.7 1.6-2.2 3.2-4.2 3.5-4.5.3-.3 3.2-4.6 6.5-9.5 3.2-5 6.6-10.1 7.5-11.5 4.4-6.7 15.5-32.1 17.5-40 .2-.8 1.3-4.5 2.4-8.2 1-3.6 1.7-6.9 1.3-7.2-.3-.3-.1-.6.4-.6s1-.8 1-1.8c.1-2.6 1.3-10.2 1.8-11 1.7-2.8 2.6-37.8 1.3-51.5-1.1-12-4-26.4-7.3-37.2-2.8-8.9-7.7-21.9-9.2-24.3-.8-1.2-1-2.2-.6-2.2.5 0 .4-.4-.1-.8-.6-.4-2.6-3.8-4.5-7.5-2.8-5.9-16.2-27.2-17.9-28.7-.3-.3-2.8-3.2-5.5-6.5-6.6-8-21.9-23-29.2-28.5-3.2-2.5-6.8-5.3-7.8-6.3-1.1-.9-2.6-1.7-3.3-1.7-.7 0-1.3-.4-1.3-.8 0-.5-1.7-1.7-3.7-2.8-2.1-1-4.4-2.5-5.2-3.2-2-1.9-29.4-15.2-31.2-15.2-.8 0-1.9-.4-2.4-.9-1.8-1.6-25.4-8.2-34.5-9.5-1.9-.3-4.6-.8-6-1.1-7.3-1.4-38.4-2.8-39.4-1.7z"/></svg>