<svg xmlns="http://www.w3.org/2000/svg" viewBox="0 0 24 24"><defs><style>.a{fill:none;}.b{fill:#313232;}</style></defs><title>settings</title><path class="a" d="M0,0H24V24H0Z"/><path class="b" d="M19.4,13c0-.3.1-.6.1-1a3.08,3.08,0,0,0-.1-1l2.1-1.6c.2-.1.2-.4.1-.6l-2-3.5a.48.48,0,0,0-.6-.2l-2.5,1a9.5,9.5,0,0,0-1.7-1l-.4-2.7c.1-.2-.1-.4-.4-.4H10c-.2,0-.5.2-.5.4L9.1,5.1a7.54,7.54,0,0,0-1.7,1l-2.5-1c-.2-.1-.4,0-.6.2l-2,3.5c-.1.1,0,.4.2.6L4.6,11c0,.3-.1.6-.1,1a3.08,3.08,0,0,0,.1,1L2.5,14.6c-.2.1-.2.4-.1.6l2,3.5a.45.45,0,0,0,.6.2l2.5-1a9.5,9.5,0,0,0,1.7,1l.4,2.6a.46.46,0,0,0,.5.4h4a.46.46,0,0,0,.5-.4l.4-2.6a9.5,9.5,0,0,0,1.7-1l2.5,1a.48.48,0,0,0,.6-.2l2-3.5c.1-.2.1-.5-.1-.6ZM12,15.5A3.5,3.5,0,1,1,15.5,12,3.54,3.54,0,0,1,12,15.5Z"/></svg>