<?xml version="1.0" encoding="utf-8"?>
<!-- Generator: Adobe Illustrator 22.1.0, SVG Export Plug-In . SVG Version: 6.00 Build 0)  -->
<svg version="1.1" id="Layer_1" xmlns="http://www.w3.org/2000/svg" xmlns:xlink="http://www.w3.org/1999/xlink" x="0px" y="0px"
	 viewBox="0 0 1045 1080" style="enable-background:new 0 0 1045 1080;" xml:space="preserve">
<style type="text/css">
	.st0{fill:url(#SVGID_1_);}
	.st1{opacity:0.3;fill:url(#SVGID_2_);}
	.st2{opacity:0.2;fill:url(#SVGID_3_);}
	.st3{opacity:0.1;fill:url(#SVGID_4_);}
	.st4{opacity:5.000000e-02;fill:url(#SVGID_5_);}
</style>
<g>
	<linearGradient id="SVGID_1_" gradientUnits="userSpaceOnUse" x1="0" y1="540" x2="1045" y2="540">
		<stop  offset="0" style="stop-color:#4C9CFF"/>
		<stop  offset="1" style="stop-color:#3366FF"/>
	</linearGradient>
	<path class="st0" d="M1045,0c-39.2,16.7-84.3,84.5-120.3,101c-52.1,23.8-148.2,33.7-190.6,74c-31.9,30.4-65.3,137.5-96.2,169
		c-42.6,43.3-168.4,103.9-212,146c-46.5,44.8-61.8,120.3-104.6,169c-31.3,35.6-102.9,59.2-130.8,98c-28.2,39.2-42.2,135.9-66.3,178
		C94.4,986.9,20.5,1023,0,1080h1045V0z"/>
	<linearGradient id="SVGID_2_" gradientUnits="userSpaceOnUse" x1="522.5" y1="955" x2="522.5" y2="1080">
		<stop  offset="0" style="stop-color:#FFFFFF"/>
		<stop  offset="1" style="stop-color:#FFFFFF;stop-opacity:0"/>
	</linearGradient>
	<path class="st1" d="M327.6,1005c-58.6,0-153.1-10.8-240.4-25.7C54.2,1011,14.3,1040.4,0,1080h1045v-98
		c-156.9-27-156.9-27-246.6-27C680.7,955,457.1,1005,327.6,1005z"/>
	<linearGradient id="SVGID_3_" gradientUnits="userSpaceOnUse" x1="522.4999" y1="809.9996" x2="522.4999" y2="1079.9993">
		<stop  offset="0" style="stop-color:#FFFFFF"/>
		<stop  offset="1" style="stop-color:#FFFFFF;stop-opacity:0"/>
	</linearGradient>
	<path class="st2" d="M215.5,810c-19.9,0-35.4,0-49.1,0.6c-14.4,43.5-26,96.2-42.2,124.4C94.4,986.9,20.6,1023,0,1080h1045V810
		c-103.7,56.2-271.3,108-358.7,108C556.8,918,333.2,810,215.5,810z"/>
	<linearGradient id="SVGID_4_" gradientUnits="userSpaceOnUse" x1="522.5" y1="561" x2="522.5" y2="1080">
		<stop  offset="0" style="stop-color:#FFFFFF"/>
		<stop  offset="1" style="stop-color:#FFFFFF;stop-opacity:0"/>
	</linearGradient>
	<path class="st3" d="M352.6,612.1c-9.1,16.9-19.1,33-31.3,46.9c-31.3,35.6-102.9,59.2-130.8,98c-28.2,39.2-42.2,135.9-66.3,178
		C94.4,986.9,20.5,1023,0,1080h1045V673.1C764.5,561,764.5,561,604.2,561C536.1,561,448.2,582.7,352.6,612.1z"/>
	<linearGradient id="SVGID_5_" gradientUnits="userSpaceOnUse" x1="522.5" y1="273.0496" x2="522.5" y2="1080">
		<stop  offset="0" style="stop-color:#FFFFFF"/>
		<stop  offset="1" style="stop-color:#FFFFFF;stop-opacity:0"/>
	</linearGradient>
	<path class="st4" d="M638,344c-42.6,43.3-168.4,103.9-212,146c-46.5,44.8-61.8,120.3-104.6,169c-31.3,35.6-102.9,59.2-130.8,98
		c-28.2,39.2-42.2,135.9-66.3,178C94.4,986.9,20.5,1023,0,1080h1045V273c-111.6,1.1-249.1,26-399.5,61.9
		C643,338.4,640.5,341.5,638,344z"/>
</g>
</svg>
