<?xml version="1.0" encoding="UTF-8" standalone="no"?>
<!-- Created with Inkscape (http://www.inkscape.org/) -->

<svg
   xmlns:dc="http://purl.org/dc/elements/1.1/"
   xmlns:cc="http://creativecommons.org/ns#"
   xmlns:rdf="http://www.w3.org/1999/02/22-rdf-syntax-ns#"
   xmlns:svg="http://www.w3.org/2000/svg"
   xmlns="http://www.w3.org/2000/svg"
   xmlns:sodipodi="http://sodipodi.sourceforge.net/DTD/sodipodi-0.dtd"
   xmlns:inkscape="http://www.inkscape.org/namespaces/inkscape"
   width="994.50201"
   height="1164.3689"
   id="svg5376"
   version="1.1"
   inkscape:version="0.48.2 r9819"
   sodipodi:docname="A1.svg">
  <defs
     id="defs5378">
    <clipPath
       clipPathUnits="userSpaceOnUse"
       id="clipPath5120">
      <path
         inkscape:connector-curvature="0"
         d="m 42.52,755.433 186.079,0 0,43.937 -186.079,0 0,-43.937 z"
         id="path5122" />
    </clipPath>
    <clipPath
       clipPathUnits="userSpaceOnUse"
       id="clipPath5128">
      <path
         inkscape:connector-curvature="0"
         d="m 42.52,799.37 0,-43.937 186.079,0 0,43.937"
         id="path5130" />
    </clipPath>
    <clipPath
       clipPathUnits="userSpaceOnUse"
       id="clipPath5148">
      <path
         inkscape:connector-curvature="0"
         d="m 42.52,799.37 0,-43.937 186.079,0 0,43.937"
         id="path5150" />
    </clipPath>
    <clipPath
       clipPathUnits="userSpaceOnUse"
       id="clipPath5202">
      <path
         inkscape:connector-curvature="0"
         d="m 42.52,799.37 0,-43.937 186.079,0 0,43.937"
         id="path5204" />
    </clipPath>
    <clipPath
       clipPathUnits="userSpaceOnUse"
       id="clipPath5214">
      <path
         inkscape:connector-curvature="0"
         d="m 42.52,799.37 0,-43.937 186.079,0 0,43.937"
         id="path5216" />
    </clipPath>
    <clipPath
       clipPathUnits="userSpaceOnUse"
       id="clipPath5234">
      <path
         inkscape:connector-curvature="0"
         d="m 42.52,799.37 0,-43.937 186.079,0 0,43.937"
         id="path5236" />
    </clipPath>
    <clipPath
       clipPathUnits="userSpaceOnUse"
       id="clipPath5290">
      <path
         inkscape:connector-curvature="0"
         d="m 42.52,799.37 0,-43.937 186.079,0 0,43.937"
         id="path5292" />
    </clipPath>
    <clipPath
       clipPathUnits="userSpaceOnUse"
       id="clipPath5330">
      <path
         inkscape:connector-curvature="0"
         d="m 42.52,799.37 0,-43.937 186.079,0 0,43.937"
         id="path5332" />
    </clipPath>
    <clipPath
       clipPathUnits="userSpaceOnUse"
       id="clipPath9912">
      <path
         inkscape:connector-curvature="0"
         d="m 339.445,232.6586 46.025,0 0,51.899 -46.025,0 0,-51.899 z"
         id="path9914" />
    </clipPath>
    <clipPath
       clipPathUnits="userSpaceOnUse"
       id="clipPath9920">
      <path
         inkscape:connector-curvature="0"
         d="m 344.657,232.6836 34.7253,0 0,51.8676 -34.7253,0 0,-51.8676 z"
         id="path9922" />
    </clipPath>
    <clipPath
       clipPathUnits="userSpaceOnUse"
       id="clipPath12233">
      <path
         inkscape:connector-curvature="0"
         d="m 257.953,19.842 141.732,0 0,53.504 -141.732,0 0,-53.504 z"
         id="path12235" />
    </clipPath>
  </defs>
  <sodipodi:namedview
     id="base"
     pagecolor="#ffffff"
     bordercolor="#666666"
     borderopacity="1.0"
     inkscape:pageopacity="0.0"
     inkscape:pageshadow="2"
     inkscape:zoom="0.24748737"
     inkscape:cx="2358.7189"
     inkscape:cy="179.96525"
     inkscape:document-units="px"
     inkscape:current-layer="layer1"
     showgrid="false"
     fit-margin-left="0.5"
     fit-margin-bottom="0.5"
     fit-margin-top="0.5"
     fit-margin-right="0.5"
     inkscape:window-width="1920"
     inkscape:window-height="1028"
     inkscape:window-x="-8"
     inkscape:window-y="-8"
     inkscape:window-maximized="1" />
  <metadata
     id="metadata5381">
    <rdf:RDF>
      <cc:Work
         rdf:about="">
        <dc:format>image/svg+xml</dc:format>
        <dc:type
           rdf:resource="http://purl.org/dc/dcmitype/StillImage" />
        <dc:title></dc:title>
      </cc:Work>
    </rdf:RDF>
  </metadata>
  <g
     inkscape:label="Layer 1"
     inkscape:groupmode="layer"
     id="layer1"
     transform="translate(-1042.801,1924.5787)">
    <g
       id="g14605"
       style="fill:#d5190d;fill-opacity:1">
      <g
         style="fill:#d5190d;fill-opacity:1"
         id="g14587">
        <g
           id="g13010"
           transform="matrix(23.222837,0,0,-23.222837,1072.7382,-1882.0291)"
           style="fill:#d5190d;fill-opacity:1">
          <path
             d="m 0,0 c 0.171,0.148 1.001,0.579 2.301,0.317 0.492,-0.1 1.09,-0.36 1.186,-0.419 C 3.583,-0.161 3.086,0.341 2.514,0.499 2.006,0.639 1.467,0.748 0.941,0.647 0.405,0.544 -0.113,0.216 -0.139,0.108 -0.166,0.002 -0.153,-0.08 0,0"
             style="fill:#d5190d;fill-opacity:1;fill-rule:nonzero;stroke:none"
             id="path13012"
             inkscape:connector-curvature="0" />
        </g>
        <g
           id="g13014"
           transform="matrix(23.222837,0,0,-23.222837,1129.0699,-1901.8056)"
           style="fill:#d5190d;fill-opacity:1">
          <path
             d="m 0,0 c 0.245,-0.011 1.046,-0.021 2.209,-1.021 1.164,-1 1.445,-1.4 1.693,-1.765 C 4.151,-3.151 4.838,-4.7 4.987,-4.967 5.138,-5.234 6.099,-6.942 6.329,-7.175 6.56,-7.408 7.098,-8.133 7.999,-8.069 8.901,-8.005 9.51,-7.381 9.572,-7.341 9.633,-7.3 9.5,-7.823 9.385,-8.094 9.271,-8.361 8.981,-8.758 8.418,-9.034 7.854,-9.311 7.043,-9.332 6.161,-8.847 4.787,-8.092 4.928,-7.81 4.845,-7.729 4.762,-7.65 5.841,-8.427 6.399,-8.398 6.45,-8.396 5.79,-7.827 5.628,-7.61 5.466,-7.392 4.461,-6.011 4.148,-4.825 3.836,-3.64 3.435,-3.065 3.249,-2.74 3.062,-2.415 2.567,-1.883 2.145,-1.51 1.722,-1.137 1.078,-0.553 0.643,-0.356 0.208,-0.159 -0.245,0.01 0,0"
             style="fill:#d5190d;fill-opacity:1;fill-rule:nonzero;stroke:none"
             id="path13016"
             inkscape:connector-curvature="0" />
        </g>
        <g
           id="g13018"
           transform="matrix(23.222837,0,0,-23.222837,1353.86,-1740.9225)"
           style="fill:#d5190d;fill-opacity:1">
          <path
             d="m 0,0 c 0,0 -0.417,-0.491 -1.316,-0.493 -0.9,-0.003 -1.384,0.488 -1.521,0.612 -0.135,0.124 0.694,-0.245 0.964,-0.167 0.27,0.076 -0.927,0.226 -1.613,1.333 -0.686,1.108 -0.564,1.355 -0.561,1.447 10e-4,0.094 0.524,-0.757 0.684,-0.62 0.16,0.14 -0.731,1.095 -1.019,1.619 -0.289,0.524 -0.784,1.38 -0.955,1.543 -0.17,0.163 -0.421,0.484 -0.581,0.603 -0.16,0.119 1.026,-0.659 1.314,-1.02 0.288,-0.361 1.407,-1.893 1.623,-2.273 0.216,-0.38 0.885,-1.568 1.377,-2.049 C -1.163,0.104 0,0 0,0"
             style="fill:#d5190d;fill-opacity:1;fill-rule:nonzero;stroke:none"
             id="path13020"
             inkscape:connector-curvature="0" />
        </g>
        <g
           id="g13098"
           transform="matrix(23.222837,0,0,-23.222837,1762.3706,-1465.8782)"
           style="fill:#d5190d;fill-opacity:1">
          <path
             d="m 0,0 c -0.14,-0.1 -1.997,-1.327 -2.616,-1.766 -0.618,-0.438 -0.851,-0.784 -1.007,-0.97 0,0 0.308,0.176 0.877,0.362 0.017,0.005 -0.521,-1.178 0.188,-2.838 0.711,-1.66 1.688,-3.69 1.93,-4.913 0.242,-1.224 0.116,-2.208 -1.219,-2.452 -1.224,-0.225 -1.405,0.089 -2.697,1.011 -0.161,0.114 -0.347,0.059 -0.084,-0.204 0.263,-0.261 0.789,-1.348 2.559,-1.668 1.767,-0.317 2.924,0.654 3.286,1.174 0,0 0.391,1.064 0.251,1.981 -0.188,1.224 -0.23,1.638 -1.088,2.945 -0.326,0.497 -0.98,1.637 -1.157,1.986 -0.232,0.456 -1.087,1.361 -0.449,2.759 0.017,0.037 0.569,-0.912 0.564,-0.875 -0.063,0.602 -0.005,1.746 0.128,2.04 0.136,0.294 0.325,0.953 0.596,1.319 C 0.153,0.015 0.296,0.213 0,0"
             style="fill:#d5190d;fill-opacity:1;fill-rule:nonzero;stroke:none"
             id="path13100"
             inkscape:connector-curvature="0" />
        </g>
        <g
           id="g13126"
           transform="matrix(23.222837,0,0,-23.222837,1690.6376,-1226.3694)"
           style="fill:#d5190d;fill-opacity:1">
          <path
             d="m 0,0 c 0.157,-0.277 -4.737,4.031 -5.404,10.932 -0.116,1.201 0.319,1.935 1.539,1.979 1.219,0.043 4.042,-0.064 7.435,0.857 3.392,0.92 4.772,0.786 9.031,4.287 0.057,0.047 -1.194,-2.307 -3.717,-3.962 C 5.221,11.689 4.06,11.648 1.212,11.174 -0.644,10.863 -2.325,10.966 -2.666,10.938 -3.006,10.912 -3.344,10.996 -3.28,9.67 -3.217,8.344 -2.46,5.186 -1.756,3.715 -1.05,2.243 -0.174,0.312 0,0"
             style="fill:#d5190d;fill-opacity:1;fill-rule:nonzero;stroke:none"
             id="path13128"
             inkscape:connector-curvature="0" />
        </g>
        <g
           id="g13134"
           transform="matrix(23.222837,0,0,-23.222837,1611.9888,-1534.2532)"
           style="fill:#d5190d;fill-opacity:1">
          <path
             d="m 0,0 c 0,0 -0.059,1.667 0.579,3.049 0.258,0.559 0.497,0.618 1.01,0.654 0.495,0.037 2.616,0.06 4.68,0.841 2.063,0.78 4.743,1.478 8.823,5.914 C 15.117,10.487 13.923,7.676 12.01,6.149 8.094,3.026 3.065,2.363 2.505,2.363 1.912,2.365 1.546,1.917 1.453,1.701 1.002,0.653 0,0 0,0"
             style="fill:#d5190d;fill-opacity:1;fill-rule:nonzero;stroke:none"
             id="path13136"
             inkscape:connector-curvature="0" />
        </g>
        <g
           id="g13146"
           transform="matrix(23.222837,0,0,-23.222837,1646.549,-1630.7046)"
           style="fill:#d5190d;fill-opacity:1;stroke:none">
          <path
             d="m 0,0 c 0,0 0.143,2.653 0.232,3.221 0.032,0.199 0.489,0.327 0.82,0.403 0.235,0.054 3.764,0.784 5.797,2.212 2.012,1.415 3.788,2.314 6.442,6.797 0,0 -0.528,-3.423 -2.851,-5.598 C 6.997,3.811 6.161,3.854 1.983,2.447 1.555,2.303 1.697,2.235 1.393,1.703 1.091,1.171 0.775,0.331 0,0 z"
             style="fill:#d5190d;fill-opacity:1;stroke:none"
             id="path13148"
             inkscape:connector-curvature="0" />
        </g>
        <g
           id="g13162"
           transform="matrix(23.222837,0,0,-23.222837,1358.3048,-1738.2704)"
           style="fill:#d5190d;fill-opacity:1">
          <path
             d="M 0,0 C 0,-0.011 -0.215,0.197 -0.316,0.492 -0.529,1.113 0.05,1.673 -0.059,1.93 -0.107,2.045 -0.404,2.52 -0.28,2.923 -0.188,3.215 -0.117,3.243 0.57,3.303 1.436,3.376 1.612,3.059 1.868,2.967 2.567,2.715 2.672,2.559 2.873,2.539 3.205,2.507 3.592,2.381 3.629,2.409 4.043,2.732 3.597,3.639 4.337,3.644 4.795,3.646 5.282,3.278 5.605,3.261 c 0.53,-0.027 1.003,-0.038 1.321,0.04 0.317,0.077 0.695,0.127 0.847,0.307 0.133,0.158 0.265,0.338 0.513,0.691 0,0 1.421,0.839 1.297,0.651 C 9.494,4.815 8.83,4.247 9.003,3.769 9.55,2.92 8.862,2.542 9.035,2.511 9.044,2.509 8.859,2.63 9.386,1.995 9.502,1.854 9.369,1.684 9.492,1.515 c 1.393,-0.536 1.334,-1.475 1.41,-1.777 0.01,-0.036 0.084,-0.23 -0.228,0.02 -0.311,0.25 -0.673,0.464 -0.794,0.436 -0.037,-0.008 0.1,-0.614 0.386,-0.937 0.045,-0.05 0.142,-0.122 0.344,-0.24 0.265,-0.157 0.524,-0.348 0.585,-0.423 0.062,-0.076 0.489,-0.422 0.637,-1.436 0.025,-0.175 -0.363,0.31 -0.414,0.35 -0.387,0.301 -0.656,0.544 -0.706,0.084 C 10.696,-2.544 10.625,-2.771 10.619,-2.92 10.614,-3.068 10.21,-4.045 10.105,-4.324 9.928,-4.802 9.739,-5.377 9.423,-5.747 9.106,-6.118 8.348,-7.273 8.166,-7.582 7.984,-7.892 7.58,-8.709 7.445,-9.896 7.31,-11.082 7.412,-11.913 7.453,-12.16 c 0.042,-0.248 0.613,-2.289 1.076,-2.992 0.464,-0.703 1.351,-1.495 0.937,-1.47 -0.37,0.022 -1.318,1.032 -1.58,1.294 -0.263,0.262 -0.682,0.567 -1.287,1.391 -0.607,0.826 -1.18,2.003 -1.268,2.225 -0.089,0.223 -0.753,3.029 -1.2,2.878 -0.455,-0.154 0.58,-3.02 0.787,-3.553 0.031,-0.077 0.925,-1.789 0.271,-2.036 -0.425,-0.159 -0.921,0.389 -1.152,0.586 -0.23,0.199 -1.034,1.05 -1.306,0.829 -0.381,-0.307 0.409,-1.263 0.151,-1.404 -0.258,-0.14 -1.113,0.109 -2.283,0.532 -0.276,0.1 -0.706,-0.041 -0.502,-0.27 0.205,-0.229 1.392,-0.715 1.566,-0.747 0.175,-0.032 0.861,-0.213 1.344,-0.247 0.483,-0.033 2.004,-0.846 2.291,-1.013 0.286,-0.166 1.577,-1.211 1.759,-1.425 0.182,-0.215 0.651,-0.789 1.047,-1.82 0.394,-1.032 0.781,-1.937 0.471,-2.886 -0.308,-0.952 -0.443,-1.664 -1.595,-2.035 -0.059,-0.02 -0.123,0.003 0.003,0.127 0.126,0.125 0.913,0.747 0.851,1.864 -0.061,1.119 -0.594,1.845 -0.755,2.077 -0.16,0.233 -0.748,0.998 -1.811,1.689 -1.064,0.691 -2.578,1.32 -2.753,1.415 -0.174,0.095 -1.569,1.062 -2.159,1.698 -0.556,0.599 -0.784,0.702 -1.156,1.634 -0.37,0.923 -0.288,1.459 -0.291,1.815 -0.002,0.358 -0.135,1.159 -0.297,1.545 -0.162,0.386 2.059,1.306 2.284,1.676 0.095,0.155 0.073,1.703 0.652,2.254 1.222,1.16 1.666,1.654 1.922,1.768 0.257,0.115 0.931,0.573 1.27,0.844 0.337,0.272 2.007,1.619 1.5,2.358 C 5.805,-0.927 4.21,-1.211 3.736,-1.334 3.421,-1.415 3.235,-1.494 2.861,-1.63 2.749,-1.671 2.142,-1.892 1.995,-2.019 1.877,-2.121 1.217,-2.427 0.856,-2.555 0.65,-2.628 -0.401,-1.736 0.184,-0.361 c 0.054,0.13 0.547,-0.857 0.93,-0.756 0.158,0.042 0.216,0.305 0.366,0.364 0.11,-0.105 0.065,-0.276 0.516,0.206 0.465,-0.239 0.567,0.214 0.699,0.503 0.002,0.003 0.731,-0.338 0.87,0.026 C 3.729,0.41 3.551,0.874 3.293,0.914 2.456,1.046 2.234,0.15 2.226,-0.169 2.222,-0.333 1.948,0.762 1.467,-0.203 1.45,-0.238 1.001,0.869 0.885,-0.436 0.884,-0.443 0.784,-0.381 0.591,-0.098 0.514,0.016 0.358,0.581 0.275,0.448 0.135,0.222 -0.025,0.173 -0.025,0.055 L 0,0 z"
             style="fill:#d5190d;fill-opacity:1;fill-rule:nonzero;stroke:none"
             id="path13164"
             inkscape:connector-curvature="0" />
        </g>
      </g>
      <g
         style="fill:#d5190d;fill-opacity:1"
         transform="matrix(23.222837,0,0,-23.222837,1479.1588,-1655.5391)"
         id="g13006">
        <path
           inkscape:connector-curvature="0"
           id="path13008"
           style="fill:#d5190d;fill-opacity:1;fill-rule:nonzero;stroke:none"
           d="m 0,0 c 0,0 -1.118,-0.788 -1.525,-1.049 -0.407,-0.262 -1.335,-1.335 -1.622,-1.597 -0.286,-0.261 -0.668,-0.361 -1.073,-0.167 -0.404,0.192 -1.333,0.619 -1.787,0.905 -0.454,0.286 -1.764,1.837 -2.526,2.122 C -9.296,0.501 -9.558,0.071 -9.558,0 c 0,-0.071 -0.811,0.498 -1.073,0.476 -0.262,-0.022 -0.657,-0.14 -0.644,-0.641 0.003,-0.097 -0.143,-0.122 -0.476,-0.097 -0.333,0.025 -0.884,-0.911 -0.047,-1.621 0.036,-0.029 -0.022,0.668 0.214,0.668 0.237,0 -0.062,-0.364 1.215,-0.572 0.076,-0.013 0.406,-0.099 -0.047,0.237 -0.454,0.335 -0.451,0.716 0,0.644 0.451,-0.072 0.726,-0.58 1.621,-0.762 0.12,-0.025 0.308,0.093 -0.025,-0.24 -0.333,-0.333 -0.036,-0.679 0.333,-0.952 0.358,-0.264 0.661,-0.605 0.763,-1.192 0.049,-0.287 0.096,-0.429 -0.047,-0.549 -0.143,-0.118 -0.578,-0.181 -0.287,-0.239 0.355,-0.071 0.786,0.044 0.882,0.43 0.12,0.493 0,0.979 0.214,1.144 0.215,0.166 0.693,0.098 0.955,-0.357 0.262,-0.454 0.785,-1.886 0.81,-1.98 0.025,-0.093 -1.859,0.216 -2.835,0.501 -0.978,0.288 -2.815,1.612 -3.386,1.694 -0.333,0.047 -1.054,0.305 -1.285,-0.501 -0.026,-0.094 -0.69,0.336 -1.193,0.308 -0.405,-0.022 -0.728,-0.375 -0.55,-0.951 0.025,-0.08 -1.316,0.022 -0.999,-1.168 0.19,-0.717 0.774,-1.069 1.094,-1.217 0.097,-0.044 0.334,-0.119 -0.07,0.215 -0.405,0.333 -0.381,0.884 -0.237,0.954 0.142,0.072 0.357,-0.264 0.69,-0.264 0.334,0 0.786,-0.071 0.928,0.072 0.144,0.144 0.074,0.047 -0.309,0.215 -0.381,0.168 -0.451,0.595 -0.046,0.619 0.405,0.024 0.938,-0.466 2.216,-0.38 0.042,0.002 -0.57,-0.666 -0.047,-1.168 0.524,-0.5 1.234,-0.685 1.74,-1.67 0.096,-0.187 0.384,-0.982 -1.074,-0.691 -0.125,0.027 -0.142,-0.165 0.072,-0.237 0.215,-0.071 1.716,-0.355 1.811,0.43 0.097,0.785 -0.404,1.282 -0.428,1.547 -0.026,0.264 0.191,0.693 0.786,0.525 0.595,-0.167 1.384,-1.123 1.622,-1.574 0.236,-0.451 0.368,-0.983 0.596,-1.525 0.031,-0.072 3.359,3.314 3.001,4.696 -0.358,1.382 2.886,4.029 3.004,4.22 C 0.021,-0.763 0,0 0,0" />
      </g>
    </g>
    <g
       id="g13054"
       transform="matrix(23.222837,0,0,-23.222837,1087.3872,-962.43724)"
       style="fill:#076d80;fill-opacity:1;stroke:#076d80;stroke-opacity:1">
      <path
         d="M 0,0 38.854,0.007"
         style="fill:#076d80;fill-opacity:1;stroke:#076d80;stroke-width:0.23499999999999999;stroke-linecap:butt;stroke-linejoin:miter;stroke-miterlimit:3.86400007999999980;stroke-opacity:1;stroke-dasharray:none"
         id="path13056"
         inkscape:connector-curvature="0" />
    </g>
    <g
       id="g13086"
       transform="matrix(23.222837,0,0,-23.222837,1043.301,-763.6126)"
       style="fill:#076d80;fill-opacity:1;stroke:#076d80;stroke-opacity:1">
      <path
         d="M 0,0 42.783,0"
         style="fill:#076d80;fill-opacity:1;stroke:#076d80;stroke-width:0.23499999999999999;stroke-linecap:butt;stroke-linejoin:miter;stroke-miterlimit:3.86400007999999980;stroke-opacity:1;stroke-dasharray:none"
         id="path13088"
         inkscape:connector-curvature="0" />
    </g>
    <g
       id="g13114"
       transform="matrix(23.222837,0,0,-23.222837,1393.2993,-1206.7531)">
      <path
         d="M 0,0 C 0,0 0.021,0.192 -0.022,0.312 -0.066,0.427 -0.079,0.579 -0.271,0.556 -0.413,0.539 -0.302,0.21 -0.302,0.21 c 0,0 0.086,-0.18 0.247,-0.205 C -0.039,0.002 0,0 0,0"
         style="fill:#2b2b2a;fill-opacity:1;fill-rule:nonzero;stroke:none"
         id="path13116"
         inkscape:connector-curvature="0" />
    </g>
    <g
       id="g13118"
       transform="matrix(23.222837,0,0,-23.222837,1393.2993,-1206.7531)"
       style="fill:#ffffff;stroke:none">
      <path
         d="M 0,0 C 0,0 0.021,0.192 -0.022,0.312 -0.066,0.427 -0.079,0.579 -0.271,0.556 -0.413,0.539 -0.302,0.21 -0.302,0.21 c 0,0 0.086,-0.18 0.247,-0.205 C -0.039,0.002 0,0 0,0 z"
         style="fill:#ffffff;stroke:none"
         id="path13120"
         inkscape:connector-curvature="0" />
    </g>
    <g
       id="g14626"
       style="fill:#076d80;fill-opacity:1">
      <g
         style="fill:#076d80;fill-opacity:1"
         transform="matrix(23.222837,0,0,-23.222837,1044.4807,-858.90983)"
         id="g13022">
        <path
           inkscape:connector-curvature="0"
           id="path13024"
           style="fill:#076d80;fill-opacity:1;fill-rule:nonzero;stroke:none"
           d="m 0,0 c 0,-1.046 0.503,-1.783 1.151,-2.229 0.592,-0.397 1.289,-0.542 2.019,-0.542 0.518,0 1.102,0.121 1.28,0.185 0.09,0.033 0.186,0.065 0.283,0.082 0.122,0.153 0.333,0.689 0.39,1.109 -0.032,0.057 -0.154,0.075 -0.21,0.034 -0.187,-0.479 -0.648,-1.16 -1.695,-1.16 -1.329,0 -2.406,0.94 -2.406,2.643 0,1.678 1.053,2.464 2.293,2.464 1.175,0 1.541,-0.632 1.662,-1.184 C 4.823,1.354 4.945,1.362 4.985,1.419 4.921,1.914 4.88,2.425 4.871,2.61 4.799,2.602 4.742,2.618 4.646,2.643 4.265,2.748 3.648,2.837 3.21,2.837 2.367,2.837 1.613,2.61 1.021,2.148 0.405,1.67 0,0.9 0,0" />
      </g>
      <g
         style="fill:#076d80;fill-opacity:1"
         transform="matrix(23.222837,0,0,-23.222837,1216.9962,-890.72744)"
         id="g13026">
        <path
           inkscape:connector-curvature="0"
           id="path13028"
           style="fill:#076d80;fill-opacity:1;fill-rule:evenodd;stroke:none"
           d="m 0,0 c 0.089,0.242 0.17,0.437 0.194,0.478 l 0.016,0 C 0.259,0.381 0.332,0.163 0.396,-0.032 l 0.439,-1.322 c 0.073,-0.218 0.056,-0.25 -0.178,-0.25 l -0.997,0 c -0.227,0 -0.235,0.007 -0.171,0.194 L 0,0 z m 1.451,-3.234 c 0.065,-0.195 0.106,-0.341 0.106,-0.43 0,-0.081 -0.114,-0.13 -0.286,-0.146 L 1.037,-3.834 c -0.057,-0.04 -0.049,-0.17 0.016,-0.203 0.235,0.009 0.544,0.025 0.932,0.025 0.366,0 0.649,-0.009 0.982,-0.025 0.04,0.033 0.055,0.163 0,0.203 L 2.747,-3.81 C 2.399,-3.769 2.295,-3.647 2.06,-2.951 L 0.948,0.309 C 0.827,0.664 0.697,1.037 0.591,1.395 0.575,1.451 0.519,1.467 0.47,1.467 0.381,1.361 0.242,1.216 0.049,1.159 0.073,1.029 0.024,0.875 -0.09,0.584 L -0.917,-1.604 C -1.257,-2.513 -1.483,-3.04 -1.63,-3.413 -1.742,-3.705 -1.922,-3.794 -2.115,-3.81 l -0.269,-0.024 c -0.049,-0.04 -0.032,-0.17 0.017,-0.203 0.22,0.009 0.511,0.025 0.778,0.025 0.381,-0.009 0.633,-0.009 0.844,-0.025 0.072,0.033 0.072,0.163 0.016,0.203 l -0.268,0.024 c -0.195,0.016 -0.234,0.065 -0.234,0.163 0,0.089 0.055,0.307 0.177,0.672 l 0.283,0.851 c 0.058,0.171 0.106,0.194 0.309,0.194 l 1.223,0 c 0.244,0 0.276,-0.023 0.333,-0.201 l 0.357,-1.103 z" />
      </g>
      <g
         style="fill:#076d80;fill-opacity:1"
         transform="matrix(23.222837,0,0,-23.222837,1311.3622,-825.79871)"
         id="g13030">
        <path
           inkscape:connector-curvature="0"
           id="path13032"
           style="fill:#076d80;fill-opacity:1;fill-rule:nonzero;stroke:none"
           d="M 0,0 C 0,-0.852 -0.04,-0.973 -0.503,-1.014 L -0.77,-1.038 c -0.048,-0.049 -0.033,-0.178 0.016,-0.203 0.479,0.016 0.754,0.025 1.103,0.025 l 0.728,0 c 0.722,0 1.444,-0.009 2.173,-0.025 0.105,0.22 0.309,0.843 0.365,1.128 C 3.582,-0.041 3.469,-0.017 3.413,-0.058 3.201,-0.479 2.982,-0.762 2.836,-0.844 2.659,-0.933 2.424,-0.965 1.799,-0.965 c -0.712,0 -0.883,0.089 -0.981,0.186 -0.13,0.138 -0.154,0.414 -0.154,0.843 l 0,1.143 c 0,0.211 0.024,0.219 0.268,0.219 l 0.47,0 c 0.317,0 0.511,-0.008 0.624,-0.04 C 2.188,1.345 2.245,1.224 2.277,1.077 L 2.351,0.761 C 2.392,0.713 2.529,0.713 2.562,0.77 c 0,0.178 -0.033,0.485 -0.033,0.778 0,0.307 0.033,0.624 0.033,0.818 C 2.529,2.423 2.392,2.423 2.351,2.374 L 2.286,2.042 C 2.245,1.84 2.188,1.791 2.091,1.758 1.994,1.726 1.743,1.71 1.402,1.71 l -0.47,0 c -0.244,0 -0.268,0 -0.268,0.227 l 0,1.621 c 0,0.308 0,0.324 0.243,0.324 l 0.584,0 C 1.848,3.882 2.107,3.874 2.277,3.833 2.699,3.729 2.771,3.444 2.895,3.063 2.934,3.015 3.063,3.03 3.096,3.079 3.063,3.438 3.016,4.02 2.966,4.157 2.869,4.134 2.392,4.134 1.872,4.134 l -1.523,0 C 0.016,4.134 -0.26,4.142 -0.608,4.157 -0.656,4.134 -0.673,3.987 -0.624,3.955 L -0.495,3.938 C -0.016,3.882 0,3.761 0,2.917 L 0,0 z" />
      </g>
      <g
         style="fill:#076d80;fill-opacity:1"
         transform="matrix(23.222837,0,0,-23.222837,1429.6756,-910.48078)"
         id="g13034">
        <path
           inkscape:connector-curvature="0"
           id="path13036"
           style="fill:#076d80;fill-opacity:1;fill-rule:evenodd;stroke:none"
           d="m 0,0 c 0,0.228 0.024,0.26 0.527,0.26 0.9,0 1.296,-0.609 1.296,-1.249 0,-0.551 -0.185,-0.834 -0.404,-1.004 -0.235,-0.179 -0.544,-0.211 -0.835,-0.211 -0.414,0 -0.535,0.016 -0.56,0.04 C 0,-2.132 0,-2.042 0,-1.896 L 0,0 z m -0.664,-3.646 c 0,-0.852 -0.017,-0.958 -0.486,-1.014 l -0.204,-0.025 c -0.047,-0.056 -0.032,-0.177 0.016,-0.203 0.381,0.017 0.674,0.026 1.014,0.026 0.324,0 0.599,-0.009 0.965,-0.026 0.047,0.026 0.064,0.163 0.015,0.203 L 0.486,-4.66 C 0.017,-4.596 0,-4.498 0,-3.646 l 0,1.02 c 0,0.171 0.017,0.179 0.382,0.179 0.323,0 0.453,-0.082 0.575,-0.259 0.251,-0.365 0.583,-0.925 0.795,-1.225 0.574,-0.818 0.988,-1.02 1.677,-1.02 0.154,0 0.284,0.015 0.357,0.04 0.04,0.032 0.032,0.097 -0.009,0.112 -0.218,0.017 -0.421,0.106 -0.559,0.228 -0.551,0.463 -0.981,1.11 -1.63,2.156 -0.04,0.065 -0.079,0.146 -0.04,0.194 0.405,0.162 1.014,0.583 1.014,1.355 0,0.567 -0.285,0.931 -0.672,1.134 C 1.517,0.471 1.038,0.511 0.535,0.511 -0.259,0.511 -0.819,0.487 -1.272,0.446 -1.338,0.413 -1.338,0.283 -1.28,0.244 l 0.259,-0.033 c 0.332,-0.04 0.357,-0.179 0.357,-0.948 l 0,-2.909 z" />
      </g>
      <g
         style="fill:#076d80;fill-opacity:1"
         transform="matrix(23.222837,0,0,-23.222837,1553.3859,-899.57069)"
         id="g13038">
        <path
           inkscape:connector-curvature="0"
           id="path13040"
           style="fill:#076d80;fill-opacity:1;fill-rule:evenodd;stroke:none"
           d="m 0,0 c 0,0.365 0.017,0.567 0.082,0.616 0.064,0.049 0.324,0.113 0.802,0.113 2.124,0 2.554,-1.506 2.554,-2.399 0,-1.507 -0.706,-2.536 -2.279,-2.536 -0.511,0 -0.818,0.08 -0.997,0.332 C 0.025,-3.681 0,-3.421 0,-2.991 L 0,0 z m -0.664,-3.177 c 0,-0.851 -0.016,-0.949 -0.486,-1.013 l -0.187,-0.025 c -0.049,-0.049 -0.032,-0.178 0.016,-0.203 0.382,0.017 0.674,0.025 1.013,0.025 0.285,0 0.803,-0.065 1.322,-0.065 0.624,0 1.289,0.105 1.816,0.389 0.924,0.503 1.418,1.385 1.418,2.415 0,1.071 -0.552,1.995 -1.645,2.391 C 2.076,0.933 1.5,0.98 0.819,0.98 0.13,0.98 -0.526,0.957 -1.216,0.916 -1.296,0.883 -1.288,0.753 -1.224,0.714 l 0.179,-0.025 c 0.34,-0.048 0.381,-0.219 0.381,-0.787 l 0,-3.079 z" />
      </g>
      <g
         style="fill:#076d80;fill-opacity:1"
         transform="matrix(23.222837,0,0,-23.222837,1714.9937,-835.9587)"
         id="g13042">
        <path
           inkscape:connector-curvature="0"
           id="path13044"
           style="fill:#076d80;fill-opacity:1;fill-rule:nonzero;stroke:none"
           d="M 0,0 C 0,0.624 0.016,0.704 0.381,1.313 L 0.892,2.196 C 1.297,2.894 1.54,3.413 1.962,3.477 L 2.188,3.518 C 2.245,3.566 2.237,3.68 2.172,3.72 1.896,3.704 1.67,3.696 1.418,3.696 1.167,3.696 0.933,3.704 0.641,3.72 0.574,3.688 0.567,3.574 0.624,3.518 L 0.77,3.501 C 0.965,3.477 1.111,3.42 1.111,3.372 1.111,3.274 0.81,2.724 0.584,2.302 0.34,1.831 0.072,1.361 -0.179,0.932 c -0.315,0.56 -0.616,1.2 -0.915,1.799 -0.041,0.082 -0.252,0.543 -0.252,0.624 0,0.065 0.057,0.098 0.341,0.146 l 0.106,0.017 c 0.047,0.048 0.047,0.178 -0.026,0.202 -0.202,-0.016 -0.493,-0.024 -0.866,-0.024 -0.39,0 -0.682,0.008 -0.94,0.024 C -2.788,3.688 -2.797,3.574 -2.748,3.518 l 0.227,-0.041 c 0.243,-0.04 0.365,-0.081 0.64,-0.617 l 0.956,-1.864 c 0.236,-0.453 0.261,-0.559 0.261,-1.004 l 0,-0.414 c 0,-0.867 -0.018,-0.98 -0.487,-1.029 l -0.251,-0.025 c -0.049,-0.048 -0.034,-0.177 0.015,-0.203 0.43,0.017 0.723,0.026 1.062,0.026 0.325,0 0.6,-0.009 1.103,-0.026 0.049,0.026 0.065,0.155 0.016,0.203 L 0.486,-1.451 C 0.048,-1.418 0,-1.289 0,-0.422 L 0,0 z" />
      </g>
      <g
         style="fill:#076d80;fill-opacity:1"
         transform="matrix(23.222837,0,0,-23.222837,1803.554,-899.57069)"
         id="g13046">
        <path
           inkscape:connector-curvature="0"
           id="path13048"
           style="fill:#076d80;fill-opacity:1;fill-rule:evenodd;stroke:none"
           d="m 0,0 c 0,0.365 0.017,0.567 0.081,0.616 0.065,0.049 0.323,0.113 0.802,0.113 2.124,0 2.555,-1.506 2.555,-2.399 0,-1.507 -0.707,-2.536 -2.279,-2.536 -0.511,0 -0.818,0.08 -0.996,0.332 C 0.024,-3.681 0,-3.421 0,-2.991 L 0,0 z m -0.665,-3.177 c 0,-0.851 -0.016,-0.949 -0.486,-1.013 l -0.186,-0.025 c -0.049,-0.049 -0.033,-0.178 0.016,-0.203 0.381,0.017 0.673,0.025 1.013,0.025 0.284,0 0.802,-0.065 1.321,-0.065 0.624,0 1.289,0.105 1.816,0.389 0.924,0.503 1.419,1.385 1.419,2.415 0,1.071 -0.553,1.995 -1.645,2.391 C 2.075,0.933 1.499,0.98 0.819,0.98 0.129,0.98 -0.527,0.957 -1.216,0.916 -1.297,0.883 -1.289,0.753 -1.225,0.714 l 0.179,-0.025 c 0.341,-0.048 0.381,-0.219 0.381,-0.787 l 0,-3.079 z" />
      </g>
      <g
         style="fill:#076d80;fill-opacity:1"
         transform="matrix(23.222837,0,0,-23.222837,1937.6519,-899.57069)"
         id="g13050">
        <path
           inkscape:connector-curvature="0"
           id="path13052"
           style="fill:#076d80;fill-opacity:1;fill-rule:evenodd;stroke:none"
           d="m 0,0 c 0,0.365 0.017,0.567 0.081,0.616 0.065,0.049 0.324,0.113 0.803,0.113 2.123,0 2.553,-1.506 2.553,-2.399 0,-1.507 -0.706,-2.536 -2.278,-2.536 -0.511,0 -0.819,0.08 -0.997,0.332 C 0.024,-3.681 0,-3.421 0,-2.991 L 0,0 z m -0.664,-3.177 c 0,-0.851 -0.017,-0.949 -0.486,-1.013 l -0.188,-0.025 c -0.049,-0.049 -0.031,-0.178 0.017,-0.203 0.381,0.017 0.673,0.025 1.012,0.025 0.285,0 0.804,-0.065 1.322,-0.065 0.626,0 1.29,0.105 1.816,0.389 0.924,0.503 1.418,1.385 1.418,2.415 0,1.071 -0.551,1.995 -1.645,2.391 C 2.075,0.933 1.499,0.98 0.818,0.98 0.13,0.98 -0.527,0.957 -1.216,0.916 -1.297,0.883 -1.289,0.753 -1.224,0.714 l 0.178,-0.025 c 0.341,-0.048 0.382,-0.219 0.382,-0.787 l 0,-3.079 z" />
      </g>
      <g
         style="fill:#076d80;fill-opacity:1"
         transform="matrix(23.222837,0,0,-23.222837,1161.7049,-1056.2134)"
         id="g13058">
        <path
           inkscape:connector-curvature="0"
           id="path13060"
           style="fill:#076d80;fill-opacity:1;fill-rule:nonzero;stroke:none"
           d="m 0,0 c 0,-1.045 0.501,-1.783 1.15,-2.229 0.593,-0.397 1.289,-0.542 2.019,-0.542 0.519,0 1.102,0.121 1.281,0.186 0.088,0.031 0.186,0.064 0.283,0.08 0.121,0.155 0.332,0.69 0.389,1.11 C 5.09,-1.337 4.969,-1.32 4.911,-1.36 4.725,-1.84 4.263,-2.521 3.217,-2.521 1.889,-2.521 0.81,-1.58 0.81,0.122 0.81,1.8 1.863,2.586 3.104,2.586 4.28,2.586 4.645,1.954 4.766,1.402 4.822,1.354 4.944,1.362 4.984,1.419 4.92,1.913 4.879,2.424 4.871,2.61 4.798,2.603 4.741,2.619 4.645,2.643 4.263,2.748 3.647,2.837 3.209,2.837 2.365,2.837 1.612,2.61 1.021,2.148 0.404,1.67 0,0.899 0,0" />
      </g>
      <g
         style="fill:#076d80;fill-opacity:1"
         transform="matrix(23.222837,0,0,-23.222837,1336.0806,-1088.031)"
         id="g13062">
        <path
           inkscape:connector-curvature="0"
           id="path13064"
           style="fill:#076d80;fill-opacity:1;fill-rule:evenodd;stroke:none"
           d="m 0,0 c 0.09,0.243 0.17,0.437 0.194,0.479 l 0.017,0 C 0.26,0.381 0.331,0.162 0.396,-0.032 l 0.439,-1.322 c 0.072,-0.218 0.057,-0.25 -0.179,-0.25 l -0.997,0 c -0.226,0 -0.235,0.007 -0.17,0.194 L 0,0 z m 1.45,-3.234 c 0.066,-0.195 0.106,-0.34 0.106,-0.429 0,-0.081 -0.114,-0.131 -0.284,-0.147 L 1.037,-3.834 c -0.057,-0.041 -0.048,-0.17 0.016,-0.202 0.236,0.008 0.543,0.023 0.932,0.023 0.365,0 0.649,-0.008 0.982,-0.023 0.04,0.032 0.056,0.161 0,0.202 L 2.748,-3.81 C 2.399,-3.77 2.294,-3.648 2.059,-2.95 L 0.947,0.309 C 0.827,0.664 0.696,1.037 0.592,1.395 0.575,1.452 0.519,1.467 0.47,1.467 0.381,1.362 0.243,1.216 0.048,1.159 0.072,1.029 0.023,0.876 -0.09,0.584 L -0.916,-1.604 C -1.257,-2.513 -1.484,-3.04 -1.63,-3.413 -1.743,-3.704 -1.921,-3.794 -2.116,-3.81 l -0.268,-0.024 c -0.048,-0.041 -0.032,-0.17 0.017,-0.202 0.219,0.008 0.51,0.023 0.778,0.023 0.381,-0.008 0.632,-0.008 0.843,-0.023 0.074,0.032 0.074,0.161 0.016,0.202 l -0.267,0.024 c -0.194,0.016 -0.235,0.066 -0.235,0.162 0,0.089 0.057,0.309 0.178,0.673 l 0.284,0.851 c 0.056,0.171 0.105,0.194 0.307,0.194 l 1.225,0 c 0.243,0 0.275,-0.023 0.332,-0.202 L 1.45,-3.234 z" />
      </g>
      <g
         style="fill:#076d80;fill-opacity:1"
         transform="matrix(23.222837,0,0,-23.222837,1442.1021,-1107.8052)"
         id="g13066">
        <path
           inkscape:connector-curvature="0"
           id="path13068"
           style="fill:#076d80;fill-opacity:1;fill-rule:evenodd;stroke:none"
           d="m 0,0 c 0,0.227 0.024,0.26 0.527,0.26 0.9,0 1.297,-0.609 1.297,-1.249 0,-0.551 -0.186,-0.834 -0.405,-1.005 -0.235,-0.178 -0.543,-0.212 -0.835,-0.212 -0.414,0 -0.535,0.018 -0.56,0.042 C 0,-2.132 0,-2.043 0,-1.896 L 0,0 z m -0.664,-3.648 c 0,-0.852 -0.017,-0.956 -0.486,-1.013 l -0.203,-0.025 c -0.049,-0.056 -0.034,-0.178 0.016,-0.202 0.381,0.016 0.673,0.024 1.014,0.024 0.323,0 0.599,-0.008 0.963,-0.024 0.049,0.024 0.066,0.161 0.016,0.202 l -0.17,0.025 C 0.016,-4.596 0,-4.5 0,-3.648 l 0,1.021 c 0,0.171 0.016,0.179 0.381,0.179 0.325,0 0.454,-0.081 0.576,-0.26 0.251,-0.364 0.584,-0.924 0.794,-1.224 0.575,-0.819 0.989,-1.021 1.678,-1.021 0.154,0 0.284,0.016 0.357,0.04 0.039,0.033 0.031,0.098 -0.009,0.114 -0.218,0.016 -0.421,0.106 -0.559,0.228 -0.551,0.461 -0.981,1.109 -1.628,2.156 -0.042,0.063 -0.082,0.145 -0.042,0.193 0.406,0.162 1.014,0.584 1.014,1.355 0,0.566 -0.285,0.931 -0.673,1.135 C 1.516,0.47 1.037,0.511 0.534,0.511 -0.26,0.511 -0.818,0.486 -1.272,0.445 -1.337,0.413 -1.337,0.283 -1.28,0.242 l 0.259,-0.031 c 0.333,-0.041 0.357,-0.179 0.357,-0.949 l 0,-2.91 z" />
      </g>
      <g
         style="fill:#076d80;fill-opacity:1"
         transform="matrix(23.222837,0,0,-23.222837,1565.838,-1096.8742)"
         id="g13070">
        <path
           inkscape:connector-curvature="0"
           id="path13072"
           style="fill:#076d80;fill-opacity:1;fill-rule:evenodd;stroke:none"
           d="m 0,0 c 0,0.365 0.017,0.567 0.081,0.616 0.065,0.048 0.324,0.114 0.803,0.114 2.123,0 2.553,-1.507 2.553,-2.4 0,-1.508 -0.706,-2.537 -2.278,-2.537 -0.511,0 -0.819,0.082 -0.997,0.333 C 0.024,-3.68 0,-3.421 0,-2.991 L 0,0 z m -0.665,-3.178 c 0,-0.851 -0.017,-0.947 -0.485,-1.012 l -0.188,-0.025 c -0.048,-0.049 -0.032,-0.179 0.017,-0.202 0.381,0.016 0.673,0.023 1.012,0.023 0.284,0 0.804,-0.064 1.322,-0.064 0.625,0 1.289,0.104 1.816,0.389 0.924,0.503 1.418,1.386 1.418,2.416 0,1.07 -0.551,1.994 -1.645,2.391 C 2.075,0.932 1.499,0.981 0.818,0.981 0.13,0.981 -0.527,0.957 -1.216,0.916 -1.298,0.884 -1.29,0.754 -1.224,0.713 L -1.046,0.69 c 0.341,-0.049 0.381,-0.219 0.381,-0.788 l 0,-3.08 z" />
      </g>
      <g
         style="fill:#076d80;fill-opacity:1"
         transform="matrix(23.222837,0,0,-23.222837,1690.1615,-1023.4645)"
         id="g13074">
        <path
           inkscape:connector-curvature="0"
           id="path13076"
           style="fill:#076d80;fill-opacity:1;fill-rule:nonzero;stroke:none"
           d="m 0,0 c 0,-0.859 -0.017,-0.973 -0.495,-1.029 l -0.203,-0.025 c -0.048,-0.049 -0.031,-0.178 0.017,-0.202 0.405,0.016 0.681,0.024 1.021,0.024 0.324,0 0.599,-0.008 1.005,-0.024 0.049,0.024 0.065,0.17 0.016,0.202 L 1.159,-1.029 C 0.681,-0.973 0.664,-0.859 0.664,0 l 0,2.886 c 0,0.859 0.017,0.997 0.495,1.037 L 1.361,3.939 C 1.41,3.972 1.394,4.118 1.345,4.143 0.939,4.127 0.664,4.118 0.34,4.118 0,4.118 -0.276,4.127 -0.681,4.143 -0.729,4.118 -0.746,3.972 -0.698,3.939 L -0.495,3.923 C -0.017,3.883 0,3.745 0,2.886 L 0,0 z" />
      </g>
      <g
         style="fill:#076d80;fill-opacity:1"
         transform="matrix(23.222837,0,0,-23.222837,1762.1198,-1105.7198)"
         id="g13078">
        <path
           inkscape:connector-curvature="0"
           id="path13080"
           style="fill:#076d80;fill-opacity:1;fill-rule:nonzero;stroke:none"
           d="m 0,0 c 0,0.31 0,0.324 0.244,0.324 l 0.494,0 C 1.079,0.324 1.347,0.316 1.524,0.275 1.93,0.162 2.027,-0.13 2.092,-0.494 2.148,-0.542 2.263,-0.519 2.286,-0.471 2.271,-0.161 2.263,0.228 2.263,0.601 2.156,0.576 1.687,0.576 1.167,0.576 l -1.491,0 c -0.323,0 -0.599,0.009 -0.94,0.025 C -1.312,0.576 -1.328,0.43 -1.28,0.397 l 0.13,-0.016 c 0.47,-0.057 0.486,-0.169 0.486,-1.021 l 0,-2.919 c 0,-0.851 -0.016,-0.956 -0.486,-1.012 l -0.204,-0.025 c -0.048,-0.049 -0.031,-0.178 0.017,-0.202 0.381,0.016 0.657,0.024 1.013,0.024 0.324,0 0.599,-0.008 1.078,-0.024 0.049,0.024 0.066,0.17 0.017,0.202 L 0.495,-4.571 C 0.017,-4.531 0,-4.41 0,-3.559 l 0,1.127 c 0,0.211 0.025,0.22 0.268,0.22 l 0.552,0 c 0.307,0 0.511,-0.009 0.623,-0.042 0.155,-0.048 0.227,-0.161 0.26,-0.307 l 0.081,-0.316 c 0.058,-0.049 0.179,-0.049 0.211,0 0,0.186 -0.032,0.494 -0.032,0.786 0,0.3 0.032,0.625 0.032,0.819 -0.032,0.047 -0.171,0.047 -0.211,0 L 1.711,-1.597 C 1.662,-1.807 1.598,-1.848 1.509,-1.881 1.411,-1.913 1.152,-1.929 0.82,-1.929 l -0.552,0 C 0.025,-1.929 0,-1.929 0,-1.71 L 0,0 z" />
      </g>
      <g
         style="fill:#076d80;fill-opacity:1"
         transform="matrix(23.222837,0,0,-23.222837,1856.3255,-1105.7198)"
         id="g13082">
        <path
           inkscape:connector-curvature="0"
           id="path13084"
           style="fill:#076d80;fill-opacity:1;fill-rule:nonzero;stroke:none"
           d="m 0,0 c 0,0.31 0,0.324 0.242,0.324 l 0.496,0 C 1.077,0.324 1.345,0.316 1.524,0.275 1.929,0.162 2.026,-0.13 2.091,-0.494 2.147,-0.542 2.261,-0.519 2.286,-0.471 2.27,-0.161 2.261,0.228 2.261,0.601 2.156,0.576 1.686,0.576 1.167,0.576 l -1.492,0 c -0.323,0 -0.599,0.009 -0.94,0.025 C -1.312,0.576 -1.33,0.43 -1.28,0.397 l 0.129,-0.016 c 0.469,-0.057 0.487,-0.169 0.487,-1.021 l 0,-2.919 c 0,-0.851 -0.018,-0.956 -0.487,-1.012 l -0.203,-0.025 c -0.048,-0.049 -0.032,-0.178 0.016,-0.202 0.381,0.016 0.656,0.024 1.013,0.024 0.325,0 0.6,-0.008 1.079,-0.024 0.048,0.024 0.064,0.17 0.016,0.202 L 0.495,-4.571 C 0.016,-4.531 0,-4.41 0,-3.559 l 0,1.127 c 0,0.211 0.024,0.22 0.268,0.22 l 0.55,0 c 0.309,0 0.511,-0.009 0.624,-0.042 0.155,-0.048 0.228,-0.161 0.259,-0.307 l 0.082,-0.316 c 0.057,-0.049 0.178,-0.049 0.211,0 0,0.186 -0.033,0.494 -0.033,0.786 0,0.3 0.033,0.625 0.033,0.819 -0.033,0.047 -0.171,0.047 -0.211,0 L 1.71,-1.597 C 1.662,-1.807 1.597,-1.848 1.508,-1.881 1.41,-1.913 1.151,-1.929 0.818,-1.929 l -0.55,0 C 0.024,-1.929 0,-1.929 0,-1.71 L 0,0 z" />
      </g>
      <g
         style="fill:#076d80;fill-opacity:1"
         transform="matrix(23.222837,0,0,-23.222837,1572.2777,-1325.9745)"
         id="g13102">
        <path
           inkscape:connector-curvature="0"
           id="path13104"
           style="fill:#076d80;fill-opacity:1;fill-rule:nonzero;stroke:none"
           d="m 0,0 c -0.03,0.035 -0.345,0.297 -0.179,-0.094 0.166,-0.39 0.642,-1.264 0.705,-1.811 0.063,-0.549 -0.1,-0.509 -0.063,-0.608 0.037,-0.1 0.356,-0.052 0.415,0.168 0.056,0.22 0.287,0.45 0.274,0.491 -0.012,0.04 0.756,-0.139 0.902,0.01 0.144,0.15 0.084,0.135 -0.091,0.233 C 1.788,-1.514 1.231,-1.394 0.645,-0.749 0.057,-0.104 0.114,-0.128 0,0" />
      </g>
      <g
         style="fill:#076d80;fill-opacity:1;stroke:none"
         transform="matrix(23.222837,0,0,-23.222837,1505.807,-1203.9176)"
         id="g13110">
        <path
           inkscape:connector-curvature="0"
           id="path13112"
           style="fill:#076d80;fill-opacity:1;fill-rule:nonzero;stroke:none"
           d="m 0,0 c -0.053,-0.104 -0.506,-1.025 -1.308,-1.146 -0.801,-0.123 -1.68,-0.033 -2.395,0.106 -0.715,0.138 -1.847,0.249 -2.246,0.093 -0.403,-0.157 -1.745,-0.911 -2.826,-0.86 -1.081,0.053 -1.658,0.563 -2.39,0.737 -0.731,0.174 -1.839,0.08 -2.171,-0.163 0,0 -0.174,0.225 0.559,0.712 0.732,0.487 1.702,0.149 2.596,0.347 0.315,0.07 2.1,0.085 2.312,0.678 0.21,0.582 0.366,0.172 0.395,0.093 0.503,-1.339 2.128,0.3 2.275,0.822 0.206,0.739 -0.248,1.459 -0.234,1.45 0.562,-0.302 1.314,-0.886 1.63,-1.218 0.669,-0.704 0.978,-1.355 1.554,-1.669 0.575,-0.312 0.993,-0.85 2.231,0.018" />
      </g>
      <g
         style="fill:#076d80;fill-opacity:1;stroke:none"
         transform="matrix(23.222837,0,0,-23.222837,1368.012,-1329.2628)"
         id="g13122">
        <path
           inkscape:connector-curvature="0"
           id="path13124"
           style="fill:#076d80;fill-opacity:1;fill-rule:nonzero;stroke:none"
           d="m 0,0 c 0,0 -0.048,-0.383 0.033,-0.617 0.083,-0.235 0.102,-0.537 0.481,-0.499 0.285,0.029 0.075,0.688 0.075,0.688 0,0 -0.164,0.362 -0.48,0.417 C 0.075,-0.005 0,0 0,0" />
      </g>
      <g
         style="fill:#076d80;fill-opacity:1;stroke:none"
         transform="matrix(23.222837,0,0,-23.222837,1521.7959,-1379.4265)"
         id="g13150">
        <path
           inkscape:connector-curvature="0"
           id="path13152"
           style="fill:#076d80;fill-opacity:1;fill-rule:nonzero;stroke:none"
           d="m 0,0 c 0,0 -0.046,-0.382 0.035,-0.616 0.082,-0.236 0.102,-0.537 0.479,-0.499 0.286,0.028 0.077,0.687 0.077,0.687 0,0 -0.165,0.362 -0.482,0.418 C 0.076,-0.004 0,0 0,0" />
      </g>
      <g
         style="fill:#076d80;fill-opacity:1;stroke:none"
         transform="matrix(23.222837,0,0,-23.222837,1617.6807,-1211.1074)"
         id="g13154">
        <path
           inkscape:connector-curvature="0"
           id="path13156"
           style="fill:#076d80;fill-opacity:1;fill-rule:nonzero;stroke:none"
           d="m 0,0 c 0,0 -0.048,-0.382 0.033,-0.617 0.083,-0.235 0.102,-0.537 0.481,-0.498 0.285,0.028 0.075,0.687 0.075,0.687 0,0 -0.164,0.361 -0.482,0.417 C 0.075,-0.005 0,0 0,0" />
      </g>
      <g
         style="fill:#076d80;fill-opacity:1;stroke:none"
         transform="matrix(23.222837,0,0,-23.222837,1667.8908,-1227.7303)"
         id="g13158">
        <path
           inkscape:connector-curvature="0"
           id="path13160"
           style="fill:#076d80;fill-opacity:1;fill-rule:nonzero;stroke:none"
           d="m 0,0 c 0.247,-0.239 0.443,-0.366 0.443,-0.366 0,0 0.695,-0.451 0.931,-0.737 0.222,-0.267 0.25,-0.545 0.094,-0.71 C 1.321,-1.967 1.106,-1.998 0.95,-1.896 0.793,-1.796 0.604,-1.658 0.518,-1.405 0.43,-1.152 0.302,-0.819 0.198,-0.666 0.097,-0.513 0.083,-0.333 0.017,-0.27 -0.049,-0.205 -0.153,0.149 0,0" />
      </g>
    </g>
    <g
       id="g13166"
       transform="matrix(23.222837,0,0,-23.222837,1414.7061,-1441.1574)"
       style="fill:#ffffff;stroke:none">
      <path
         d="m 0,0 c 0,0 0.059,0.249 0.022,0.409 -0.036,0.16 -0.025,0.361 -0.279,0.363 -0.189,0.002 -0.101,-0.446 -0.101,-0.446 0,0 0.083,-0.25 0.288,-0.31 C -0.05,0.01 0,0 0,0"
         style="fill:#ffffff;fill-opacity:1;fill-rule:nonzero;stroke:none"
         id="path13168"
         inkscape:connector-curvature="0" />
    </g>
    <g
       id="g13174"
       transform="matrix(23.222837,0,0,-23.222837,1468.7039,-1546.6356)"
       style="fill:#ffffff;stroke:none">
      <path
         d="M 0,0 C 0,0 0.064,0.234 0.035,0.388 0.005,0.541 0.021,0.731 -0.218,0.741 -0.398,0.75 -0.329,0.32 -0.329,0.32 c 0,0 0.068,-0.24 0.262,-0.303 C -0.048,0.01 0,0 0,0"
         style="fill:#ffffff;fill-opacity:1;fill-rule:nonzero;stroke:none"
         id="path13176"
         inkscape:connector-curvature="0" />
    </g>
    <g
       id="g13182"
       transform="matrix(23.222837,0,0,-23.222837,1456.5258,-1742.4877)">
      <path
         d="m 0,0 c -0.073,-0.355 -0.458,-0.535 -0.821,-0.56 -0.123,-0.008 -0.191,0.038 -0.313,0.063 0.415,0.017 0.86,0.106 0.942,0.511 0.045,0.224 0.027,0.396 -0.131,0.557 C -0.49,0.745 -0.561,0.82 -0.903,1.048 -0.971,1.093 -0.786,1.007 -0.715,0.981 -0.285,0.808 0.093,0.452 0,0"
         style="fill:#ffffff;fill-opacity:1;fill-rule:nonzero;stroke:none"
         id="path13184"
         inkscape:connector-curvature="0" />
    </g>
    <g
       id="g13186"
       transform="matrix(23.222837,0,0,-23.222837,1381.2792,-1762.4454)"
       style="fill:#ffffff;stroke:none">
      <path
         d="m 0,0 c -0.446,0.15 -0.702,0.079 -1.069,-0.134 -0.163,-0.095 0.152,0.342 0.152,0.342 0.296,0.121 0.443,0.17 0.676,0.173 C 0.021,0.386 0.17,0.248 0.311,0.234 0.507,0.214 0.616,0.147 0.818,0.146 1.049,0.153 1.59,0.458 1.8,0.427 1.375,0.294 1.262,-0.037 0.812,-0.061"
         style="fill:#ffffff;fill-opacity:1;fill-rule:nonzero;stroke:none"
         id="path13188"
         inkscape:connector-curvature="0" />
    </g>
    <g
       id="g13190"
       transform="matrix(23.222837,0,0,-23.222837,1384.4537,-1795.6703)"
       style="fill:#ffffff;stroke:none">
      <path
         d="m 0,0 c -0.368,0.238 -0.861,0.181 -1.13,0.107 -0.006,0.141 0.25,0.256 0.25,0.256 0.155,0.088 0.279,0.105 0.43,0.095 C -0.314,0.45 -0.067,0.336 0.021,0.31 0.141,0.272 0.241,0.232 0.367,0.208 0.512,0.187 1.046,0.037 1.176,-0.01 0.903,-0.061 0.288,-0.079 0,0"
         style="fill:#ffffff;fill-opacity:1;fill-rule:nonzero;stroke:none"
         id="path13192"
         inkscape:connector-curvature="0" />
    </g>
    <g
       id="g13198"
       transform="matrix(23.222837,0,0,-23.222837,1505.6026,-1722.3488)"
       style="fill:#ffffff;stroke:none">
      <path
         d="M 0,0 C 0.701,0.149 2.12,1.074 2.094,1.789 2.085,2.067 2.073,2.218 2.063,2.497 2.054,2.799 1.896,3.001 1.655,3.172 L 1.852,3.038 C 2.347,2.699 2.521,2.446 2.546,1.743 2.577,0.878 0.853,0.082 0,0"
         style="fill:#ffffff;fill-opacity:1;fill-rule:nonzero;stroke:none"
         id="path13200"
         inkscape:connector-curvature="0" />
    </g>
    <g
       id="g13202"
       transform="matrix(23.222837,0,0,-23.222837,1504.7643,-1797.2796)"
       style="fill:#ffffff;stroke:none">
      <path
         d="M 0,0 C 0.072,0.045 0.06,0.156 0.164,0.155 0.189,0.058 0.18,-0.082 0.083,-0.142 c -0.262,-0.215 -0.624,-0.04 -0.905,0.019 -0.075,-0.134 -0.169,-0.33 -0.35,-0.35 -0.144,0.011 -0.308,0.057 -0.364,0.202 -0.068,0.118 0.01,0.239 0.062,0.344 -0.034,0.06 -0.11,0.052 -0.146,0.023 -0.151,-0.154 0.006,-0.375 -0.23,-0.476 -0.179,-0.043 -0.315,0.006 -0.465,0.066 l -0.007,0.048 c 0.14,0.028 0.41,-0.032 0.395,0.192 C -1.944,0.075 -1.939,0.251 -1.779,0.33 -1.143,0.358 -0.604,-0.2 0,0"
         style="fill:#ffffff;fill-opacity:1;fill-rule:nonzero;stroke:none"
         id="path13204"
         inkscape:connector-curvature="0" />
    </g>
  </g>
</svg>
