<?xml version="1.0" encoding="UTF-8"?>
<svg xmlns="http://www.w3.org/2000/svg" xmlns:xlink="http://www.w3.org/1999/xlink" width="52pt" height="50pt" viewBox="0 0 52 50" version="1.1">
<g id="surface1">
<path style=" stroke:none;fill-rule:nonzero;fill:rgb(83.921569%,22.745098%,29.019608%);fill-opacity:1;" d="M 0 25.679688 L 52.027344 25.679688 L 52.027344 50.027344 L 0 50.027344 Z M 0 25.679688 "/>
<path style=" stroke:none;fill-rule:nonzero;fill:rgb(100%,100%,100%);fill-opacity:1;" d="M 12.269531 41.71875 L 13.332031 39.25 L 14.308594 41.71875 L 12.269531 41.71875 M 16.558594 43.796875 L 14.015625 37.976562 C 13.929688 37.757812 13.859375 37.609375 13.601562 37.609375 L 13.441406 37.609375 L 10.507812 43.847656 C 10.449219 43.96875 10.4375 44.042969 10.4375 44.140625 C 10.4375 44.261719 10.570312 44.285156 10.679688 44.285156 L 11.328125 44.285156 C 11.316406 44.25 11.316406 44.1875 11.316406 44.140625 C 11.316406 44.027344 11.339844 43.90625 11.390625 43.773438 L 12.011719 42.257812 L 14.53125 42.257812 L 15.214844 43.957031 C 15.300781 44.164062 15.398438 44.273438 15.640625 44.273438 L 16.886719 44.273438 C 16.765625 44.1875 16.621094 43.933594 16.558594 43.796875 Z M 6.5 31.890625 C 6.378906 31.890625 6.21875 31.867188 6.121094 31.867188 C 6.121094 31.867188 6.121094 30.402344 6.121094 29.839844 L 6.597656 29.828125 C 7.222656 29.8125 7.699219 30.070312 7.699219 30.769531 C 7.699219 31.511719 7.171875 31.890625 6.5 31.890625 Z M 6.890625 29.410156 L 5.167969 29.398438 C 5.242188 29.507812 5.265625 29.886719 5.277344 30.253906 C 5.304688 30.9375 5.277344 31.636719 5.277344 32.308594 C 5.277344 32.785156 5.253906 33.25 5.253906 33.726562 C 5.253906 33.945312 5.351562 34.117188 5.597656 34.117188 L 6.183594 34.117188 C 6.132812 33.542969 6.121094 32.882812 6.121094 32.273438 C 6.269531 32.285156 6.414062 32.285156 6.5625 32.285156 C 7.527344 32.285156 8.578125 31.820312 8.578125 30.707031 C 8.578125 29.714844 7.734375 29.421875 6.890625 29.410156 Z M 11.066406 31.839844 L 10.796875 31.839844 L 10.796875 31.363281 C 10.796875 31.007812 10.808594 30.164062 10.820312 29.796875 C 10.96875 29.796875 11.101562 29.785156 11.234375 29.785156 C 11.859375 29.785156 12.445312 30.140625 12.445312 30.8125 C 12.445312 31.621094 11.738281 31.851562 11.066406 31.839844 Z M 12.105469 32.097656 C 12.738281 31.902344 13.289062 31.460938 13.289062 30.703125 C 13.289062 29.6875 12.398438 29.394531 11.554688 29.394531 C 11.175781 29.394531 10.785156 29.382812 10.40625 29.382812 C 10.222656 29.382812 10.027344 29.394531 9.84375 29.394531 C 9.90625 29.480469 9.941406 29.601562 9.953125 29.710938 C 9.988281 30.238281 9.976562 31.042969 9.976562 31.707031 C 9.976562 32.171875 9.964844 32.648438 9.953125 33.113281 C 9.941406 33.34375 9.929688 33.5625 9.929688 33.796875 C 9.929688 34.015625 10.0625 34.101562 10.269531 34.101562 C 10.480469 34.101562 10.6875 34.089844 10.894531 34.078125 C 10.820312 33.6875 10.808594 32.816406 10.808594 32.230469 C 10.929688 32.230469 11.308594 32.230469 11.308594 32.230469 C 11.675781 32.816406 12.03125 33.378906 12.457031 33.941406 C 12.8125 34.433594 13.214844 34.628906 13.828125 34.628906 C 13.898438 34.628906 14.011719 34.628906 14.082031 34.628906 C 13.777344 34.433594 12.75 33.085938 12.105469 32.097656 Z M 23.195312 41.523438 C 22.902344 41.523438 22.632812 41.535156 22.339844 41.535156 C 22.339844 41.15625 22.339844 40.632812 22.339844 40.054688 C 22.339844 39.175781 22.351562 38.171875 22.414062 37.316406 C 22.671875 37.292969 22.960938 37.269531 23.246094 37.269531 C 24.492188 37.269531 25.492188 37.929688 25.492188 39.273438 C 25.492188 40.632812 24.503906 41.523438 23.195312 41.523438 Z M 24.722656 41.867188 C 25.992188 41.460938 26.910156 40.460938 26.910156 39.078125 C 26.910156 37.316406 25.332031 36.667969 23.804688 36.667969 C 22.816406 36.667969 21.8125 36.695312 20.8125 36.707031 C 20.933594 36.914062 20.984375 37.414062 20.984375 37.671875 C 20.984375 38.882812 21.007812 39.984375 21.007812 40.828125 C 21.007812 43.160156 20.898438 44.507812 20.898438 44.945312 C 20.898438 45.128906 20.972656 45.15625 21.128906 45.15625 C 21.65625 45.15625 22.15625 45.140625 22.671875 45.140625 C 22.597656 45.070312 22.546875 44.898438 22.511719 44.679688 C 22.402344 43.894531 22.351562 42.976562 22.351562 42.121094 C 22.683594 42.121094 23.058594 42.109375 23.386719 42.097656 C 23.820312 42.78125 24.355469 43.578125 24.964844 44.382812 C 25.886719 45.59375 27.136719 46.988281 28.59375 46.988281 C 28.972656 46.988281 29.300781 46.953125 29.679688 46.914062 C 27.972656 46.316406 25.75 43.40625 24.722656 41.867188 Z M 31.289062 44.445312 L 30.25 44.445312 C 30.003906 44.445312 29.882812 44.359375 29.832031 44.117188 C 29.796875 43.871094 29.785156 43.515625 29.773438 43.261719 C 29.75 42.710938 29.734375 41.890625 29.734375 41.207031 C 29.734375 39.945312 29.796875 38.6875 29.847656 37.441406 C 30.140625 37.390625 30.445312 37.367188 30.75 37.367188 C 32.925781 37.367188 34.429688 38.601562 34.429688 40.886719 C 34.429688 42.90625 33.449219 44.445312 31.289062 44.445312 Z M 31.265625 36.730469 C 30.175781 36.730469 28.988281 36.753906 28.050781 36.753906 C 28.234375 37.011719 28.308594 37.5 28.355469 38.492188 C 28.390625 39.210938 28.417969 39.945312 28.417969 40.679688 C 28.417969 41.570312 28.402344 42.464844 28.378906 43.359375 C 28.355469 43.847656 28.320312 44.324219 28.320312 44.8125 C 28.320312 45.042969 28.515625 45.167969 28.722656 45.167969 L 31.164062 45.167969 C 33.878906 45.167969 35.90625 43.664062 35.90625 40.816406 C 35.90625 37.890625 33.976562 36.730469 31.265625 36.730469 Z M 43.035156 45.996094 L 42.191406 45.996094 C 41.984375 45.996094 41.859375 45.902344 41.847656 45.730469 C 41.800781 44.921875 41.773438 44.1875 41.773438 43.367188 C 41.773438 42.355469 41.796875 41.277344 41.859375 40.3125 C 42.128906 40.277344 42.300781 40.261719 42.582031 40.261719 C 42.703125 40.261719 42.824219 40.261719 42.9375 40.277344 C 42.9375 41.265625 42.910156 42.257812 42.863281 43.246094 C 42.863281 43.417969 43.007812 43.527344 43.191406 43.527344 L 45.171875 43.527344 C 45.292969 43.527344 45.429688 43.527344 45.550781 43.515625 C 45.429688 44.945312 44.644531 45.996094 43.035156 45.996094 Z M 45.269531 42.953125 L 44.4375 42.953125 C 44.230469 42.953125 44.121094 42.84375 44.109375 42.671875 C 44.0625 41.9375 44.023438 41.207031 44.023438 40.542969 C 44.925781 40.949219 45.515625 41.78125 45.5625 42.941406 C 45.464844 42.941406 45.367188 42.953125 45.269531 42.953125 Z M 46.746094 42.539062 C 46.578125 40.875 45.539062 40.054688 44.035156 39.824219 C 44.035156 38.90625 44.070312 38.113281 44.109375 37.269531 C 44.390625 37.230469 44.535156 37.207031 44.828125 37.207031 C 46.589844 37.207031 47.8125 38.257812 47.8125 40.070312 C 47.8125 41.132812 47.46875 42.035156 46.746094 42.539062 Z M 45.292969 36.707031 C 44.425781 36.707031 43.523438 36.707031 42.640625 36.71875 C 42.753906 36.851562 42.824219 37.144531 42.835938 37.34375 C 42.898438 38.148438 42.9375 38.929688 42.9375 39.75 C 42.105469 39.75 41.226562 39.75 40.394531 39.761719 C 40.503906 39.898438 40.566406 40.191406 40.589844 40.386719 C 40.664062 41.253906 40.6875 42.074219 40.6875 42.941406 C 40.6875 44.054688 40.664062 45.179688 40.613281 46.292969 C 40.601562 46.460938 40.761719 46.585938 40.945312 46.585938 L 42.925781 46.585938 C 45.0625 46.585938 46.652344 45.4375 46.761719 43.285156 C 48.117188 42.820312 49.007812 41.707031 49.007812 40.007812 C 49.007812 37.636719 47.492188 36.707031 45.292969 36.707031 Z M 40.582031 33.703125 C 39.484375 33.703125 38.933594 32.773438 38.933594 31.773438 C 38.933594 30.757812 39.484375 29.828125 40.582031 29.828125 C 41.695312 29.828125 42.246094 30.734375 42.246094 31.773438 C 42.242188 32.898438 41.839844 33.703125 40.582031 33.703125 Z M 40.582031 29.339844 C 39.019531 29.339844 37.957031 30.171875 37.957031 31.773438 C 37.957031 33.277344 39.128906 34.191406 40.582031 34.191406 C 42.050781 34.191406 43.222656 33.289062 43.222656 31.773438 C 43.222656 30.257812 42.046875 29.339844 40.582031 29.339844 Z M 11.644531 36.632812 C 10.8125 36.203125 9.738281 35.960938 8.761719 35.960938 C 5.484375 35.960938 3.3125 38.601562 3.3125 41.828125 C 3.3125 44.957031 5.695312 46.988281 8.738281 46.988281 C 9.75 46.988281 11.105469 46.695312 11.925781 46.070312 L 11.804688 45.03125 C 11.253906 45.605469 10.152344 46.070312 9.359375 46.070312 C 6.660156 46.070312 4.863281 43.835938 4.863281 41.230469 C 4.863281 39.003906 6.132812 36.804688 8.578125 36.804688 C 9.398438 36.804688 10.226562 37.0625 10.839844 37.597656 C 11.132812 37.855469 11.511719 38.367188 11.546875 38.746094 C 11.777344 38.394531 12.171875 37.769531 12.171875 37.34375 C 12.171875 37.011719 11.902344 36.765625 11.644531 36.632812 Z M 19.773438 41.351562 C 19.285156 41.597656 18.636719 41.597656 17.925781 41.597656 C 17.742188 41.597656 17.71875 41.488281 17.707031 41.265625 C 17.707031 41.082031 17.707031 40.828125 17.707031 40.65625 L 17.707031 39.554688 C 18.367188 39.554688 19.0625 39.578125 19.503906 39.726562 L 19.527344 39.347656 C 19.539062 39.089844 19.394531 38.992188 19.039062 38.992188 C 18.648438 38.992188 18.195312 39.054688 17.695312 39.054688 C 17.695312 38.761719 17.707031 38.382812 17.707031 38.085938 C 17.707031 37.84375 17.71875 37.476562 17.730469 37.230469 C 19.160156 37.230469 19.515625 37.355469 19.722656 37.441406 C 19.722656 37.328125 19.722656 37.171875 19.722656 37.171875 C 19.722656 36.925781 19.539062 36.695312 19.257812 36.695312 C 19.257812 36.695312 19.003906 36.695312 16.570312 36.695312 C 16.691406 36.828125 16.707031 37.316406 16.707031 37.488281 C 16.730469 38.210938 16.71875 39.238281 16.71875 40.117188 C 16.71875 40.632812 16.707031 41.15625 16.679688 41.695312 C 16.667969 41.964844 16.730469 42.121094 17.011719 42.121094 C 17.769531 42.121094 19.332031 42.121094 19.332031 42.121094 C 19.578125 42.121094 19.773438 42 19.773438 41.742188 C 19.773438 41.742188 19.773438 41.632812 19.773438 41.351562 Z M 16.074219 31.523438 C 16.074219 30.582031 16.121094 30.359375 16.121094 29.773438 C 16.121094 29.503906 16.023438 29.371094 15.730469 29.371094 L 15.167969 29.371094 C 15.21875 29.835938 15.242188 30.335938 15.242188 31.570312 C 15.242188 32.746094 15.195312 33.003906 15.195312 33.722656 C 15.195312 33.96875 15.316406 34.113281 15.558594 34.113281 L 16.144531 34.113281 C 16.097656 33.578125 16.074219 32.78125 16.074219 31.523438 Z M 21.046875 29.394531 L 18.355469 29.394531 C 18.371094 29.652344 18.394531 29.882812 18.417969 30.140625 C 18.429688 30.589844 18.441406 31.546875 18.441406 31.890625 C 18.441406 32.707031 18.40625 33.148438 18.40625 33.78125 C 18.40625 34.027344 18.542969 34.125 18.773438 34.125 L 19.359375 34.125 C 19.324219 33.574219 19.285156 33.039062 19.285156 32.488281 L 19.285156 31.863281 C 19.714844 31.863281 20.789062 31.875 21.167969 31.988281 C 21.167969 31.765625 21.230469 31.351562 20.898438 31.351562 C 20.542969 31.351562 19.933594 31.425781 19.285156 31.425781 L 19.285156 30.433594 C 19.285156 30.25 19.296875 30.066406 19.308594 29.882812 C 19.8125 29.882812 20.851562 29.871094 21.328125 30.054688 C 21.328125 29.808594 21.398438 29.394531 21.046875 29.394531 Z M 26.472656 29.363281 L 25.835938 29.375 C 25.835938 29.546875 25.582031 30.011719 25.3125 30.464844 C 25.042969 30.894531 24.773438 31.320312 24.652344 31.492188 C 24.273438 30.878906 23.90625 30.257812 23.539062 29.644531 C 23.417969 29.4375 23.246094 29.375 23.015625 29.375 L 22.242188 29.375 C 22.90625 30.28125 23.515625 31.210938 24.101562 32.164062 L 24.101562 32.703125 C 24.113281 33.140625 24.066406 33.617188 24.066406 33.875 C 24.066406 34.070312 24.234375 34.121094 24.382812 34.121094 L 25.03125 34.121094 C 24.957031 33.449219 24.957031 32.75 24.957031 32.066406 C 25.300781 31.480469 25.679688 30.917969 26.082031 30.367188 C 26.238281 30.125 26.421875 29.890625 26.582031 29.660156 C 26.605469 29.609375 26.644531 29.558594 26.644531 29.5 C 26.644531 29.402344 26.558594 29.363281 26.472656 29.363281 Z M 28.390625 30.472656 C 28.390625 30.042969 28.769531 29.800781 29.175781 29.800781 C 29.613281 29.800781 29.96875 30.042969 30.199219 30.386719 C 30.285156 30.238281 30.457031 30.007812 30.457031 29.800781 C 30.457031 29.394531 29.539062 29.296875 29.234375 29.296875 C 28.417969 29.296875 27.609375 29.75 27.609375 30.644531 C 27.609375 32.234375 29.832031 31.792969 29.832031 32.832031 C 29.832031 33.332031 29.480469 33.640625 28.980469 33.640625 C 28.464844 33.640625 27.890625 33.355469 27.621094 32.941406 C 27.585938 33.125 27.5 33.320312 27.5 33.515625 C 27.5 33.710938 27.574219 33.859375 27.757812 33.945312 C 28.050781 34.105469 28.429688 34.175781 28.757812 34.175781 C 29.699219 34.175781 30.605469 33.640625 30.605469 32.613281 C 30.605469 31.121094 28.390625 31.574219 28.390625 30.472656 Z M 40.851562 37.582031 L 40.070312 37.582031 C 40.082031 37.679688 40.058594 37.875 40.007812 37.972656 C 39.847656 38.300781 39.652344 38.644531 39.472656 38.976562 C 39.265625 39.355469 38.882812 39.976562 38.6875 40.28125 C 38.210938 39.511719 37.808594 38.71875 37.382812 37.921875 C 37.285156 37.738281 37.113281 37.59375 36.769531 37.59375 L 35.816406 37.59375 C 36.636719 38.765625 37.273438 39.832031 37.957031 40.992188 C 37.957031 41.664062 37.96875 42.535156 37.90625 43.242188 C 37.894531 43.449219 38.027344 43.574219 38.296875 43.574219 L 39.164062 43.574219 C 39.082031 42.714844 39.082031 41.75 39.082031 40.933594 C 39.640625 39.917969 40.289062 38.976562 40.988281 37.949219 C 41.035156 37.875 41.058594 37.800781 41.046875 37.738281 C 41.046875 37.65625 40.988281 37.582031 40.851562 37.582031 Z M 36.207031 31.773438 L 35.683594 31.785156 C 35.742188 31.96875 35.742188 32.480469 35.742188 32.8125 C 35.742188 33.042969 35.730469 33.277344 35.730469 33.507812 C 35.449219 33.628906 35.023438 33.667969 34.71875 33.667969 C 33.582031 33.667969 32.910156 32.859375 32.910156 31.773438 C 32.910156 30.683594 33.53125 29.828125 34.679688 29.828125 C 35.304688 29.828125 35.953125 30.207031 36.257812 30.488281 L 36.402344 30.074219 C 36.464844 29.851562 36.378906 29.71875 36.246094 29.65625 C 35.757812 29.449219 35.367188 29.339844 34.679688 29.339844 C 33.09375 29.339844 31.933594 30.085938 31.933594 31.773438 C 31.933594 33.386719 33.117188 34.191406 34.644531 34.191406 C 35.21875 34.191406 36.027344 34.035156 36.597656 33.863281 C 36.597656 33.628906 36.597656 33.433594 36.597656 33.238281 C 36.597656 32.859375 36.597656 32.519531 36.613281 32.125 C 36.625 31.945312 36.476562 31.757812 36.207031 31.773438 Z M 47.496094 33.410156 C 47.214844 33.582031 46.125 33.59375 45.46875 33.59375 C 45.457031 32.800781 45.457031 31.929688 45.457031 31.113281 C 45.457031 30.671875 45.480469 30.199219 45.492188 29.734375 C 45.503906 29.503906 45.429688 29.382812 45.015625 29.382812 L 44.527344 29.382812 C 44.5625 29.980469 44.585938 30.5625 44.585938 31.125 L 44.585938 32.40625 C 44.585938 32.859375 44.574219 33.3125 44.550781 33.777344 C 44.539062 33.960938 44.574219 34.132812 44.992188 34.132812 C 47.019531 34.132812 47.179688 34.132812 47.179688 34.132812 C 47.347656 34.132812 47.496094 33.921875 47.496094 33.789062 C 47.496094 33.789062 47.496094 33.667969 47.496094 33.410156 Z M 47.496094 33.410156 "/>
<path style=" stroke:none;fill-rule:nonzero;fill:rgb(83.921569%,22.745098%,29.019608%);fill-opacity:1;" d="M 0 0 L 52.027344 0 L 52.027344 24.453125 L 0 24.453125 Z M 0 0 "/>
<path style=" stroke:none;fill-rule:nonzero;fill:rgb(100%,100%,100%);fill-opacity:1;" d="M 20.472656 8.425781 C 20.179688 8.425781 19.910156 8.441406 19.617188 8.441406 C 19.617188 8.0625 19.617188 7.535156 19.617188 6.960938 C 19.617188 6.078125 19.628906 5.078125 19.691406 4.222656 C 19.949219 4.195312 20.242188 4.171875 20.523438 4.171875 C 21.769531 4.171875 22.769531 4.832031 22.769531 6.175781 C 22.769531 7.535156 21.78125 8.425781 20.472656 8.425781 M 22 8.769531 C 23.269531 8.367188 24.1875 7.363281 24.1875 5.980469 C 24.1875 4.222656 22.613281 3.574219 21.085938 3.574219 C 20.09375 3.574219 19.09375 3.597656 18.089844 3.609375 C 18.210938 3.816406 18.261719 4.320312 18.261719 4.574219 C 18.261719 5.785156 18.285156 6.886719 18.285156 7.730469 C 18.285156 10.066406 18.175781 11.410156 18.175781 11.851562 C 18.175781 12.035156 18.25 12.058594 18.40625 12.058594 C 18.933594 12.058594 19.433594 12.046875 19.949219 12.046875 C 19.875 11.972656 19.824219 11.800781 19.789062 11.582031 C 19.679688 10.800781 19.628906 9.882812 19.628906 9.027344 C 19.960938 9.027344 20.335938 9.015625 20.667969 9 C 21.097656 9.683594 21.632812 10.480469 22.242188 11.289062 C 23.164062 12.496094 24.414062 13.890625 25.871094 13.890625 C 26.25 13.890625 26.578125 13.855469 26.957031 13.820312 C 25.25 13.21875 23.027344 10.308594 22 8.769531 Z M 12.757812 8.582031 L 13.832031 6.113281 L 14.808594 8.582031 Z M 17.058594 10.660156 L 14.515625 4.84375 C 14.417969 4.621094 14.355469 4.476562 14.101562 4.476562 L 13.941406 4.488281 L 11.007812 10.710938 C 10.949219 10.84375 10.9375 10.90625 10.9375 11.015625 C 10.9375 11.125 11.070312 11.152344 11.179688 11.152344 L 11.828125 11.152344 C 11.816406 11.113281 11.816406 11.054688 11.816406 11.003906 C 11.816406 10.894531 11.839844 10.773438 11.890625 10.636719 L 12.511719 9.121094 L 15.015625 9.121094 L 15.714844 10.832031 C 15.800781 11.039062 15.898438 11.136719 16.140625 11.136719 L 17.386719 11.136719 C 17.265625 11.054688 17.117188 10.796875 17.058594 10.660156 Z M 29.644531 18.460938 L 29.375 18.460938 L 29.375 17.984375 C 29.375 17.628906 29.386719 16.773438 29.410156 16.421875 C 29.546875 16.421875 29.679688 16.40625 29.8125 16.40625 C 30.4375 16.40625 31.023438 16.761719 31.023438 17.433594 C 31.023438 18.242188 30.316406 18.460938 29.644531 18.460938 Z M 30.683594 18.707031 C 31.316406 18.523438 31.867188 18.082031 31.867188 17.324219 C 31.867188 16.308594 30.988281 16.015625 30.132812 16.015625 C 29.753906 16.015625 29.375 16.003906 28.984375 16.003906 C 28.800781 16.003906 28.617188 16.003906 28.421875 16.015625 C 28.496094 16.101562 28.519531 16.222656 28.53125 16.335938 C 28.566406 16.859375 28.554688 17.65625 28.554688 18.316406 C 28.554688 18.792969 28.542969 19.269531 28.53125 19.734375 C 28.519531 19.953125 28.507812 20.1875 28.507812 20.40625 C 28.507812 20.636719 28.640625 20.710938 28.847656 20.710938 C 29.054688 20.710938 29.265625 20.699219 29.472656 20.699219 C 29.398438 20.308594 29.386719 19.441406 29.386719 18.855469 C 29.507812 18.855469 29.886719 18.855469 29.886719 18.855469 C 30.253906 19.441406 30.609375 19.988281 31.035156 20.5625 C 31.390625 21.054688 31.792969 21.25 32.402344 21.25 C 32.476562 21.25 32.589844 21.25 32.660156 21.25 C 32.355469 21.054688 31.339844 19.695312 30.683594 18.707031 Z M 28.800781 11.335938 L 27.761719 11.335938 C 27.503906 11.335938 27.382812 11.25 27.347656 10.992188 C 27.296875 10.746094 27.296875 10.40625 27.285156 10.148438 C 27.261719 9.597656 27.25 8.777344 27.25 8.09375 C 27.25 6.835938 27.296875 5.574219 27.347656 4.316406 C 27.652344 4.269531 27.957031 4.253906 28.261719 4.253906 C 30.4375 4.253906 31.929688 5.492188 31.929688 7.777344 C 31.929688 9.78125 30.960938 11.335938 28.800781 11.335938 Z M 28.777344 3.621094 C 27.675781 3.621094 26.492188 3.632812 25.5625 3.632812 C 25.734375 3.898438 25.808594 4.390625 25.855469 5.378906 C 25.902344 6.101562 25.917969 6.835938 25.917969 7.566406 C 25.917969 8.460938 25.902344 9.339844 25.878906 10.234375 C 25.867188 10.722656 25.832031 11.210938 25.832031 11.699219 C 25.832031 11.921875 26.027344 12.054688 26.234375 12.054688 L 28.664062 12.054688 C 31.390625 12.054688 33.417969 10.550781 33.417969 7.703125 C 33.417969 4.78125 31.488281 3.621094 28.777344 3.621094 Z M 9.199219 15.992188 L 8.761719 15.992188 C 8.832031 16.492188 8.847656 16.8125 8.847656 17.3125 C 8.847656 17.59375 8.832031 18.105469 8.832031 18.511719 C 8.832031 19.476562 8.539062 20.234375 7.417969 20.234375 C 6.121094 20.234375 5.988281 19.453125 5.988281 18.351562 C 5.988281 17.644531 6.0625 16.8125 6.0625 16.210938 C 6.0625 16.054688 5.964844 15.992188 5.804688 15.992188 L 5.117188 15.992188 C 5.15625 16.519531 5.167969 16.859375 5.167969 17.679688 C 5.167969 18.023438 5.144531 18.488281 5.144531 18.839844 C 5.144531 20.246094 5.9375 20.808594 7.28125 20.808594 C 8.566406 20.808594 9.371094 20.125 9.421875 18.816406 C 9.457031 17.570312 9.53125 16.664062 9.53125 16.25 C 9.53125 16.042969 9.382812 15.992188 9.199219 15.992188 Z M 15.050781 16.015625 L 14.5625 16.015625 C 14.597656 16.8125 14.609375 17.605469 14.609375 18.402344 L 14.609375 19.21875 C 13.460938 18.15625 12.398438 17.066406 11.273438 15.96875 L 10.945312 15.96875 C 10.957031 16.1875 10.957031 16.421875 10.957031 16.652344 C 10.957031 17.570312 10.96875 18.816406 10.921875 19.402344 C 10.882812 20.027344 10.835938 20.1875 10.835938 20.527344 C 10.835938 20.6875 10.921875 20.734375 11.078125 20.734375 C 11.25 20.734375 11.421875 20.722656 11.605469 20.722656 C 11.53125 20.222656 11.519531 19.722656 11.519531 19.207031 C 11.519531 18.621094 11.542969 18.070312 11.542969 17.484375 C 12.679688 18.597656 13.804688 19.636719 14.878906 20.808594 L 15.210938 20.808594 C 15.183594 20.015625 15.171875 19.21875 15.171875 18.4375 C 15.171875 17.996094 15.210938 17.59375 15.222656 17.191406 C 15.234375 16.847656 15.28125 16.46875 15.28125 16.261719 C 15.28125 16.101562 15.195312 16.015625 15.050781 16.015625 Z M 17.621094 18.144531 C 17.621094 17.203125 17.667969 16.984375 17.667969 16.394531 C 17.667969 16.128906 17.582031 15.992188 17.289062 15.992188 L 16.714844 15.992188 C 16.765625 16.457031 16.789062 16.957031 16.789062 18.191406 C 16.789062 19.367188 16.742188 19.636719 16.742188 20.34375 C 16.742188 20.589844 16.863281 20.734375 17.117188 20.734375 L 17.691406 20.734375 C 17.644531 20.199219 17.621094 19.402344 17.621094 18.144531 Z M 11.667969 3.507812 C 10.851562 3.082031 9.777344 2.835938 8.796875 2.835938 C 5.523438 2.835938 3.347656 5.476562 3.347656 8.707031 C 3.347656 11.847656 5.730469 13.863281 8.773438 13.863281 C 9.785156 13.863281 11.144531 13.570312 11.960938 12.949219 L 11.839844 11.910156 C 11.289062 12.496094 10.191406 12.949219 9.382812 12.949219 C 6.695312 12.949219 4.898438 10.710938 4.898438 8.105469 C 4.898438 5.882812 6.171875 3.691406 8.613281 3.691406 C 9.433594 3.691406 10.265625 3.949219 10.875 4.488281 C 11.15625 4.730469 11.546875 5.246094 11.582031 5.636719 C 11.816406 5.269531 12.207031 4.648438 12.207031 4.21875 C 12.207031 3.886719 11.9375 3.644531 11.667969 3.507812 Z M 23.25 15.992188 L 22.589844 15.992188 C 22.648438 16.175781 22.5 16.589844 22.429688 16.75 C 22.0625 17.65625 21.570312 18.789062 21.191406 19.554688 C 20.945312 19.042969 20.570312 18.125 20.265625 17.390625 C 20.105469 17.023438 19.984375 16.703125 19.828125 16.335938 C 19.703125 16.054688 19.519531 16.003906 19.226562 15.992188 C 19.042969 15.992188 18.8125 15.980469 18.617188 15.980469 C 19.351562 17.546875 20.085938 19.121094 20.730469 20.734375 L 21.355469 20.734375 C 21.980469 19.21875 22.6875 17.753906 23.382812 16.261719 C 23.394531 16.238281 23.40625 16.210938 23.40625 16.175781 C 23.40625 16.078125 23.347656 15.992188 23.25 15.992188 Z M 27.152344 20.027344 C 26.773438 20.210938 26.140625 20.222656 25.722656 20.222656 L 25.394531 20.222656 C 25.210938 20.222656 25.210938 20.125 25.210938 19.964844 C 25.195312 19.84375 25.195312 18.976562 25.195312 18.855469 L 25.195312 18.484375 C 25.675781 18.484375 26.480469 18.5 26.921875 18.632812 C 26.933594 18.511719 26.945312 18.375 26.945312 18.253906 C 26.945312 18.035156 26.785156 17.972656 26.589844 17.972656 C 26.136719 17.972656 25.648438 18.023438 25.195312 18.023438 C 25.195312 17.714844 25.195312 17.496094 25.195312 17.214844 C 25.195312 16.984375 25.222656 16.738281 25.234375 16.492188 C 25.6875 16.492188 26.699219 16.492188 27.117188 16.664062 C 27.117188 16.382812 27.117188 16.015625 26.710938 16.015625 L 24.21875 16.015625 C 24.269531 16.078125 24.304688 16.210938 24.316406 16.285156 C 24.355469 16.859375 24.355469 17.433594 24.355469 18.007812 C 24.355469 18.804688 24.316406 19.597656 24.316406 20.394531 C 24.316406 20.589844 24.378906 20.710938 24.597656 20.710938 L 26.785156 20.710938 C 26.992188 20.710938 27.152344 20.601562 27.152344 20.382812 Z M 33.964844 17.09375 C 33.964844 16.664062 34.34375 16.433594 34.746094 16.433594 C 35.183594 16.433594 35.539062 16.664062 35.773438 17.007812 C 35.859375 16.859375 36.027344 16.628906 36.027344 16.421875 C 36.027344 16.015625 35.113281 15.929688 34.820312 15.929688 C 33.988281 15.929688 33.183594 16.371094 33.183594 17.261719 C 33.183594 18.855469 35.40625 18.414062 35.40625 19.453125 C 35.40625 19.953125 35.050781 20.269531 34.550781 20.269531 C 34.035156 20.269531 33.464844 19.976562 33.195312 19.5625 C 33.15625 19.746094 33.070312 19.941406 33.070312 20.136719 C 33.070312 20.332031 33.144531 20.480469 33.328125 20.5625 C 33.621094 20.722656 34 20.808594 34.332031 20.808594 C 35.269531 20.808594 36.175781 20.269531 36.175781 19.230469 C 36.175781 17.742188 33.964844 18.191406 33.964844 17.09375 Z M 38.257812 18.144531 C 38.257812 17.203125 38.308594 16.984375 38.308594 16.394531 C 38.308594 16.128906 38.207031 15.992188 37.914062 15.992188 L 37.351562 15.992188 C 37.402344 16.457031 37.425781 16.957031 37.425781 18.191406 C 37.425781 19.367188 37.378906 19.636719 37.378906 20.34375 C 37.378906 20.589844 37.5 20.734375 37.746094 20.734375 L 38.332031 20.734375 C 38.28125 20.199219 38.257812 19.402344 38.257812 18.144531 Z M 43.015625 16.015625 L 39.558594 16.015625 C 39.300781 16.015625 39.042969 16.164062 39.042969 16.445312 L 39.042969 16.703125 C 39.398438 16.628906 40.167969 16.617188 40.59375 16.617188 C 40.621094 17.179688 40.621094 17.726562 40.621094 18.289062 C 40.621094 19.257812 40.570312 19.710938 40.570312 20.417969 C 40.570312 20.664062 40.71875 20.734375 40.949219 20.734375 L 41.535156 20.734375 C 41.464844 20.0625 41.464844 19.390625 41.464844 18.328125 C 41.464844 17.765625 41.449219 17.03125 41.472656 16.617188 C 41.9375 16.617188 42.390625 16.675781 42.722656 16.675781 C 42.953125 16.675781 43.015625 16.445312 43.015625 16.25 Z M 47.628906 16.003906 L 47.007812 16.015625 C 46.992188 16.175781 46.75 16.652344 46.46875 17.105469 C 46.210938 17.53125 45.933594 17.960938 45.820312 18.121094 C 45.429688 17.519531 45.078125 16.898438 44.699219 16.285156 C 44.574219 16.078125 44.417969 16.015625 44.183594 16.015625 L 43.402344 16.015625 C 44.074219 16.921875 44.683594 17.851562 45.273438 18.804688 L 45.273438 19.332031 C 45.273438 19.78125 45.222656 20.234375 45.222656 20.492188 C 45.222656 20.675781 45.394531 20.734375 45.554688 20.734375 L 46.1875 20.734375 C 46.125 20.0625 46.117188 19.390625 46.117188 18.707031 C 46.457031 18.121094 46.847656 17.558594 47.238281 17.007812 C 47.410156 16.761719 47.582031 16.53125 47.742188 16.296875 C 47.777344 16.25 47.800781 16.199219 47.800781 16.140625 C 47.800781 16.042969 47.714844 16.003906 47.628906 16.003906 Z M 36.035156 7.960938 C 36.035156 7.261719 36.058594 6.566406 36.070312 5.882812 C 36.085938 5.515625 36.121094 5.136719 36.121094 4.769531 C 36.121094 4.585938 35.9375 4.488281 35.777344 4.488281 L 34.605469 4.488281 C 34.777344 5.355469 34.765625 6.808594 34.765625 7.726562 C 34.765625 8.398438 34.753906 9.085938 34.726562 9.769531 C 34.726562 10.074219 34.703125 10.40625 34.703125 10.710938 C 34.703125 10.941406 34.851562 11.113281 35.082031 11.113281 C 35.460938 11.113281 35.828125 11.101562 36.207031 11.089844 C 36.046875 10.527344 36.035156 8.609375 36.035156 7.960938 Z M 42.167969 3.582031 L 37.816406 3.582031 C 38.0625 4.011719 38.050781 7.042969 38.050781 7.667969 C 38.050781 8.972656 37.925781 10.84375 37.925781 11.589844 C 37.925781 11.835938 38.039062 12.066406 38.320312 12.066406 L 39.613281 12.066406 C 39.492188 11.738281 39.429688 11.152344 39.40625 10.378906 C 39.382812 9.695312 39.382812 8.851562 39.382812 7.898438 C 39.566406 7.898438 39.90625 7.863281 40.140625 7.863281 C 40.824219 7.863281 41.496094 7.875 42.132812 8.144531 C 42.132812 7.960938 42.179688 7.777344 42.179688 7.59375 C 42.179688 7.3125 41.933594 7.1875 41.679688 7.1875 L 39.394531 7.1875 C 39.394531 6.222656 39.441406 5.269531 39.480469 4.304688 C 39.761719 4.304688 40.042969 4.292969 40.324219 4.292969 C 41.117188 4.292969 42.242188 4.316406 42.960938 4.648438 L 42.960938 4.609375 C 42.960938 4.058594 42.804688 3.582031 42.167969 3.582031 Z M 48.609375 3.042969 L 43.574219 3.042969 C 43.746094 4.035156 43.769531 5.832031 43.769531 7.910156 C 43.769531 9.585938 43.632812 12.421875 43.632812 12.921875 C 43.632812 13.242188 43.816406 13.414062 44.136719 13.414062 L 45.417969 13.414062 C 45.332031 13.21875 45.296875 12.921875 45.285156 12.703125 C 45.171875 11.199219 45.136719 9.671875 45.136719 8.167969 C 45.34375 8.15625 45.832031 8.117188 45.90625 8.117188 C 46.628906 8.117188 47.628906 8.117188 48.289062 8.398438 C 48.351562 8.242188 48.4375 8.070312 48.4375 7.898438 C 48.4375 7.519531 48.046875 7.433594 47.742188 7.433594 L 45.136719 7.433594 C 45.136719 6.210938 45.1875 4.988281 45.234375 3.765625 L 46.042969 3.765625 C 46.761719 3.765625 48.644531 3.765625 49.21875 4.121094 C 49.28125 3.949219 49.265625 3.742188 49.265625 3.558594 C 49.265625 3.214844 48.949219 3.042969 48.609375 3.042969 Z M 48.609375 3.042969 "/>
</g>
</svg>
