<?xml version="1.0" encoding="UTF-8"?>
<svg xmlns="http://www.w3.org/2000/svg" xmlns:xlink="http://www.w3.org/1999/xlink" width="43pt" height="50pt" viewBox="0 0 43 50" version="1.1">
<g id="surface1">
<path style=" stroke:none;fill-rule:nonzero;fill:rgb(83.529412%,9.803922%,5.098039%);fill-opacity:1;" d="M 1.292969 1.828125 C 1.464844 1.679688 2.296875 1.25 3.601562 1.511719 C 4.097656 1.609375 4.695312 1.871094 4.792969 1.929688 C 4.890625 1.988281 4.390625 1.488281 3.816406 1.328125 C 3.308594 1.191406 2.765625 1.082031 2.238281 1.183594 C 1.699219 1.285156 1.179688 1.613281 1.152344 1.71875 C 1.128906 1.824219 1.140625 1.90625 1.292969 1.828125 "/>
<path style=" stroke:none;fill-rule:nonzero;fill:rgb(83.529412%,9.803922%,5.098039%);fill-opacity:1;" d="M 3.726562 0.976562 C 3.972656 0.988281 4.777344 1 5.945312 1.996094 C 7.113281 2.996094 7.394531 3.394531 7.644531 3.757812 C 7.894531 4.121094 8.582031 5.667969 8.734375 5.933594 C 8.882812 6.199219 9.847656 7.902344 10.078125 8.136719 C 10.3125 8.367188 10.851562 9.089844 11.757812 9.027344 C 12.660156 8.964844 13.273438 8.339844 13.335938 8.300781 C 13.394531 8.261719 13.261719 8.78125 13.148438 9.050781 C 13.03125 9.320312 12.742188 9.714844 12.175781 9.988281 C 11.609375 10.265625 10.796875 10.289062 9.910156 9.804688 C 8.53125 9.050781 8.675781 8.769531 8.589844 8.6875 C 8.507812 8.609375 9.589844 9.382812 10.148438 9.355469 C 10.203125 9.355469 9.539062 8.785156 9.375 8.570312 C 9.214844 8.351562 8.207031 6.972656 7.890625 5.792969 C 7.578125 4.609375 7.175781 4.035156 6.988281 3.710938 C 6.800781 3.386719 6.304688 2.855469 5.882812 2.484375 C 5.457031 2.113281 4.808594 1.53125 4.375 1.332031 C 3.9375 1.136719 3.480469 0.96875 3.726562 0.976562 "/>
<path style=" stroke:none;fill-rule:nonzero;fill:rgb(83.529412%,9.803922%,5.098039%);fill-opacity:1;" d="M 13.441406 7.890625 C 13.441406 7.890625 13.023438 8.378906 12.121094 8.378906 C 11.21875 8.382812 10.734375 7.894531 10.59375 7.769531 C 10.460938 7.648438 11.292969 8.015625 11.5625 7.9375 C 11.832031 7.859375 10.632812 7.710938 9.945312 6.605469 C 9.253906 5.5 9.378906 5.253906 9.382812 5.164062 C 9.382812 5.070312 9.90625 5.917969 10.066406 5.78125 C 10.226562 5.640625 9.335938 4.691406 9.046875 4.167969 C 8.753906 3.644531 8.257812 2.789062 8.085938 2.628906 C 7.914062 2.464844 7.664062 2.144531 7.503906 2.027344 C 7.34375 1.90625 8.53125 2.683594 8.820312 3.042969 C 9.109375 3.402344 10.234375 4.933594 10.449219 5.3125 C 10.667969 5.691406 11.339844 6.875 11.832031 7.355469 C 12.277344 7.785156 13.441406 7.890625 13.441406 7.890625 "/>
<path style=" stroke:none;fill-rule:nonzero;fill:rgb(83.529412%,9.803922%,5.098039%);fill-opacity:1;" d="M 31.097656 19.703125 C 30.957031 19.804688 29.09375 21.027344 28.472656 21.464844 C 27.851562 21.902344 27.617188 22.246094 27.460938 22.433594 C 27.460938 22.433594 27.769531 22.257812 28.339844 22.070312 C 28.359375 22.066406 27.816406 23.246094 28.53125 24.902344 C 29.242188 26.558594 30.222656 28.582031 30.464844 29.804688 C 30.710938 31.023438 30.582031 32.007812 29.242188 32.25 C 28.015625 32.472656 27.832031 32.160156 26.535156 31.242188 C 26.375 31.128906 26.1875 31.183594 26.453125 31.445312 C 26.714844 31.707031 27.246094 32.789062 29.019531 33.109375 C 30.792969 33.425781 31.953125 32.457031 32.316406 31.9375 C 32.316406 31.9375 32.710938 30.875 32.570312 29.960938 C 32.382812 28.742188 32.339844 28.328125 31.476562 27.023438 C 31.152344 26.527344 30.496094 25.390625 30.316406 25.042969 C 30.085938 24.585938 29.226562 23.683594 29.867188 22.289062 C 29.882812 22.253906 30.4375 23.199219 30.433594 23.164062 C 30.371094 22.5625 30.425781 21.421875 30.5625 21.128906 C 30.699219 20.835938 30.886719 20.175781 31.160156 19.8125 C 31.25 19.6875 31.394531 19.492188 31.097656 19.703125 "/>
<path style=" stroke:none;fill-rule:nonzero;fill:rgb(83.529412%,9.803922%,5.098039%);fill-opacity:1;" d="M 27.996094 29.992188 C 28.15625 30.269531 23.242188 25.972656 22.574219 19.085938 C 22.457031 17.886719 22.894531 17.15625 24.117188 17.113281 C 25.339844 17.070312 28.175781 17.175781 31.578125 16.257812 C 34.984375 15.339844 36.367188 15.472656 40.644531 11.980469 C 40.699219 11.933594 39.445312 14.28125 36.914062 15.933594 C 33.238281 18.332031 32.070312 18.371094 29.214844 18.84375 C 27.351562 19.15625 25.664062 19.054688 25.320312 19.082031 C 24.980469 19.105469 24.640625 19.023438 24.707031 20.34375 C 24.769531 21.667969 25.527344 24.820312 26.234375 26.285156 C 26.941406 27.753906 27.824219 29.679688 27.996094 29.992188 "/>
<path style=" stroke:none;fill-rule:nonzero;fill:rgb(83.529412%,9.803922%,5.098039%);fill-opacity:1;" d="M 24.597656 16.765625 C 24.597656 16.765625 24.539062 15.105469 25.179688 13.726562 C 25.4375 13.167969 25.679688 13.109375 26.191406 13.074219 C 26.691406 13.035156 28.816406 13.011719 30.890625 12.234375 C 32.960938 11.457031 35.648438 10.757812 39.746094 6.335938 C 39.769531 6.304688 38.570312 9.109375 36.652344 10.632812 C 32.722656 13.746094 27.675781 14.410156 27.113281 14.410156 C 26.515625 14.40625 26.148438 14.855469 26.054688 15.070312 C 25.605469 16.113281 24.597656 16.765625 24.597656 16.765625 "/>
<path style=" stroke:none;fill-rule:nonzero;fill:rgb(83.529412%,9.803922%,5.098039%);fill-opacity:1;" d="M 26.089844 12.625 C 26.089844 12.625 26.234375 9.976562 26.324219 9.410156 C 26.355469 9.210938 26.816406 9.085938 27.148438 9.007812 C 27.382812 8.953125 30.925781 8.226562 32.964844 6.800781 C 34.984375 5.390625 36.765625 4.492188 39.429688 0.0195312 C 39.429688 0.0195312 38.902344 3.4375 36.570312 5.605469 C 33.113281 8.820312 32.273438 8.777344 28.082031 10.183594 C 27.652344 10.324219 27.792969 10.394531 27.488281 10.925781 C 27.1875 11.457031 26.871094 12.292969 26.089844 12.625 Z M 26.089844 12.625 "/>
<path style=" stroke:none;fill-rule:nonzero;fill:rgb(83.529412%,9.803922%,5.098039%);fill-opacity:1;" d="M 13.636719 8.003906 C 13.636719 8.015625 13.417969 7.804688 13.316406 7.511719 C 13.105469 6.894531 13.683594 6.335938 13.574219 6.078125 C 13.527344 5.964844 13.230469 5.488281 13.355469 5.085938 C 13.445312 4.796875 13.515625 4.769531 14.207031 4.707031 C 15.074219 4.636719 15.253906 4.953125 15.507812 5.042969 C 16.210938 5.292969 16.316406 5.449219 16.519531 5.46875 C 16.851562 5.503906 17.238281 5.628906 17.277344 5.601562 C 17.691406 5.277344 17.246094 4.371094 17.988281 4.367188 C 18.445312 4.367188 18.9375 4.734375 19.261719 4.75 C 19.792969 4.777344 20.265625 4.789062 20.585938 4.710938 C 20.902344 4.632812 21.285156 4.582031 21.4375 4.402344 C 21.570312 4.246094 21.703125 4.066406 21.949219 3.714844 C 21.949219 3.714844 23.375 2.878906 23.253906 3.066406 C 23.164062 3.199219 22.496094 3.765625 22.671875 4.242188 C 23.21875 5.089844 22.527344 5.46875 22.703125 5.5 C 22.710938 5.5 22.527344 5.378906 23.054688 6.011719 C 23.171875 6.152344 23.039062 6.324219 23.160156 6.492188 C 24.558594 7.027344 24.5 7.964844 24.574219 8.265625 C 24.585938 8.300781 24.660156 8.492188 24.347656 8.246094 C 24.035156 7.996094 23.671875 7.78125 23.550781 7.808594 C 23.511719 7.816406 23.652344 8.421875 23.9375 8.742188 C 23.984375 8.792969 24.082031 8.867188 24.28125 8.984375 C 24.550781 9.140625 24.808594 9.332031 24.871094 9.40625 C 24.933594 9.480469 25.359375 9.828125 25.507812 10.839844 C 25.535156 11.011719 25.144531 10.527344 25.09375 10.488281 C 24.707031 10.1875 24.4375 9.945312 24.386719 10.40625 C 24.371094 10.539062 24.296875 10.765625 24.292969 10.914062 C 24.285156 11.0625 23.882812 12.039062 23.777344 12.316406 C 23.597656 12.792969 23.410156 13.367188 23.089844 13.734375 C 22.773438 14.105469 22.011719 15.257812 21.832031 15.566406 C 21.648438 15.875 21.242188 16.691406 21.105469 17.875 C 20.972656 19.058594 21.074219 19.886719 21.113281 20.132812 C 21.15625 20.378906 21.730469 22.417969 22.195312 23.117188 C 22.660156 23.820312 23.550781 24.609375 23.136719 24.585938 C 22.761719 24.5625 21.8125 23.554688 21.550781 23.292969 C 21.285156 23.03125 20.863281 22.726562 20.257812 21.90625 C 19.648438 21.082031 19.074219 19.90625 18.984375 19.6875 C 18.894531 19.464844 18.230469 16.664062 17.78125 16.816406 C 17.324219 16.96875 18.363281 19.828125 18.570312 20.359375 C 18.601562 20.4375 19.5 22.144531 18.84375 22.390625 C 18.414062 22.550781 17.917969 22.003906 17.6875 21.804688 C 17.457031 21.609375 16.648438 20.757812 16.375 20.980469 C 15.992188 21.285156 16.785156 22.238281 16.527344 22.378906 C 16.269531 22.519531 15.410156 22.269531 14.234375 21.847656 C 13.960938 21.75 13.527344 21.890625 13.730469 22.117188 C 13.9375 22.347656 15.128906 22.832031 15.304688 22.863281 C 15.480469 22.894531 16.167969 23.074219 16.652344 23.109375 C 17.136719 23.144531 18.664062 23.953125 18.953125 24.121094 C 19.238281 24.285156 20.535156 25.328125 20.71875 25.542969 C 20.898438 25.757812 21.371094 26.328125 21.769531 27.355469 C 22.164062 28.386719 22.550781 29.289062 22.242188 30.234375 C 21.929688 31.1875 21.796875 31.894531 20.640625 32.265625 C 20.582031 32.285156 20.515625 32.261719 20.644531 32.140625 C 20.769531 32.015625 21.558594 31.394531 21.496094 30.28125 C 21.4375 29.164062 20.902344 28.441406 20.738281 28.207031 C 20.578125 27.976562 19.988281 27.210938 18.921875 26.523438 C 17.855469 25.835938 16.335938 25.207031 16.160156 25.113281 C 15.984375 25.015625 14.585938 24.050781 13.992188 23.417969 C 13.433594 22.820312 13.207031 22.71875 12.832031 21.789062 C 12.460938 20.867188 12.542969 20.332031 12.539062 19.976562 C 12.539062 19.621094 12.40625 18.820312 12.242188 18.4375 C 12.078125 18.050781 14.308594 17.132812 14.535156 16.765625 C 14.628906 16.609375 14.605469 15.066406 15.1875 14.515625 C 16.414062 13.359375 16.859375 12.867188 17.117188 12.753906 C 17.375 12.636719 18.050781 12.179688 18.390625 11.910156 C 18.730469 11.640625 20.40625 10.296875 19.898438 9.558594 C 19.460938 8.925781 17.859375 9.210938 17.382812 9.332031 C 17.066406 9.414062 16.882812 9.492188 16.507812 9.628906 C 16.394531 9.667969 15.785156 9.890625 15.636719 10.015625 C 15.519531 10.117188 14.855469 10.425781 14.492188 10.550781 C 14.289062 10.625 13.230469 9.734375 13.820312 8.363281 C 13.875 8.234375 14.367188 9.21875 14.753906 9.117188 C 14.910156 9.074219 14.96875 8.8125 15.121094 8.753906 C 15.230469 8.859375 15.183594 9.03125 15.636719 8.546875 C 16.105469 8.785156 16.207031 8.335938 16.339844 8.046875 C 16.339844 8.042969 17.074219 8.382812 17.210938 8.019531 C 17.378906 7.59375 17.199219 7.132812 16.941406 7.089844 C 16.101562 6.960938 15.875 7.851562 15.867188 8.171875 C 15.863281 8.335938 15.589844 7.242188 15.105469 8.207031 C 15.089844 8.242188 14.640625 7.136719 14.523438 8.4375 C 14.523438 8.445312 14.421875 8.382812 14.226562 8.101562 C 14.152344 7.988281 13.992188 7.421875 13.910156 7.554688 C 13.769531 7.78125 13.609375 7.832031 13.609375 7.949219 Z M 13.636719 8.003906 "/>
<path style=" stroke:none;fill-rule:nonzero;fill:rgb(83.529412%,9.803922%,5.098039%);fill-opacity:1;" d="M 18.859375 11.558594 C 18.859375 11.558594 17.734375 12.34375 17.328125 12.601562 C 16.917969 12.863281 15.988281 13.933594 15.699219 14.195312 C 15.414062 14.457031 15.027344 14.554688 14.621094 14.363281 C 14.21875 14.171875 13.285156 13.746094 12.828125 13.460938 C 12.375 13.175781 11.058594 11.628906 10.292969 11.34375 C 9.527344 11.058594 9.265625 11.484375 9.265625 11.558594 C 9.265625 11.628906 8.453125 11.058594 8.1875 11.082031 C 7.925781 11.105469 7.527344 11.222656 7.542969 11.722656 C 7.546875 11.816406 7.398438 11.84375 7.0625 11.816406 C 6.730469 11.792969 6.175781 12.726562 7.015625 13.433594 C 7.054688 13.464844 6.996094 12.769531 7.230469 12.769531 C 7.46875 12.769531 7.167969 13.132812 8.453125 13.339844 C 8.527344 13.351562 8.859375 13.4375 8.402344 13.101562 C 7.949219 12.769531 7.953125 12.386719 8.402344 12.460938 C 8.855469 12.53125 9.132812 13.039062 10.03125 13.21875 C 10.152344 13.246094 10.339844 13.128906 10.007812 13.460938 C 9.671875 13.792969 9.96875 14.136719 10.339844 14.410156 C 10.699219 14.671875 11.003906 15.011719 11.105469 15.597656 C 11.15625 15.886719 11.203125 16.027344 11.058594 16.144531 C 10.914062 16.265625 10.480469 16.328125 10.769531 16.386719 C 11.125 16.457031 11.558594 16.339844 11.65625 15.957031 C 11.777344 15.464844 11.65625 14.980469 11.871094 14.816406 C 12.085938 14.648438 12.566406 14.71875 12.828125 15.171875 C 13.09375 15.625 13.617188 17.050781 13.640625 17.144531 C 13.667969 17.238281 11.777344 16.929688 10.796875 16.644531 C 9.816406 16.359375 7.972656 15.039062 7.398438 14.957031 C 7.0625 14.910156 6.339844 14.652344 6.109375 15.457031 C 6.082031 15.550781 5.417969 15.121094 4.910156 15.148438 C 4.503906 15.171875 4.179688 15.523438 4.359375 16.097656 C 4.382812 16.175781 3.039062 16.074219 3.355469 17.261719 C 3.546875 17.976562 4.132812 18.328125 4.453125 18.476562 C 4.550781 18.519531 4.789062 18.59375 4.382812 18.261719 C 3.976562 17.929688 4.003906 17.378906 4.148438 17.308594 C 4.289062 17.238281 4.503906 17.574219 4.839844 17.574219 C 5.175781 17.574219 5.628906 17.644531 5.769531 17.503906 C 5.914062 17.359375 5.84375 17.457031 5.460938 17.289062 C 5.078125 17.121094 5.007812 16.695312 5.414062 16.671875 C 5.820312 16.644531 6.355469 17.136719 7.636719 17.050781 C 7.679688 17.046875 7.066406 17.714844 7.589844 18.214844 C 8.117188 18.714844 8.828125 18.898438 9.335938 19.878906 C 9.433594 20.066406 9.722656 20.859375 8.257812 20.570312 C 8.132812 20.542969 8.117188 20.734375 8.332031 20.804688 C 8.546875 20.875 10.054688 21.160156 10.148438 20.378906 C 10.246094 19.59375 9.742188 19.097656 9.71875 18.832031 C 9.695312 18.570312 9.910156 18.140625 10.507812 18.308594 C 11.105469 18.476562 11.898438 19.429688 12.136719 19.878906 C 12.375 20.332031 12.507812 20.859375 12.734375 21.402344 C 12.765625 21.472656 16.105469 18.09375 15.746094 16.71875 C 15.386719 15.339844 18.644531 12.699219 18.761719 12.507812 C 18.878906 12.316406 18.859375 11.558594 18.859375 11.558594 "/>
<path style="fill-rule:nonzero;fill:rgb(2.745098%,42.745098%,50.196078%);fill-opacity:1;stroke-width:0.235;stroke-linecap:butt;stroke-linejoin:miter;stroke:rgb(2.745098%,42.745098%,50.196078%);stroke-opacity:1;stroke-miterlimit:3.864;" d="M -0.00105575 0.000977917 L 38.855156 0.00880965 " transform="matrix(1.0036,0,0,-0.997545,1.926841,41.329101)"/>
<path style="fill:none;stroke-width:0.235;stroke-linecap:butt;stroke-linejoin:miter;stroke:rgb(2.745098%,42.745098%,50.196078%);stroke-opacity:1;stroke-miterlimit:3.864;" d="M 0.0018229 -0.0014194 L 42.781411 -0.0014194 " transform="matrix(1.0036,0,0,-0.997545,0.021608,49.869678)"/>
<path style=" stroke:none;fill-rule:nonzero;fill:rgb(16.862745%,16.862745%,16.470588%);fill-opacity:1;" d="M 15.148438 30.835938 C 15.148438 30.835938 15.167969 30.644531 15.125 30.523438 C 15.082031 30.410156 15.066406 30.257812 14.875 30.28125 C 14.734375 30.296875 14.84375 30.625 14.84375 30.625 C 14.84375 30.625 14.929688 30.804688 15.09375 30.828125 C 15.109375 30.832031 15.148438 30.835938 15.148438 30.835938 "/>
<path style=" stroke:none;fill-rule:nonzero;fill:rgb(100%,100%,100%);fill-opacity:1;" d="M 15.148438 30.835938 C 15.148438 30.835938 15.167969 30.644531 15.125 30.523438 C 15.082031 30.410156 15.066406 30.257812 14.875 30.28125 C 14.734375 30.296875 14.84375 30.625 14.84375 30.625 C 14.84375 30.625 14.929688 30.804688 15.09375 30.828125 C 15.109375 30.832031 15.148438 30.835938 15.148438 30.835938 Z M 15.148438 30.835938 "/>
<path style=" stroke:none;fill-rule:nonzero;fill:rgb(2.745098%,42.745098%,50.196078%);fill-opacity:1;" d="M 0.0742188 45.777344 C 0.0742188 46.820312 0.578125 47.554688 1.226562 48 C 1.820312 48.394531 2.519531 48.539062 3.253906 48.539062 C 3.773438 48.539062 4.359375 48.417969 4.539062 48.355469 C 4.628906 48.324219 4.726562 48.289062 4.824219 48.273438 C 4.945312 48.121094 5.15625 47.585938 5.214844 47.167969 C 5.183594 47.109375 5.058594 47.09375 5.003906 47.132812 C 4.816406 47.613281 4.351562 48.289062 3.300781 48.289062 C 1.96875 48.289062 0.886719 47.351562 0.886719 45.65625 C 0.886719 43.980469 1.945312 43.195312 3.1875 43.195312 C 4.367188 43.195312 4.734375 43.828125 4.855469 44.378906 C 4.914062 44.425781 5.035156 44.417969 5.074219 44.359375 C 5.011719 43.867188 4.96875 43.355469 4.960938 43.171875 C 4.890625 43.179688 4.832031 43.164062 4.734375 43.140625 C 4.351562 43.035156 3.734375 42.945312 3.292969 42.945312 C 2.449219 42.945312 1.691406 43.171875 1.097656 43.632812 C 0.480469 44.109375 0.0742188 44.878906 0.0742188 45.777344 "/>
<path style=" stroke:none;fill-rule:evenodd;fill:rgb(2.745098%,42.745098%,50.196078%);fill-opacity:1;" d="M 7.527344 44.410156 C 7.617188 44.167969 7.699219 43.972656 7.722656 43.933594 L 7.738281 43.933594 C 7.789062 44.03125 7.859375 44.246094 7.925781 44.441406 L 8.367188 45.761719 C 8.4375 45.976562 8.421875 46.007812 8.1875 46.007812 L 7.1875 46.007812 C 6.960938 46.007812 6.949219 46.003906 7.015625 45.816406 Z M 8.984375 47.636719 C 9.050781 47.828125 9.089844 47.976562 9.089844 48.0625 C 9.089844 48.144531 8.976562 48.195312 8.804688 48.210938 L 8.570312 48.234375 C 8.511719 48.273438 8.519531 48.402344 8.585938 48.4375 C 8.820312 48.425781 9.128906 48.410156 9.519531 48.410156 C 9.886719 48.410156 10.171875 48.421875 10.503906 48.4375 C 10.546875 48.402344 10.5625 48.273438 10.503906 48.234375 L 10.285156 48.210938 C 9.9375 48.167969 9.832031 48.046875 9.59375 47.351562 L 8.480469 44.101562 C 8.359375 43.746094 8.226562 43.375 8.121094 43.019531 C 8.105469 42.960938 8.050781 42.945312 8 42.945312 C 7.910156 43.050781 7.769531 43.195312 7.578125 43.253906 C 7.601562 43.382812 7.550781 43.535156 7.4375 43.828125 L 6.609375 46.007812 C 6.265625 46.917969 6.039062 47.441406 5.890625 47.8125 C 5.78125 48.105469 5.597656 48.195312 5.40625 48.210938 L 5.136719 48.234375 C 5.085938 48.273438 5.101562 48.402344 5.152344 48.4375 C 5.375 48.425781 5.664062 48.410156 5.933594 48.410156 C 6.316406 48.421875 6.570312 48.421875 6.78125 48.4375 C 6.851562 48.402344 6.851562 48.273438 6.796875 48.234375 L 6.527344 48.210938 C 6.332031 48.195312 6.292969 48.144531 6.292969 48.046875 C 6.292969 47.957031 6.347656 47.742188 6.46875 47.378906 L 6.753906 46.527344 C 6.8125 46.359375 6.859375 46.335938 7.0625 46.335938 L 8.292969 46.335938 C 8.535156 46.335938 8.570312 46.359375 8.625 46.535156 Z M 8.984375 47.636719 "/>
<path style=" stroke:none;fill-rule:nonzero;fill:rgb(2.745098%,42.745098%,50.196078%);fill-opacity:1;" d="M 11.605469 47.199219 C 11.605469 48.046875 11.566406 48.167969 11.101562 48.210938 L 10.832031 48.234375 C 10.785156 48.28125 10.800781 48.410156 10.847656 48.4375 C 11.332031 48.421875 11.605469 48.410156 11.957031 48.410156 L 12.6875 48.410156 C 13.410156 48.410156 14.136719 48.421875 14.867188 48.4375 C 14.972656 48.21875 15.179688 47.59375 15.234375 47.3125 C 15.199219 47.238281 15.085938 47.214844 15.03125 47.257812 C 14.820312 47.675781 14.597656 47.957031 14.453125 48.039062 C 14.273438 48.128906 14.039062 48.160156 13.410156 48.160156 C 12.695312 48.160156 12.527344 48.074219 12.425781 47.976562 C 12.296875 47.835938 12.273438 47.5625 12.273438 47.132812 L 12.273438 45.996094 C 12.273438 45.785156 12.296875 45.777344 12.542969 45.777344 L 13.011719 45.777344 C 13.332031 45.777344 13.527344 45.785156 13.640625 45.816406 C 13.800781 45.855469 13.859375 45.976562 13.890625 46.125 L 13.964844 46.4375 C 14.007812 46.488281 14.144531 46.488281 14.175781 46.429688 C 14.175781 46.253906 14.144531 45.945312 14.144531 45.652344 C 14.144531 45.347656 14.175781 45.03125 14.175781 44.839844 C 14.144531 44.78125 14.007812 44.78125 13.964844 44.832031 L 13.902344 45.160156 C 13.859375 45.363281 13.800781 45.410156 13.703125 45.445312 C 13.605469 45.476562 13.355469 45.492188 13.011719 45.492188 L 12.542969 45.492188 C 12.296875 45.492188 12.273438 45.492188 12.273438 45.265625 L 12.273438 43.648438 C 12.273438 43.34375 12.273438 43.324219 12.515625 43.324219 L 13.101562 43.324219 C 13.460938 43.324219 13.722656 43.332031 13.890625 43.375 C 14.316406 43.480469 14.386719 43.761719 14.511719 44.144531 C 14.550781 44.191406 14.679688 44.175781 14.714844 44.128906 C 14.679688 43.769531 14.632812 43.1875 14.582031 43.050781 C 14.484375 43.074219 14.007812 43.074219 13.484375 43.074219 L 11.957031 43.074219 C 11.621094 43.074219 11.34375 43.066406 10.996094 43.050781 C 10.949219 43.074219 10.929688 43.222656 10.980469 43.253906 L 11.109375 43.269531 C 11.589844 43.324219 11.605469 43.445312 11.605469 44.289062 Z M 11.605469 47.199219 "/>
<path style=" stroke:none;fill-rule:evenodd;fill:rgb(2.745098%,42.745098%,50.196078%);fill-opacity:1;" d="M 16.71875 43.5625 C 16.71875 43.332031 16.742188 43.300781 17.25 43.300781 C 18.152344 43.300781 18.546875 43.910156 18.546875 44.546875 C 18.546875 45.097656 18.363281 45.378906 18.144531 45.550781 C 17.90625 45.726562 17.597656 45.757812 17.304688 45.757812 C 16.890625 45.757812 16.769531 45.742188 16.742188 45.71875 C 16.71875 45.6875 16.71875 45.597656 16.71875 45.453125 Z M 16.054688 47.199219 C 16.054688 48.046875 16.035156 48.152344 15.566406 48.210938 L 15.359375 48.234375 C 15.3125 48.289062 15.328125 48.410156 15.375 48.4375 C 15.757812 48.421875 16.054688 48.410156 16.394531 48.410156 C 16.71875 48.410156 16.996094 48.421875 17.363281 48.4375 C 17.410156 48.410156 17.425781 48.273438 17.378906 48.234375 L 17.207031 48.210938 C 16.734375 48.144531 16.71875 48.046875 16.71875 47.199219 L 16.71875 46.179688 C 16.71875 46.011719 16.734375 46 17.101562 46 C 17.425781 46 17.558594 46.082031 17.679688 46.261719 C 17.929688 46.625 18.265625 47.183594 18.476562 47.480469 C 19.054688 48.296875 19.46875 48.5 20.160156 48.5 C 20.316406 48.5 20.445312 48.484375 20.519531 48.460938 C 20.558594 48.429688 20.550781 48.363281 20.511719 48.347656 C 20.292969 48.332031 20.085938 48.242188 19.949219 48.121094 C 19.394531 47.660156 18.964844 47.011719 18.3125 45.96875 C 18.273438 45.90625 18.234375 45.824219 18.273438 45.777344 C 18.679688 45.613281 19.289062 45.195312 19.289062 44.425781 C 19.289062 43.859375 19.003906 43.496094 18.617188 43.292969 C 18.242188 43.089844 17.761719 43.050781 17.257812 43.050781 C 16.460938 43.050781 15.898438 43.074219 15.441406 43.117188 C 15.375 43.148438 15.375 43.277344 15.433594 43.316406 L 15.695312 43.351562 C 16.027344 43.390625 16.054688 43.527344 16.054688 44.296875 Z M 16.054688 47.199219 "/>
<path style=" stroke:none;fill-rule:evenodd;fill:rgb(2.745098%,42.745098%,50.196078%);fill-opacity:1;" d="M 22.066406 44.03125 C 22.066406 43.664062 22.082031 43.464844 22.148438 43.414062 C 22.210938 43.367188 22.472656 43.300781 22.953125 43.300781 C 25.085938 43.300781 25.515625 44.804688 25.515625 45.695312 C 25.515625 47.199219 24.808594 48.226562 23.230469 48.226562 C 22.714844 48.226562 22.40625 48.144531 22.226562 47.894531 C 22.089844 47.703125 22.066406 47.441406 22.066406 47.011719 Z M 21.398438 47.199219 C 21.398438 48.046875 21.382812 48.144531 20.910156 48.210938 L 20.722656 48.234375 C 20.675781 48.28125 20.691406 48.410156 20.738281 48.4375 C 21.125 48.417969 21.417969 48.410156 21.757812 48.410156 C 22.042969 48.410156 22.5625 48.476562 23.082031 48.476562 C 23.710938 48.476562 24.375 48.371094 24.90625 48.089844 C 25.832031 47.585938 26.328125 46.707031 26.328125 45.679688 C 26.328125 44.609375 25.773438 43.6875 24.679688 43.292969 C 24.148438 43.097656 23.570312 43.050781 22.886719 43.050781 C 22.195312 43.050781 21.539062 43.074219 20.84375 43.117188 C 20.765625 43.148438 20.773438 43.277344 20.835938 43.316406 L 21.015625 43.34375 C 21.359375 43.390625 21.398438 43.5625 21.398438 44.128906 Z M 21.398438 47.199219 "/>
<path style=" stroke:none;fill-rule:nonzero;fill:rgb(2.745098%,42.745098%,50.196078%);fill-opacity:1;" d="M 29.050781 46.761719 C 29.050781 46.140625 29.066406 46.058594 29.433594 45.453125 L 29.945312 44.570312 C 30.351562 43.875 30.59375 43.355469 31.019531 43.292969 L 31.246094 43.253906 C 31.300781 43.203125 31.292969 43.089844 31.230469 43.050781 C 30.953125 43.066406 30.726562 43.074219 30.472656 43.074219 C 30.222656 43.074219 29.984375 43.066406 29.691406 43.050781 C 29.625 43.082031 29.617188 43.195312 29.675781 43.253906 L 29.824219 43.269531 C 30.019531 43.292969 30.164062 43.351562 30.164062 43.398438 C 30.164062 43.496094 29.863281 44.042969 29.636719 44.464844 C 29.390625 44.933594 29.121094 45.40625 28.871094 45.832031 C 28.554688 45.273438 28.25 44.636719 27.953125 44.039062 C 27.910156 43.957031 27.699219 43.496094 27.699219 43.414062 C 27.699219 43.351562 27.757812 43.316406 28.039062 43.269531 L 28.148438 43.253906 C 28.195312 43.203125 28.195312 43.074219 28.121094 43.050781 C 27.917969 43.066406 27.625 43.074219 27.253906 43.074219 C 26.859375 43.074219 26.566406 43.066406 26.308594 43.050781 C 26.25 43.082031 26.242188 43.195312 26.292969 43.253906 L 26.519531 43.292969 C 26.761719 43.332031 26.886719 43.375 27.160156 43.910156 L 28.121094 45.769531 C 28.359375 46.21875 28.382812 46.324219 28.382812 46.769531 L 28.382812 47.183594 C 28.382812 48.046875 28.363281 48.160156 27.894531 48.210938 L 27.640625 48.234375 C 27.59375 48.28125 27.609375 48.410156 27.65625 48.4375 C 28.089844 48.421875 28.382812 48.410156 28.722656 48.410156 C 29.050781 48.410156 29.324219 48.421875 29.832031 48.4375 C 29.878906 48.410156 29.894531 48.28125 29.847656 48.234375 L 29.539062 48.210938 C 29.097656 48.175781 29.050781 48.046875 29.050781 47.183594 Z M 29.050781 46.761719 "/>
<path style=" stroke:none;fill-rule:evenodd;fill:rgb(2.745098%,42.745098%,50.196078%);fill-opacity:1;" d="M 32.875 44.03125 C 32.875 43.664062 32.894531 43.464844 32.957031 43.414062 C 33.023438 43.367188 33.28125 43.300781 33.761719 43.300781 C 35.894531 43.300781 36.328125 44.804688 36.328125 45.695312 C 36.328125 47.199219 35.617188 48.226562 34.039062 48.226562 C 33.527344 48.226562 33.21875 48.144531 33.039062 47.894531 C 32.902344 47.703125 32.875 47.441406 32.875 47.011719 Z M 32.210938 47.199219 C 32.210938 48.046875 32.191406 48.144531 31.722656 48.210938 L 31.535156 48.234375 C 31.484375 48.28125 31.5 48.410156 31.550781 48.4375 C 31.933594 48.417969 32.226562 48.410156 32.566406 48.410156 C 32.851562 48.410156 33.371094 48.476562 33.894531 48.476562 C 34.519531 48.476562 35.1875 48.371094 35.714844 48.089844 C 36.644531 47.585938 37.140625 46.707031 37.140625 45.679688 C 37.140625 44.609375 36.585938 43.6875 35.488281 43.292969 C 34.960938 43.097656 34.382812 43.050781 33.699219 43.050781 C 33.007812 43.050781 32.347656 43.074219 31.65625 43.117188 C 31.574219 43.148438 31.582031 43.277344 31.648438 43.316406 L 31.828125 43.34375 C 32.167969 43.390625 32.210938 43.5625 32.210938 44.128906 Z M 32.210938 47.199219 "/>
<path style=" stroke:none;fill-rule:evenodd;fill:rgb(2.745098%,42.745098%,50.196078%);fill-opacity:1;" d="M 38.671875 44.03125 C 38.671875 43.664062 38.6875 43.464844 38.753906 43.414062 C 38.820312 43.367188 39.078125 43.300781 39.558594 43.300781 C 41.691406 43.300781 42.121094 44.804688 42.121094 45.695312 C 42.121094 47.199219 41.414062 48.226562 39.835938 48.226562 C 39.324219 48.226562 39.011719 48.144531 38.835938 47.894531 C 38.695312 47.703125 38.671875 47.441406 38.671875 47.011719 Z M 38.003906 47.199219 C 38.003906 48.046875 37.988281 48.144531 37.519531 48.210938 L 37.328125 48.234375 C 37.28125 48.28125 37.296875 48.410156 37.347656 48.4375 C 37.730469 48.417969 38.023438 48.410156 38.363281 48.410156 C 38.648438 48.410156 39.167969 48.476562 39.6875 48.476562 C 40.316406 48.476562 40.984375 48.371094 41.511719 48.089844 C 42.4375 47.585938 42.933594 46.707031 42.933594 45.679688 C 42.933594 44.609375 42.382812 43.6875 41.285156 43.292969 C 40.753906 43.097656 40.175781 43.050781 39.492188 43.050781 C 38.800781 43.050781 38.144531 43.074219 37.453125 43.117188 C 37.371094 43.148438 37.378906 43.277344 37.445312 43.316406 L 37.621094 43.34375 C 37.964844 43.390625 38.003906 43.5625 38.003906 44.128906 Z M 38.003906 47.199219 "/>
<path style=" stroke:none;fill-rule:nonzero;fill:rgb(2.745098%,42.745098%,50.196078%);fill-opacity:1;" d="M 5.136719 37.300781 C 5.136719 38.34375 5.640625 39.078125 6.292969 39.523438 C 6.886719 39.921875 7.585938 40.066406 8.320312 40.066406 C 8.839844 40.066406 9.425781 39.945312 9.605469 39.878906 C 9.691406 39.847656 9.792969 39.816406 9.886719 39.800781 C 10.011719 39.644531 10.222656 39.113281 10.277344 38.691406 C 10.246094 38.632812 10.125 38.617188 10.066406 38.65625 C 9.878906 39.136719 9.417969 39.816406 8.367188 39.816406 C 7.035156 39.816406 5.953125 38.878906 5.953125 37.179688 C 5.953125 35.503906 7.007812 34.722656 8.253906 34.722656 C 9.433594 34.722656 9.800781 35.351562 9.921875 35.902344 C 9.976562 35.949219 10.101562 35.941406 10.140625 35.886719 C 10.078125 35.394531 10.035156 34.882812 10.027344 34.699219 C 9.953125 34.703125 9.898438 34.6875 9.800781 34.664062 C 9.417969 34.558594 8.796875 34.472656 8.359375 34.472656 C 7.511719 34.472656 6.757812 34.699219 6.164062 35.15625 C 5.542969 35.636719 5.136719 36.402344 5.136719 37.300781 "/>
<path style=" stroke:none;fill-rule:evenodd;fill:rgb(2.745098%,42.745098%,50.196078%);fill-opacity:1;" d="M 12.675781 35.933594 C 12.765625 35.691406 12.84375 35.5 12.867188 35.457031 L 12.886719 35.457031 C 12.933594 35.554688 13.007812 35.773438 13.070312 35.964844 L 13.511719 37.285156 C 13.585938 37.503906 13.570312 37.535156 13.332031 37.535156 L 12.332031 37.535156 C 12.105469 37.535156 12.097656 37.527344 12.160156 37.339844 Z M 14.128906 39.160156 C 14.195312 39.355469 14.234375 39.5 14.234375 39.589844 C 14.234375 39.667969 14.121094 39.71875 13.949219 39.734375 L 13.714844 39.757812 C 13.65625 39.800781 13.667969 39.929688 13.730469 39.960938 C 13.96875 39.953125 14.277344 39.9375 14.667969 39.9375 C 15.03125 39.9375 15.316406 39.945312 15.652344 39.960938 C 15.691406 39.929688 15.707031 39.800781 15.652344 39.757812 L 15.433594 39.734375 C 15.082031 39.695312 14.976562 39.574219 14.742188 38.875 L 13.625 35.625 C 13.503906 35.273438 13.371094 34.898438 13.269531 34.542969 C 13.25 34.484375 13.195312 34.472656 13.144531 34.472656 C 13.058594 34.574219 12.917969 34.722656 12.722656 34.777344 C 12.746094 34.90625 12.699219 35.058594 12.585938 35.351562 L 11.753906 37.535156 C 11.414062 38.441406 11.183594 38.964844 11.039062 39.339844 C 10.925781 39.628906 10.746094 39.71875 10.550781 39.734375 L 10.28125 39.757812 C 10.234375 39.800781 10.25 39.929688 10.300781 39.960938 C 10.519531 39.953125 10.8125 39.9375 11.078125 39.9375 C 11.460938 39.945312 11.714844 39.945312 11.925781 39.960938 C 12 39.929688 12 39.800781 11.941406 39.757812 L 11.671875 39.734375 C 11.480469 39.71875 11.4375 39.667969 11.4375 39.574219 C 11.4375 39.484375 11.496094 39.265625 11.617188 38.902344 L 11.902344 38.054688 C 11.957031 37.882812 12.007812 37.859375 12.210938 37.859375 L 13.4375 37.859375 C 13.683594 37.859375 13.714844 37.882812 13.773438 38.0625 Z M 14.128906 39.160156 "/>
<path style=" stroke:none;fill-rule:evenodd;fill:rgb(2.745098%,42.745098%,50.196078%);fill-opacity:1;" d="M 17.257812 35.085938 C 17.257812 34.859375 17.28125 34.824219 17.785156 34.824219 C 18.6875 34.824219 19.085938 35.433594 19.085938 36.070312 C 19.085938 36.621094 18.898438 36.902344 18.679688 37.074219 C 18.445312 37.25 18.136719 37.285156 17.84375 37.285156 C 17.425781 37.285156 17.304688 37.265625 17.28125 37.242188 C 17.257812 37.210938 17.257812 37.121094 17.257812 36.976562 Z M 16.589844 38.722656 C 16.589844 39.574219 16.574219 39.675781 16.101562 39.734375 L 15.898438 39.757812 C 15.847656 39.816406 15.863281 39.9375 15.914062 39.960938 C 16.296875 39.945312 16.589844 39.9375 16.933594 39.9375 C 17.257812 39.9375 17.535156 39.945312 17.898438 39.960938 C 17.949219 39.9375 17.964844 39.800781 17.914062 39.757812 L 17.742188 39.734375 C 17.273438 39.667969 17.257812 39.574219 17.257812 38.722656 L 17.257812 37.707031 C 17.257812 37.535156 17.273438 37.527344 17.636719 37.527344 C 17.964844 37.527344 18.09375 37.609375 18.214844 37.785156 C 18.46875 38.148438 18.804688 38.707031 19.011719 39.007812 C 19.589844 39.824219 20.007812 40.027344 20.699219 40.027344 C 20.851562 40.027344 20.984375 40.007812 21.054688 39.984375 C 21.09375 39.953125 21.085938 39.886719 21.046875 39.871094 C 20.828125 39.855469 20.625 39.765625 20.484375 39.644531 C 19.933594 39.183594 19.5 38.539062 18.851562 37.492188 C 18.808594 37.429688 18.769531 37.347656 18.808594 37.300781 C 19.21875 37.140625 19.828125 36.71875 19.828125 35.949219 C 19.828125 35.386719 19.542969 35.019531 19.152344 34.816406 C 18.777344 34.617188 18.296875 34.574219 17.792969 34.574219 C 16.996094 34.574219 16.433594 34.601562 15.980469 34.640625 C 15.914062 34.671875 15.914062 34.800781 15.972656 34.84375 L 16.230469 34.875 C 16.566406 34.914062 16.589844 35.054688 16.589844 35.820312 Z M 16.589844 38.722656 "/>
<path style=" stroke:none;fill-rule:evenodd;fill:rgb(2.745098%,42.745098%,50.196078%);fill-opacity:1;" d="M 22.605469 35.554688 C 22.605469 35.191406 22.621094 34.988281 22.683594 34.941406 C 22.75 34.890625 23.011719 34.824219 23.492188 34.824219 C 25.621094 34.824219 26.054688 36.328125 26.054688 37.21875 C 26.054688 38.722656 25.34375 39.75 23.765625 39.75 C 23.253906 39.75 22.945312 39.667969 22.765625 39.417969 C 22.628906 39.226562 22.605469 38.96875 22.605469 38.539062 Z M 21.9375 38.722656 C 21.9375 39.574219 21.917969 39.667969 21.449219 39.734375 L 21.261719 39.757812 C 21.210938 39.808594 21.230469 39.9375 21.277344 39.960938 C 21.660156 39.945312 21.953125 39.9375 22.292969 39.9375 C 22.578125 39.9375 23.101562 40 23.621094 40 C 24.246094 40 24.914062 39.898438 25.441406 39.613281 C 26.371094 39.113281 26.867188 38.230469 26.867188 37.203125 C 26.867188 36.136719 26.3125 35.214844 25.214844 34.816406 C 24.6875 34.625 24.109375 34.574219 23.425781 34.574219 C 22.734375 34.574219 22.074219 34.601562 21.382812 34.640625 C 21.300781 34.671875 21.308594 34.800781 21.375 34.84375 L 21.554688 34.867188 C 21.894531 34.914062 21.9375 35.085938 21.9375 35.652344 Z M 21.9375 38.722656 "/>
<path style=" stroke:none;fill-rule:nonzero;fill:rgb(2.745098%,42.745098%,50.196078%);fill-opacity:1;" d="M 27.976562 38.707031 C 27.976562 39.566406 27.960938 39.679688 27.480469 39.734375 L 27.277344 39.757812 C 27.226562 39.808594 27.246094 39.9375 27.292969 39.960938 C 27.699219 39.945312 27.976562 39.9375 28.316406 39.9375 C 28.644531 39.9375 28.917969 39.945312 29.328125 39.960938 C 29.375 39.9375 29.390625 39.789062 29.34375 39.757812 L 29.140625 39.734375 C 28.660156 39.679688 28.644531 39.566406 28.644531 38.707031 L 28.644531 35.828125 C 28.644531 34.972656 28.660156 34.835938 29.140625 34.792969 L 29.34375 34.777344 C 29.390625 34.746094 29.375 34.601562 29.328125 34.574219 C 28.917969 34.589844 28.644531 34.601562 28.316406 34.601562 C 27.976562 34.601562 27.699219 34.589844 27.292969 34.574219 C 27.246094 34.601562 27.226562 34.746094 27.277344 34.777344 L 27.480469 34.792969 C 27.960938 34.835938 27.976562 34.972656 27.976562 35.828125 Z M 27.976562 38.707031 "/>
<path style=" stroke:none;fill-rule:nonzero;fill:rgb(2.745098%,42.745098%,50.196078%);fill-opacity:1;" d="M 31.085938 35.175781 C 31.085938 34.863281 31.085938 34.851562 31.332031 34.851562 L 31.828125 34.851562 C 32.167969 34.851562 32.4375 34.859375 32.617188 34.898438 C 33.023438 35.011719 33.121094 35.304688 33.1875 35.667969 C 33.242188 35.714844 33.355469 35.691406 33.378906 35.644531 C 33.367188 35.335938 33.355469 34.945312 33.355469 34.574219 C 33.25 34.601562 32.777344 34.601562 32.257812 34.601562 L 30.761719 34.601562 C 30.4375 34.601562 30.160156 34.589844 29.816406 34.574219 C 29.769531 34.601562 29.753906 34.746094 29.800781 34.777344 L 29.933594 34.792969 C 30.402344 34.851562 30.417969 34.960938 30.417969 35.8125 L 30.417969 38.726562 C 30.417969 39.574219 30.402344 39.679688 29.933594 39.734375 L 29.726562 39.757812 C 29.679688 39.808594 29.695312 39.9375 29.746094 39.960938 C 30.125 39.945312 30.402344 39.9375 30.761719 39.9375 C 31.085938 39.9375 31.363281 39.945312 31.84375 39.960938 C 31.890625 39.9375 31.910156 39.789062 31.859375 39.757812 L 31.582031 39.734375 C 31.101562 39.695312 31.085938 39.574219 31.085938 38.726562 L 31.085938 37.601562 C 31.085938 37.390625 31.109375 37.382812 31.355469 37.382812 L 31.910156 37.382812 C 32.21875 37.382812 32.421875 37.390625 32.535156 37.421875 C 32.691406 37.46875 32.761719 37.582031 32.796875 37.730469 L 32.875 38.042969 C 32.933594 38.09375 33.054688 38.09375 33.089844 38.042969 C 33.089844 37.859375 33.054688 37.550781 33.054688 37.261719 C 33.054688 36.960938 33.089844 36.636719 33.089844 36.441406 C 33.054688 36.394531 32.917969 36.394531 32.875 36.441406 L 32.804688 36.765625 C 32.753906 36.976562 32.691406 37.019531 32.601562 37.050781 C 32.503906 37.082031 32.242188 37.097656 31.910156 37.097656 L 31.355469 37.097656 C 31.109375 37.097656 31.085938 37.097656 31.085938 36.878906 Z M 31.085938 35.175781 "/>
<path style=" stroke:none;fill-rule:nonzero;fill:rgb(2.745098%,42.745098%,50.196078%);fill-opacity:1;" d="M 35.15625 35.175781 C 35.15625 34.863281 35.15625 34.851562 35.398438 34.851562 L 35.898438 34.851562 C 36.238281 34.851562 36.507812 34.859375 36.6875 34.898438 C 37.09375 35.011719 37.191406 35.304688 37.257812 35.667969 C 37.3125 35.714844 37.425781 35.691406 37.453125 35.644531 C 37.433594 35.335938 37.425781 34.945312 37.425781 34.574219 C 37.320312 34.601562 36.847656 34.601562 36.328125 34.601562 L 34.832031 34.601562 C 34.507812 34.601562 34.230469 34.589844 33.886719 34.574219 C 33.839844 34.601562 33.824219 34.746094 33.871094 34.777344 L 34.003906 34.792969 C 34.472656 34.851562 34.492188 34.960938 34.492188 35.8125 L 34.492188 38.726562 C 34.492188 39.574219 34.472656 39.679688 34.003906 39.734375 L 33.796875 39.757812 C 33.75 39.808594 33.765625 39.9375 33.816406 39.960938 C 34.195312 39.945312 34.472656 39.9375 34.832031 39.9375 C 35.15625 39.9375 35.433594 39.945312 35.914062 39.960938 C 35.960938 39.9375 35.976562 39.789062 35.929688 39.757812 L 35.652344 39.734375 C 35.171875 39.695312 35.15625 39.574219 35.15625 38.726562 L 35.15625 37.601562 C 35.15625 37.390625 35.179688 37.382812 35.425781 37.382812 L 35.976562 37.382812 C 36.289062 37.382812 36.492188 37.390625 36.605469 37.421875 C 36.761719 37.46875 36.832031 37.582031 36.863281 37.730469 L 36.945312 38.042969 C 37.003906 38.09375 37.125 38.09375 37.160156 38.042969 C 37.160156 37.859375 37.125 37.550781 37.125 37.261719 C 37.125 36.960938 37.160156 36.636719 37.160156 36.441406 C 37.125 36.394531 36.988281 36.394531 36.945312 36.441406 L 36.875 36.765625 C 36.824219 36.976562 36.761719 37.019531 36.671875 37.050781 C 36.574219 37.082031 36.3125 37.097656 35.976562 37.097656 L 35.425781 37.097656 C 35.179688 37.097656 35.15625 37.097656 35.15625 36.878906 Z M 35.15625 35.175781 "/>
<path style=" stroke:none;fill-rule:nonzero;fill:rgb(2.745098%,42.745098%,50.196078%);fill-opacity:1;" d="M 22.882812 25.714844 C 22.851562 25.679688 22.535156 25.417969 22.703125 25.808594 C 22.867188 26.195312 23.347656 27.066406 23.410156 27.613281 C 23.472656 28.160156 23.308594 28.121094 23.347656 28.21875 C 23.382812 28.320312 23.703125 28.273438 23.761719 28.050781 C 23.820312 27.832031 24.050781 27.605469 24.039062 27.5625 C 24.027344 27.523438 24.796875 27.703125 24.941406 27.550781 C 25.085938 27.402344 25.027344 27.417969 24.851562 27.320312 C 24.675781 27.222656 24.117188 27.105469 23.527344 26.460938 C 22.9375 25.816406 22.996094 25.839844 22.882812 25.714844 "/>
<path style=" stroke:none;fill-rule:nonzero;fill:rgb(2.745098%,42.745098%,50.196078%);fill-opacity:1;" d="M 20.007812 30.957031 C 19.957031 31.058594 19.5 31.980469 18.695312 32.097656 C 17.894531 32.222656 17.011719 32.132812 16.292969 31.992188 C 15.574219 31.855469 14.4375 31.746094 14.039062 31.902344 C 13.632812 32.058594 12.289062 32.808594 11.203125 32.757812 C 10.117188 32.707031 9.539062 32.195312 8.804688 32.023438 C 8.070312 31.851562 6.957031 31.945312 6.625 32.1875 C 6.625 32.1875 6.449219 31.960938 7.1875 31.476562 C 7.921875 30.988281 8.894531 31.328125 9.792969 31.128906 C 10.109375 31.058594 11.898438 31.046875 12.113281 30.453125 C 12.324219 29.871094 12.480469 30.28125 12.507812 30.359375 C 13.011719 31.695312 14.644531 30.0625 14.792969 29.539062 C 15 28.804688 14.542969 28.085938 14.558594 28.09375 C 15.121094 28.394531 15.875 28.976562 16.191406 29.308594 C 16.863281 30.011719 17.175781 30.660156 17.753906 30.972656 C 18.328125 31.285156 18.75 31.820312 19.992188 30.957031 "/>
<path style=" stroke:none;fill-rule:nonzero;fill:rgb(2.745098%,42.745098%,50.196078%);fill-opacity:1;" d="M 14.054688 25.570312 C 14.054688 25.570312 14.007812 25.953125 14.085938 26.1875 C 14.171875 26.421875 14.191406 26.722656 14.570312 26.683594 C 14.855469 26.65625 14.644531 26 14.644531 26 C 14.644531 26 14.480469 25.636719 14.164062 25.582031 C 14.128906 25.578125 14.054688 25.570312 14.054688 25.570312 "/>
<path style=" stroke:none;fill-rule:nonzero;fill:rgb(2.745098%,42.745098%,50.196078%);fill-opacity:1;" d="M 20.699219 23.417969 C 20.699219 23.417969 20.652344 23.796875 20.734375 24.03125 C 20.816406 24.265625 20.835938 24.566406 21.214844 24.53125 C 21.503906 24.5 21.292969 23.84375 21.292969 23.84375 C 21.292969 23.84375 21.128906 23.484375 20.808594 23.425781 C 20.777344 23.421875 20.699219 23.417969 20.699219 23.417969 "/>
<path style=" stroke:none;fill-rule:nonzero;fill:rgb(2.745098%,42.745098%,50.196078%);fill-opacity:1;" d="M 24.84375 30.648438 C 24.84375 30.648438 24.796875 31.027344 24.878906 31.261719 C 24.960938 31.496094 24.980469 31.796875 25.359375 31.757812 C 25.644531 31.730469 25.433594 31.074219 25.433594 31.074219 C 25.433594 31.074219 25.269531 30.714844 24.953125 30.660156 C 24.917969 30.652344 24.84375 30.648438 24.84375 30.648438 "/>
<path style=" stroke:none;fill-rule:nonzero;fill:rgb(2.745098%,42.745098%,50.196078%);fill-opacity:1;" d="M 27.015625 29.933594 C 27.261719 30.171875 27.457031 30.296875 27.457031 30.296875 C 27.457031 30.296875 28.15625 30.75 28.394531 31.035156 C 28.617188 31.300781 28.644531 31.578125 28.488281 31.742188 C 28.339844 31.894531 28.125 31.925781 27.96875 31.824219 C 27.808594 31.726562 27.621094 31.585938 27.535156 31.335938 C 27.445312 31.082031 27.316406 30.75 27.210938 30.597656 C 27.109375 30.445312 27.097656 30.265625 27.03125 30.203125 C 26.964844 30.136719 26.859375 29.785156 27.015625 29.933594 "/>
<path style=" stroke:none;fill-rule:nonzero;fill:rgb(100%,100%,100%);fill-opacity:1;" d="M 16.074219 20.765625 C 16.074219 20.765625 16.132812 20.515625 16.09375 20.359375 C 16.058594 20.199219 16.070312 19.996094 15.8125 19.996094 C 15.625 19.992188 15.714844 20.441406 15.714844 20.441406 C 15.714844 20.441406 15.796875 20.691406 16.003906 20.75 C 16.023438 20.753906 16.074219 20.765625 16.074219 20.765625 "/>
<path style=" stroke:none;fill-rule:nonzero;fill:rgb(100%,100%,100%);fill-opacity:1;" d="M 18.40625 16.234375 C 18.40625 16.234375 18.46875 16 18.441406 15.847656 C 18.410156 15.695312 18.425781 15.503906 18.1875 15.496094 C 18.007812 15.488281 18.074219 15.914062 18.074219 15.914062 C 18.074219 15.914062 18.144531 16.15625 18.339844 16.21875 C 18.359375 16.226562 18.40625 16.234375 18.40625 16.234375 "/>
<path style=" stroke:none;fill-rule:nonzero;fill:rgb(100%,100%,100%);fill-opacity:1;" d="M 17.878906 7.820312 C 17.804688 8.175781 17.417969 8.355469 17.054688 8.378906 C 16.933594 8.386719 16.863281 8.34375 16.742188 8.316406 C 17.15625 8.300781 17.605469 8.210938 17.6875 7.808594 C 17.730469 7.585938 17.714844 7.414062 17.554688 7.253906 C 17.386719 7.078125 17.316406 7.003906 16.972656 6.777344 C 16.90625 6.730469 17.089844 6.816406 17.160156 6.84375 C 17.59375 7.015625 17.972656 7.371094 17.878906 7.820312 "/>
<path style=" stroke:none;fill-rule:nonzero;fill:rgb(100%,100%,100%);fill-opacity:1;" d="M 14.628906 6.964844 C 14.179688 6.816406 13.921875 6.886719 13.554688 7.097656 C 13.390625 7.191406 13.707031 6.757812 13.707031 6.757812 C 14.003906 6.636719 14.152344 6.585938 14.386719 6.585938 C 14.648438 6.578125 14.796875 6.71875 14.941406 6.730469 C 15.136719 6.75 15.246094 6.816406 15.449219 6.820312 C 15.679688 6.8125 16.222656 6.507812 16.433594 6.539062 C 16.007812 6.671875 15.894531 7 15.441406 7.023438 "/>
<path style=" stroke:none;fill-rule:nonzero;fill:rgb(100%,100%,100%);fill-opacity:1;" d="M 14.765625 5.539062 C 14.394531 5.300781 13.902344 5.355469 13.628906 5.429688 C 13.625 5.289062 13.882812 5.175781 13.882812 5.175781 C 14.039062 5.085938 14.160156 5.070312 14.3125 5.082031 C 14.449219 5.089844 14.699219 5.203125 14.785156 5.226562 C 14.90625 5.265625 15.007812 5.304688 15.132812 5.328125 C 15.277344 5.351562 15.816406 5.5 15.945312 5.546875 C 15.671875 5.597656 15.054688 5.617188 14.765625 5.539062 "/>
<path style=" stroke:none;fill-rule:nonzero;fill:rgb(100%,100%,100%);fill-opacity:1;" d="M 20 8.6875 C 20.703125 8.539062 22.128906 7.617188 22.101562 6.902344 C 22.09375 6.625 22.082031 6.472656 22.070312 6.195312 C 22.0625 5.894531 21.902344 5.691406 21.660156 5.523438 L 21.859375 5.65625 C 22.355469 5.996094 22.53125 6.246094 22.554688 6.949219 C 22.585938 7.8125 20.855469 8.605469 20 8.6875 "/>
<path style=" stroke:none;fill-rule:nonzero;fill:rgb(100%,100%,100%);fill-opacity:1;" d="M 19.964844 5.46875 C 20.035156 5.421875 20.023438 5.3125 20.128906 5.3125 C 20.152344 5.410156 20.144531 5.550781 20.046875 5.609375 C 19.785156 5.824219 19.421875 5.648438 19.140625 5.589844 C 19.0625 5.722656 18.96875 5.921875 18.789062 5.941406 C 18.644531 5.929688 18.480469 5.882812 18.421875 5.738281 C 18.355469 5.621094 18.433594 5.5 18.484375 5.394531 C 18.449219 5.335938 18.375 5.34375 18.339844 5.371094 C 18.1875 5.527344 18.34375 5.746094 18.109375 5.847656 C 17.929688 5.890625 17.792969 5.839844 17.640625 5.78125 L 17.632812 5.734375 C 17.773438 5.707031 18.046875 5.765625 18.03125 5.542969 C 18.011719 5.394531 18.019531 5.21875 18.179688 5.140625 C 18.816406 5.109375 19.359375 5.667969 19.964844 5.46875 "/>
</g>
</svg>
