<svg xmlns="http://www.w3.org/2000/svg" xmlns:xlink="http://www.w3.org/1999/xlink" viewBox="0 0 40 33.36"><defs><linearGradient id="a" x1="2.92" y1="4.13" x2="37.1" y2="38.31" gradientUnits="userSpaceOnUse"><stop offset="0" stop-color="#d24dff"/><stop offset="1" stop-color="#5b33ff"/></linearGradient></defs><title>air-pollution</title><path d="M30,30a11.93,11.93,0,0,0-5.9,1.6,8.16,8.16,0,0,1-4.1,1.2,7.62,7.62,0,0,1-4.1-1.2,11.68,11.68,0,0,0-11.8,0,11.14,11.14,0,0,1-2.54,1A1.89,1.89,0,0,0,0,34.44v.2a1.88,1.88,0,0,0,2.28,1.82A13.55,13.55,0,0,0,5.9,35.08a8.1,8.1,0,0,1,4.1-1.2,7.73,7.73,0,0,1,4.1,1.2,11.68,11.68,0,0,0,11.8,0,8.16,8.16,0,0,1,4.1-1.2,7.62,7.62,0,0,1,4.1,1.2,13.85,13.85,0,0,0,3.66,1.4A1.88,1.88,0,0,0,40,34.66v-.18a1.92,1.92,0,0,0-1.58-1.84,9.46,9.46,0,0,1-2.52-1A11.71,11.71,0,0,0,30,30Zm0-8.9a12.14,12.14,0,0,0-5.9,1.6,8.37,8.37,0,0,1-4.1,1.2,7.62,7.62,0,0,1-4.1-1.2,11.74,11.74,0,0,0-5.9-1.6,12,12,0,0,0-5.9,1.6,11.86,11.86,0,0,1-2.56,1A1.9,1.9,0,0,0,0,25.54v.2a1.86,1.86,0,0,0,2.24,1.82A14.59,14.59,0,0,0,5.9,26.18a7.6,7.6,0,0,1,8.2,0,11.74,11.74,0,0,0,5.9,1.6,12,12,0,0,0,5.9-1.6,7.6,7.6,0,0,1,8.2,0,13.85,13.85,0,0,0,3.66,1.4A1.88,1.88,0,0,0,40,25.74v-.18a1.92,1.92,0,0,0-1.58-1.84,9.46,9.46,0,0,1-2.52-1A11.93,11.93,0,0,0,30,21.08ZM35.9,4.92a11.68,11.68,0,0,0-11.8,0A8.37,8.37,0,0,1,20,6.12a7.62,7.62,0,0,1-4.1-1.2A12,12,0,0,0,10,3.32a11.74,11.74,0,0,0-5.9,1.6A11.14,11.14,0,0,1,1.56,6,1.89,1.89,0,0,0,0,7.78v.14A1.86,1.86,0,0,0,2.24,9.76,14.59,14.59,0,0,0,5.9,8.38,8.1,8.1,0,0,1,10,7.18a7.73,7.73,0,0,1,4.1,1.2A11.74,11.74,0,0,0,20,10a12,12,0,0,0,5.9-1.6A8.37,8.37,0,0,1,30,7.18a7.62,7.62,0,0,1,4.1,1.2,13.85,13.85,0,0,0,3.66,1.4A1.88,1.88,0,0,0,40,7.94V7.76a1.92,1.92,0,0,0-1.58-1.84A10,10,0,0,1,35.9,4.92ZM30,12.18a12.14,12.14,0,0,0-5.9,1.6,7.6,7.6,0,0,1-8.2,0,11.74,11.74,0,0,0-5.9-1.6,12,12,0,0,0-5.9,1.6,9.46,9.46,0,0,1-2.52,1A1.92,1.92,0,0,0,0,16.66v.18a1.86,1.86,0,0,0,2.24,1.82A14.59,14.59,0,0,0,5.9,17.28a8.37,8.37,0,0,1,4.1-1.2,7.79,7.79,0,0,1,4.1,1.2,11.74,11.74,0,0,0,5.9,1.6,12,12,0,0,0,5.9-1.6,8.37,8.37,0,0,1,4.1-1.2,7.62,7.62,0,0,1,4.1,1.2,13.85,13.85,0,0,0,3.66,1.4A1.88,1.88,0,0,0,40,16.86v-.18a1.92,1.92,0,0,0-1.58-1.84,9.46,9.46,0,0,1-2.52-1A11.71,11.71,0,0,0,30,12.18Z" transform="translate(0 -3.32)" fill="url(#a)"/></svg>