<svg xmlns="http://www.w3.org/2000/svg" xmlns:xlink="http://www.w3.org/1999/xlink" viewBox="0 0 36 40"><defs><linearGradient id="a" x1="9.55" y1="32.45" x2="30.45" y2="11.55" gradientTransform="matrix(1, 0, 0, -1, 0, 42)" gradientUnits="userSpaceOnUse"><stop offset="0" stop-color="#ff8f4d"/><stop offset="1" stop-color="#ff6133"/></linearGradient></defs><title>noise</title><path d="M4,16a1.89,1.89,0,0,0-2,2v4a1.89,1.89,0,0,0,2,2,1.89,1.89,0,0,0,2-2V18A1.89,1.89,0,0,0,4,16Zm8-8a1.89,1.89,0,0,0-2,2V30a1.89,1.89,0,0,0,2,2,1.89,1.89,0,0,0,2-2V10A1.89,1.89,0,0,0,12,8Zm8-8a1.89,1.89,0,0,0-2,2V38a1.89,1.89,0,0,0,2,2,1.89,1.89,0,0,0,2-2V2A1.89,1.89,0,0,0,20,0Zm8,8a1.89,1.89,0,0,0-2,2V30a2,2,0,0,0,4,0V10A1.89,1.89,0,0,0,28,8Zm8,8a1.89,1.89,0,0,0-2,2v4a2,2,0,0,0,4,0V18A1.89,1.89,0,0,0,36,16Z" transform="translate(-2)" fill="url(#a)"/></svg>