<svg xmlns="http://www.w3.org/2000/svg" viewBox="0 0 24 24"><title>bike</title><path d="M0,0H24V24H0Z" fill="none"/><path d="M15.5,5.5a2,2,0,1,0-2-2A2,2,0,0,0,15.5,5.5ZM5,12A5,5,0,0,0,5,22,5,5,0,0,0,5,12Zm0,8.5a3.5,3.5,0,0,1,0-7,3.5,3.5,0,0,1,0,7Zm5.8-10,2.4-2.4.8.8a6.67,6.67,0,0,0,4,2,1,1,0,0,0,1.1-1,1.06,1.06,0,0,0-.9-1,5.73,5.73,0,0,1-2.8-1.4L13.5,5.6A2,2,0,0,0,12,5a1.68,1.68,0,0,0-1.4.6L7.8,8.4a2,2,0,0,0-.6,1.4,1.68,1.68,0,0,0,.6,1.4L11,14v4a1,1,0,0,0,2,0V13.6a2,2,0,0,0-.6-1.4ZM19,12a5,5,0,1,0,5,5A5,5,0,0,0,19,12Zm0,8.5A3.5,3.5,0,1,1,22.5,17,3.54,3.54,0,0,1,19,20.5Z" fill="#313232"/></svg>