<?xml version="1.0" encoding="utf-8"?>
<!-- Generator: Adobe Illustrator 22.1.0, SVG Export Plug-In . SVG Version: 6.00 Build 0)  -->
<svg version="1.1" id="Layer_1" xmlns="http://www.w3.org/2000/svg" xmlns:xlink="http://www.w3.org/1999/xlink" x="0px" y="0px"
	 viewBox="0 0 384 256" style="enable-background:new 0 0 384 256;" xml:space="preserve">
<style type="text/css">
	.st0{fill:#FFFFFF;}
	.st1{fill:#00AB39;}
	.st2{fill:#D21034;}
</style>
<rect class="st0" width="384" height="128"/>
<rect y="128" class="st1" width="384" height="128"/>
<g id="dragon" transform="translate(-59.512 8.2826)">
	<path d="M331.2,23.8c-1-0.1-2,0-3.1,0.5c-2.2,1-4.9,3.2-9.5,6.7c-10.4,7.9-22.2,8.9-36.2,9.3c-29.1,0.7-42.6,7.8-49,16.9
		c-6.4,9.1-5.6,20.1-6.3,28.2c-0.5,5.6-1.5,10.3-5.6,15.5c1.1-2.7,1.4-4.7,1.2-6.1c-0.3-1.6-1.2-2.6-2.2-3.4c-1-0.8-2.2-1.5-3.1-2.5
		c-0.7-0.7-1.2-1.7-1.4-2.9c1.2-0.7,2.5-0.8,3.6-0.1c1.4,0.8,2.3,2.7,1.6,5.6c0,0.1,0.1,0.2,0.2,0.3c0,0,0,0.1,0,0.1
		c0.1,0.1,0.3,0.1,0.4,0l0,0c0,0,0,0,0,0c2.8-3,4-5.4,4.2-7.5c0.2-2.1-0.6-3.9-1.7-5.3c-1.1-1.5-2.5-2.8-3.6-4
		c-1-1.2-1.5-2.4-1.3-3.7c0.5-0.5,0.9-0.8,1.3-0.9c0.8-0.3,1.5-0.1,2.1,0.5c0.6,0.6,1.1,1.5,1.4,2.5c0.3,1,0.4,2.1,0.3,2.9
		c0,0,0,0,0,0c0,0.1,0,0.3,0.2,0.4c0.1,0.1,0.3,0,0.4-0.1c0,0,0,0,0-0.1c0,0,0,0,0,0c1.9-2.8,2.6-5.3,2.7-7.4c0-2.1-0.7-3.9-1.7-5.5
		c-1-1.5-2.3-2.8-3.5-3.9c-1.2-1-2.1-1.9-2.7-2.7c0-0.2,0-0.5,0-0.7c0.9-0.6,2-1,3.1-0.8c1.2,0.3,2.2,1.1,2.7,3c0,0,0,0,0,0
		c0,0.2,0.1,0.3,0.3,0.3c0.2,0,0.3-0.1,0.3-0.3v0c0.1-3.9-0.6-7-2-9.3c-1.3-2.2-3.3-3.6-5.7-4.4c0.1-0.2,0.2-0.3,0.3-0.5
		c0.8-1.1,1.9-2.3,3-3.7c2.1-2.8,4.2-6.4,3.7-10.9c0,0,0-0.1-0.1-0.1c0,0,0-0.1,0-0.1c-0.1-0.1-0.2-0.1-0.2-0.1
		c-0.1,0-0.1,0.1-0.1,0.1c-0.1,0-0.1,0-0.1,0.1c-2,2.6-5.6,3.3-9.3,3.8c0.4-0.8,1-1.8,1.5-3.1c0.6-1.4,1-2.9,0.8-3.9v0
		c0,0,0-0.1,0-0.1c0-0.1-0.1-0.2-0.1-0.2c-0.1,0-0.2-0.1-0.3,0c0,0,0,0-0.1,0.1c-0.1,0-0.1,0-0.1,0.1c-2.3,2.5-6.6,4-10.4,5
		c-1.9,0.5-3.7,0.9-5,1.4c-0.7,0.2-1.2,0.4-1.6,0.6c-0.3,0.1-0.5,0.3-0.6,0.5c-2.6-0.6-5.1-1-7.3-1.1c-4-0.2-7.3,0.3-9.5,1.2
		c-1.1,0.4-2,1-2.5,1.7c-0.6,0.7-0.8,1.4-0.6,2.2c0.2,0.7,0.8,1.5,1.6,2.2c-5.7-2.4-10.7-3.3-14.7-3.3c-1.7,0-3.2,0.1-4.6,0.4
		c-2.7,0.5-4.9,1.3-6.5,2.2c-1.2,0.7-2,1.3-2.5,1.9c-0.1,0.1-0.1,0.1-0.2,0.1c0,0,0,0,0,0c0,0,0,0.1,0,0.1c0,0-0.1,0.1-0.1,0.1
		c0,0,0,0,0,0v0c0,0-0.1,0.1-0.1,0.1c-0.1,0.1-0.1,0.3,0,0.4c0.1,0.1,0.3,0.1,0.4,0.1c0.7-0.4,1.5-0.8,2.4-1.1c0,0,0.1,0,0.1,0
		c0.7,0,1.5,0.2,2.2,0.4c0.8,0.3,1.5,0.7,2,1c0.5,0.3,0.9,0.6,1,0.7c0,0,0,0,0,0c0.4,0.2,0.9,0.5,1.4,0.7c-1.1,2.3-1.5,5.2-1.5,9.5
		c-0.2,0-0.3,0.1-0.6,0.1c-1.2,0.2-2.7,0.3-4.4,0.2c-2.4-0.1-5.1-0.7-7.5-2c0.4,0.1,0.8,0.2,1.2,0.2c1.8,0.1,3.4-0.3,4.5-0.9
		c0.2,0,0.4,0,0.5-0.1c0.1,0,0.2-0.2,0.2-0.3c0-0.1-0.1-0.1-0.1-0.2c0,0,0-0.1-0.1-0.1c-1.7-0.7-11-4.9-18.8-14.8c0,0,0,0,0,0
		c0,0,0,0,0,0c-0.1-0.1-0.2-0.1-0.3-0.1c-0.2,0-0.3,0.2-0.3,0.3c0,0,0,0.1,0,0.1c0.4,4.7,1.8,16.2,11.4,25.5
		c0.1,0.1,0.3,0.1,0.4,0.1s0.2-0.2,0.2-0.3c-0.2-1.2-0.3-2.1-0.6-3.3c0,0,0,0,0,0c0-1.6-0.1-2.7-0.3-3.6c2.9,2.6,5.9,3.8,8.7,4.2
		c3.6,0.5,6.8-0.3,9-0.6c0.1,0,0.2,0,0.3-0.1c0,2-0.7,4.6-2,6.8c-0.7,1.2-1.6,2.3-2.5,3c-0.9,0.7-1.8,1.1-2.7,1.1h0
		c-0.1,0-0.2,0.2-0.3,0.3c-0.1,0.1-0.1,0.1-0.1,0.2c0,0.2,0.1,0.3,0.3,0.3c3.9,0,7.1,0.1,10.7-0.1h0c0.4-0.1,0.6,0,0.7,0
		c0,0,0,0.1-0.1,0.1c-0.2,0.4-1,1.1-1.8,2c-0.1,0.1-0.1,0.2-0.1,0.4c0.1,0.1,0.2,0.2,0.3,0.2c0,0,0,0,0.1,0c0.1,0.1,0.2,0.1,0.3,0.1
		c0,0,0.1,0,0.1,0c0.1,0,0.2-0.1,0.4-0.1c2.3-0.2,5.1-0.7,7.3-2.3c0,0.2-0.1,0.6-0.2,0.7c-0.1,0.2-0.2,0.4-0.5,0.7
		c0,0-0.1,0.1-0.2,0.1c-0.4,0.3-0.6,0.5-1.1,0.9c0,0,0,0-0.1,0c-0.1,0.1-0.2,0.2-0.1,0.3s0.1,0.2,0.3,0.2c0,0,0.1,0,0.1,0h0
		c0,0,0,0,0.1,0c2.4-0.2,6.6-2.1,9.7-5.3c1.6,0.2,2.6,1,3.3,1.8c0.4,0.4,0.6,0.8,0.9,1.1c0.1,0.1,0.3,0.2,0.4,0.2
		c0,0.1-0.1,0.3-0.1,0.4c0.1,0.3,0.3,0.5,0.5,0.7c-1.1,2.1-1.5,3.5-1.3,4.5c0.1,0.5,0.3,0.9,0.6,1.2c-1.5,1.1-2.8,2.3-3.4,3.4
		c-0.3,0.6-0.5,1.2-0.4,1.7c0,0.1,0.2,0.3,0.2,0.4c-0.1,0-0.2,0-0.4,0h0c-1.5,0.7-3,2.2-3.7,3.6c-0.4,0.7-0.6,1.4-0.6,2
		c0,0.3,0.1,0.5,0.3,0.7c-1.9,1-3.7,3.1-4.6,5.1c-0.5,1-0.8,1.9-0.7,2.6c0,0.4,0.2,0.7,0.5,0.9c-0.1,0.1-0.1,0.1-0.2,0.2
		c0,0-0.1,0-0.1,0.1c-1.9,1-3.2,3.3-3.7,5.3c-0.3,1-0.4,2-0.2,2.7c0.1,0.3,0.2,0.5,0.4,0.7c-0.1,0.1-0.2,0.1-0.3,0.2
		c-0.6,0.5-1,1.1-1.1,1.3l0,0c-1.1,1.4-1.6,3.7-1.5,5.7c0,1,0.2,1.9,0.6,2.5c0.1,0.2,0.3,0.4,0.5,0.5c0,0-0.1,0.1-0.1,0.1l0,0
		c-1.1,1.4-1.6,3.7-1.5,5.7c0,1,0.2,1.9,0.6,2.5c0.2,0.3,0.4,0.6,0.7,0.7c0.1,0.1,0.3,0,0.5,0c0,0.1-0.2,0.2-0.2,0.2c0,0,0,0,0,0
		c-0.2,0.2-0.3,0.4-0.4,0.7c-0.1,0.1-0.1,0.3-0.1,0.5c-0.7,1.4-1.2,0.6-1.6,0.1c-3-6.2-5.8-9.8-8.7-23.8c-0.5-2.4-6-6.3-7.5-16.2
		c-0.3-2.2,3.1-7.1-1.6-8.5c0,0,0,0,0,0c-3.2-6-9.7-3.7-10.7-1.8c-0.1,0.1-0.1,0.3,0,0.4c0.1,0.1,0.2,0.2,0.3,0.1
		c0.8-0.2,3.4,0.6,3.4,2.2c-1.4,3.3,0.3,6-0.6,5.7c-0.1-5.1-5.8-5.1-5.9-5c0,0,0,0,0,0l-2.5-0.3c-8.4,0.1-6,6.2-5.5,7.4
		c0.1,0.1,0.3,0.2,0.5,0.1c0.2,0,0.3-0.1,0.4-0.2c-0.4-2.3,1.5-2.4,3.4-1.5c1.2,4.7,3.8,4.8,4.1,4.8v0h0c3.5,0.7,4.6,3,4.6,4.4
		c-1.1-0.4-2.5-0.7-4.3-0.3c-1.3-1.3-3.7-1.8-4.5-1.9c-0.4-0.1-3,0.3-4.1,1.8l-0.4-0.1c-5.2,1.7-3.1,7.5-1.3,8.2
		c0.1,0.1,0.2,0.1,0.3,0.1c0.1,0,0.2-0.1,0.2-0.3c-0.8-1.8,0.3-2.8,1.7-2.2c2,2.2,4.5,3.1,9.4,0.3c0.1,0,1.8,0.8,3.5,1.5
		c-0.1,2.1,2.2,5.8,3.8,8.5c-0.5,2.1-1.4,4.3-1.8,5c0,0,0,0,0,0c-2,1.6-3.8,5.3-2.9,8.6c-0.6,1.6-2.9,2.5-2.9-0.6
		c-0.1-0.1-0.2-0.1-0.4,0c-0.1,0.1-0.2,0.2-0.1,0.3c-0.7,2.1,2.7,8.4,8.1,5.1l1.1-1.2c1.8,0,3.7-2.3,4.3-4.3
		c2.7,16.4,9,32.9,11.6,38.3c-2,6-7.6,5.8-9.5,3.8c0,0,0,0-0.1,0c-0.1-0.1-0.3-0.1-0.4,0.1c-0.1,0.1-0.1,0.3,0,0.4
		c3.5,3.5,5.4,4.6,8.8,4.6c7.5,0,10.2-4.7,10.7-6.7c6.3-1.4,11.2-5.5,13-5.8c0.3,0.2,0.7,0.7,0.9,0.9c1.5,1.2,2.8,1.9,3.9,2
		c0.5,0.1,1,0,1.5-0.2c0.4,0.9,1.1,1.6,1.9,2.2c-0.3,2.2-0.6,6.8-2.2,12.6c-1.7,6-4.8,13.1-10.8,19.9c-2.4,1-4.3-0.6-5.5-1.6
		c-1-0.8-3.7-3.7-4.2-5.2c-0.6-1.8-1.2-3-2.1-3.9c-0.9-0.9-2.5-1.2-3.7-1.3c0,0,0.5,0.1,0,0c-0.4,0-0.7,0-1,0c-3.7-2.9-7.3,2-6.9,5
		c0,0.1,0.1,0.2,0.2,0.3c0.1,0,0.3,0,0.4-0.1c0.5-1.2,2-0.8,2.7,0.2c-0.1,1.1,0,2.3,1.1,3.8c-1.2,0.1-2.6,0.4-4.2,2.2
		c-6.3,0.8-5.1,7.9-3.3,9.1c0.1,0.1,0.2,0.2,0.3,0.2c0.1,0,0.2-0.1,0.3-0.3c-2.1-2.7,0.9-3.8,2.3-2.6c0.4,1.2,2,2.3,3.4,2.9
		c-0.1,0.3-0.5,1.7-0.4,2.1c-6.8,3.7-0.5,10.2,1.1,9.7c0.1,0,0.2,0,0.4-0.1c0.1-0.1,0.2-0.2,0.1-0.4c-1-1.5-1-3.4,0.7-2.9
		c0.9,0.6,2.5,0.8,3.4,0.8c2.1,0,3.3-1.4,6-4c1.6-1.6,2.8-0.8,3.8-0.3c0.1,0.4,0.3,1,0.8,1.2c0.8,0.3,2.5,0.5,3.5,0.5
		c5.5-0.2,8.6-1.4,11.1-2.3c2.5-0.9,4.8-1.3,6.9-1.4c2,0,3.3,0.4,5.4,1.1c1.1,0.4,2.8,1.2,3.6,1.2c1.4-0.1,2-0.7,2.4-1.3
		c2.1-0.4,2.6,0.5,1.4,2.9c0,0.1,0,0.3,0.1,0.4c0.1,0.1,0.2,0.1,0.4,0c2.1-0.9,8.5-7-0.1-10.5c-1.3-1.2-3-2.2-4.3-2.2
		c-1.3,0-2.6,0.5-4,0.8c-1.4,0.3-2.7,0.6-3.2,0.6c-1.8,0-1.8-1.1-2-3c-0.2-2,3.9-8.8,5.8-11.2c3.6-4.8,8.4-10.2,11.9-13.8
		c10.3-0.4,6.2,5.7,4.4,6.9c-0.1,0.1-0.2,0.2-0.1,0.4c0.1,0.1,0.2,0.2,0.4,0.2c0,0,0.1,0,0.1,0c3.7-1,7.3-3.6,8.5-6
		c0,0,2.7-4.7,0.4-8.7c-0.1-0.2-0.2-0.5-0.3-0.8c1.3-0.6,2.9-2.8,2.9-3.1c1.7,0.5,8.4,0.1,9-3.6c3.1,0.3,8.6-1.7,8.8-5.1
		c0.4,0.3,1.1,0.4,2,0.2c0.3,2.8,4.6,5.5,5.6,4.9c0.4,4.7,6.3,6.9,8,6c-0.3,1.1,4,3.2,5.8,3.1c-3.3,9-9.2,19.2-17.4,23.2
		c-2.2-0.2-5.3-1.7-6.7-2.6c-1.1-0.7-2.5-1.7-3.4-3.1c-0.9-1.4-0.8-1.4-1.7-2.3c-0.9-0.9-2.8-1.6-3.4-1.6c-0.4,0-1.1,0.4-1.8,0.8
		c-8.1-1.4-7.3,4.3-6.6,6.4c0,0.1,0.1,0.2,0.2,0.3c0.1,0,0.3,0,0.4-0.1c0-3,1.7-3,2.6-1.6c0,0.1,0,0.1,0,0.1c0.5,1,0.3,1.6,0.1,2
		c-0.9,0.1-1.8,0.3-2.8,1.1c-7.1-0.8-6.4,7-4.2,8c0.1,0.1,0.2,0.2,0.3,0.2c0.1,0,0.2-0.1,0.3-0.3c-1.3-1.9,1.9-4.7,2.7-1.3v0
		c-0.1,0.1-0.1,0.2,0,0.4c0.2,1.1,1.5,2.2,2.6,2.7c-0.2,0.3-0.6,0.6-0.7,1.2c-7.5,2.6-3.3,9-1.1,10c0.1,0.1,0.3,0.1,0.4,0
		c0.1-0.1,0.2-0.2,0.1-0.3c-0.7-1-0.4-3.2,2.7-2.8c0.3,0.9,1.6,1.3,2.7,1.3c2.1,0,6-2.9,8.1-4c1.9-1.1,5.1-0.7,5.9-0.6
		c0.4,0.3,1,0.7,2.5,0.7c7.5-0.1,8.8-4.1,16.3-4c3.4,0.1,11.4,4.1,14,0.4c1.2-0.4,1.8,0.6,0.4,2c-0.1,0.1,0,0.3,0.1,0.4
		c0.1,0.1,0.2,0,0.4,0c2.2,0.3,8.9-7,0.1-9.4c0-0.1,0-0.1-0.1-0.2c-0.2-0.2-1.3-1.4-4-1.4c-2.7,0-4.6,1.3-5.6,1.5
		c-2,0.6-1.3-1-1.1-1.6c2.2-5.4,12.9-15.5,17.7-19.6c0.5-0.2,1.1-0.5,1.8-0.9c4.9-1.8,6.2,3,1.4,4.7c-0.2,0.2-0.2,0.5-0.1,0.8
		c0.1,0.2,0.4,0.4,0.7,0.3c11.3-3,9.6-9.2,9.6-9.2c0.4-6.4-7.2-9-8.4-9.7c-2.1-2.3-2.5-3.7-2.4-5.3c0.1-0.8,0.7-2.2,1.8-1.6
		c1.8,1.4,4,2.3,4.6,1.1c-1.3,1.5,7.7,6.8,8.6,4.6c0.9,3.8,7.3,3.6,8.6,2.6c1.9,3.6,8.5,2.7,8.4,2c-0.3,1.3,5.7,3.3,8.5,1.3l0.1,0.3
		c2.2,2.7,3.5,6.2,5,12.4c1.5,6.2,1.2,11.2-0.8,16.2c-0.1,0.2-0.6,0.2-1.2,0.2c-1.6-0.6-2.5-1.1-3.6-2c-1-0.8-2.3-2-3.2-3.3
		c-0.8-1.5-1.4-2.7-2.4-3.6c-0.9-0.9-2.5-1.3-3.7-1.4h0c-0.5,0-1,0.2-1.4,0.5c-6-1.9-8.9,4.5-8.2,6.6c0,0.1,0.1,0.2,0.3,0.3
		c0.1,0,0.3,0,0.4-0.1c0.6-1.6,3.4-2.3,4.4-0.9c0.1,0.6,0.1,1.1,0,1.4c-1.2,0.1-2.7,0.5-4.2,2.3c-7,0.5-4.6,7.4-3.2,9.2
		c0.1,0.1,0.2,0.2,0.3,0.2c0.1,0,0.2-0.1,0.3-0.3c-0.2-2,1.9-4.4,3.3-2.6c0.6,1,2.1,1.7,3,2c-8.1,3.7-2.3,9-0.1,10
		c0.1,0.1,0.2,0.1,0.4,0c0.1-0.1,0.2-0.2,0.1-0.3c-1-1.6-0.4-3.9,1.4-3.3c0,1.3,2.6,2.2,3.9,2.2c2.1,0,4.4-1.7,6.5-2.8
		c2-1.1,6.6-1.1,7.5-1.1c3.1,2.9,9,2.2,12.3,1.2c3.5-1.1,6.2-3.1,9-3.1c3.8,0,6.6,4.6,9.9,0.7c2.2-1,2.8,1.6,1.7,3.3
		c0,0.1,0,0.3,0.1,0.3c0.1,0.1,0.3,0.1,0.4,0c2.2-0.9,7.8-6.1,0.1-9.8c0.4-1-3-3.9-5.8-3.9c-3.5,0-8.7,5.3-10.7-5.2
		c-0.5-2.5-1.9-20.8-2-22.6c0.7-0.4,1.6-1,2.2-0.9c0.8,0,1.6-0.1,2.3,1.1c0.8,1.2,1.4,3-0.6,5.5c0,0,0,0.1,0,0.1
		c0,0.1-0.1,0.1-0.1,0.2c0,0,0.1,0,0.1,0.1c0,0,0,0.1,0,0.1c0,0,0.1,0,0.1,0c0,0,0,0.1,0.1,0.1c0.1,0,0.2,0,0.3-0.1
		c4.8-4.8,5.9-9.8,4.7-13.3c-1.3-3.5-4.8-6.1-7.6-6.1c-3.4-0.1-7.2-2.1-10.4-5.1c-3.2-3-5.2-6.4-6.5-9.6c-0.2-0.6-0.6-1.1-0.8-1.7
		c20.9-7.2,26.9-23.8,26.8-34c0-7.1-2.9-13.1-7.1-17.5c-0.1-1.7,0.4-3.9,1-5.8c0.4-1.1,0.8-2,1.2-2.7c0.2-0.3,0.3-0.5,0.4-0.7
		c0.1,0.4,0.2,0.8,0.4,1.4c0.4,0.9,0.8,1.9,1.4,3c1.1,2.1,2.3,4.2,3.4,5.1c0.1,0.1,0.2,0.1,0.3,0c0.1-0.1,0.2-0.1,0.2-0.3
		c0.8-10.3,4.4-25.4,15.8-39.2c0,0,0,0,0,0c0,0,0,0,0,0c0,0,0.1,0,0.1-0.1c0.1-0.1,0.2-0.2,0.2-0.4c-0.1-0.1-0.2-0.2-0.4-0.2
		c0,0,0,0-0.1,0c0,0,0,0,0,0c-2.6,1.2-5,2.4-7.1,3.6c-18.6,9.9-22,16.6-32.3,24.6c-0.1,0.1-0.2,0.2-0.1,0.4c0.1,0.1,0.2,0.2,0.3,0.2
		c5.1-0.2,9.5-1.4,13.5-3.4c-1,1.7-2.2,3.7-3.3,5.5c-0.7,1-1.3,2-1.8,2.6c-0.3,0.3-0.5,0.5-0.7,0.7c-0.1,0.1-0.1,0-0.1,0
		c-2.8-1.3-5.6-2-8.4-2c-10.3,0-17.4,6.8-17.4,15.1c-0.1,8.8,6.8,15.4,13.6,15.1c2.4-0.1,5.5-0.7,8.3-2.6c2-1.4,3.8-3.4,4.9-6.3
		c0,0.2,0.1,0.5,0.1,0.7c0,4.7-1.8,8-4.8,10.2c-3,2.2-7.2,3.3-11.8,3.4c-4.6,0.1-9.3-2.4-15.9-5.1c-6.7-2.7-15.2-5.5-27.5-5.7
		c-3.7-0.1-7.2,0.3-10.1,1.8c-0.2,0.1-0.3,0.2-0.5,0.4c1.6-1.9,3.4-3.6,5.7-4.8c5.3-2.9,12.1-3.7,18.2-1.2c0.7,0.3,1.4,0.7,2,0.9
		c0.5,0.2,0.7,0.2,1.1,0.3c0.1,0.7,0.1,1.3,0,1.6c-0.1,0.1-0.2,0.2-0.3,0.3c-0.1,0-0.1,0-0.2,0.1c-0.1,0-0.3,0.1-0.5,0
		c-0.1,0-0.2,0-0.3,0.1c-0.1,0.1-0.1,0.2-0.1,0.3c0,0.1,0.1,0.3,0.2,0.3c0.1,0,0.2,0,0.2,0.1c0.5,0.5,1,0.7,1.5,0.6
		c0.6-0.1,1.2-0.6,1.6-1.2c0.4-0.6,0.7-1.3,0.9-1.9c0-0.1,0-0.1,0-0.2c0.5-0.6,0.9-1.4,0.7-2.4c-0.2-1-1-2.1-2.6-2.9
		c0,0,0-0.1-0.1-0.1c-0.1,0-0.4-0.4-0.7-0.9c-0.3-0.6-0.5-1.3-0.7-2.2c-0.4-1.8-0.5-4.1,0-6.4c1-4.6,4.4-9.1,13.6-10
		c0,0,0.1-0.1,0.1-0.1c1.8,0.4,3.4,0.6,4.6,0.6c0.2,0,0.3,0,0.5-0.1c0.1,0.1,0.2,0.2,0.2,0.3c0.1,0.2,0.2,0.5,0.2,0.8
		c0,0.3-0.3,0.6-0.5,0.9c0,0,0,0,0,0c-0.1,0-0.2,0.1-0.2,0.2c0,0.1,0,0.2,0,0.3v0v0h0v0c0,0.1,0.1,0.2,0.2,0.2c0.1,0,0.2,0,0.4,0
		c0.6,0.2,1.1,0.2,1.6-0.2c0.6-0.4,1.2-1.2,1.5-2c0.3-0.8,0.4-1.7,0.2-2.5c-0.2-0.5-0.7-0.9-1.2-1.1c-7.3-7.6-7-16.8-4.1-24.5
		c1.4-3.9,3.5-7.4,5.6-10c2.1-2.6,4.4-4.5,5.5-4.9c0.1,0,0,0.1,0,0c0.5,0,0.9,0.1,1.3-0.1c0.6-0.2,1.2-0.5,1.7-0.9c0,0,0,0.1,0,0.1
		c0.2,0.1,0.3,0,0.4-0.2l0,0c0.1,0,0.2-0.1,0.3-0.1c0.2-0.1,0.5-0.1,0.7-0.1c0.1,0,0.2,0.1,0.2,0.1s0.1,0,0.1,0.1
		c0,0.2,0,0.6-0.4,1.2c0,0,0,0,0,0v0v0c0,0.1-0.1,0.2,0,0.3c0,0,0,0,0,0v0c0,0,0,0,0,0c0,0,0,0,0,0c0,0,0,0,0,0s0,0,0,0
		c0,0,0.1,0,0.1,0c0,0,0,0,0,0c0,0,0,0,0,0c0,0,0,0,0,0c0,0,0,0,0,0c0,0,0.1,0,0.1,0c0,0,0,0,0.1,0c0,0,0,0,0,0
		c0.6-0.1,1.1-0.5,1.6-1c0.6-0.6,1-1.3,1.2-2.1c0.2-0.8,0.2-1.6-0.4-2.2c-0.5-0.5-1.3-0.7-2.4-0.7c-0.2-0.4-0.6-0.8-1-1.1
		c-0.5-0.2-1.1-0.2-1.7-0.2l-0.4-0.1C333.3,24.4,332.3,23.9,331.2,23.8L331.2,23.8z M171.9,56.6c2.2,0,4.3,0.4,6.3,1.3
		c-0.4,0.4-1,0.6-1.6,0.8c-1.2,0.3-2.8,0.2-4.3-0.1c-1.5-0.3-2.9-0.8-3.8-1.3c-0.3-0.1-0.4-0.3-0.6-0.4
		C169.1,56.7,170.5,56.6,171.9,56.6L171.9,56.6z M338.9,88.6c0.8,0,1.6,0.2,2.5,0.5c0.7,0.2,1.3,0.6,1.9,1c-0.1,0.1-0.2,0.2-0.2,0.4
		c-1.1,4.1-3.3,5.3-5,5.2c-1.7,0-3.2-1.3-3.2-3c0-2.1,0.7-3.1,1.9-3.7C337.4,88.7,338.1,88.6,338.9,88.6L338.9,88.6z M219.1,99.4
		c0.5-0.1,0.8,0,1.2,0.3c0.3,0.2,0.6,0.7,0.7,1.5c0,0,0.1,0,0.1,0.1c0,0.1,0,0.2,0.1,0.3c0,0,0.1,0,0.1,0c-0.6,0.7-1.1,1.4-1.8,2.1
		c-1-0.4-2-1.1-2.7-2.3C217.3,100.3,218.3,99.5,219.1,99.4L219.1,99.4z"/>
	<path class="st2" d="M331.4,24.9c-3.9,3.9-7.8,6.6-13.2,10c-9.6,5.9-20.8,7.4-34.8,8.1c-28.3,1.5-40.9,7-46.7,15
		c-5.8,8-4.8,18.2-6.3,28.9c-0.5,3.3-1.5,7.4-3.3,10.7c-1.5,2.9-3.7,5.2-6.5,6.5c7.9-7.1,7.9-14.1,8.6-18.2
		c1.2-7.3-0.1-17.7,5.5-26.6c5.7-8.9,18.4-16.3,48-17.4c12.2-0.5,19.6-1.6,24.8-3.2c5.2-1.5,8-3.4,11-5.2c3.1-1.9,5.6-4.7,8.1-6.6
		c1.2-0.9,2.4-1.7,3.7-1.9C330.6,24.8,331,24.8,331.4,24.9z M334.8,26.5c0.5,0,1,0,1.2,0.1c0.3,0.1,0.4,0.3,0.5,0.5
		c0.1,0.4-0.1,1.2-0.6,1.9c-0.5,0.7-1.4,1.4-2.3,1.7c-0.9,0.3-2.4-0.4-2.7-0.6c-0.1-0.1-0.3-0.1-0.4-0.1c-0.2-0.2-0.3-0.3-0.5-0.5
		c-0.1-0.1-0.2-0.1-0.3-0.1c-0.1,0-0.1,0-0.2,0.1c-14,12.8-25.9,15.2-45.5,16.6c-6.7,0.5-17.2,1.7-26.2,4c-4.5,1.1-8.7,2.5-11.9,4.2
		c-3.2,1.7-5.4,3.6-5.9,6c0,0.1,0,0.2,0.1,0.3c0.1,0.1,0.2,0.1,0.3,0.1c0,0,0.1,0,0.1,0c0.1,0.2,0.3,0.3,0.6,0.3
		c1.7-0.1,6.5-0.2,13,0.1c6.5,0.2,14.7,0.7,23.4,1.6c16.7,1.6,34.9,4.5,45.8,9.1c0.2,0.3,0.4,0.5,0.6,0.8c0,0,0,0,0,0
		c-0.3,0.2-1,0.2-1.9,0.2c-2-0.2-5-0.9-8.8-1.9c-7.5-1.9-17.6-4.7-26.9-5.7C270.5,63.2,261,61,239.4,61c0,0-0.1,0-0.1,0
		c0,0,0,0-0.1,0c-0.1,0-0.1,0.1-0.2,0.2s-0.2,0.2-0.3,0.3c-0.2,0.2-0.4,0.5-0.7,0.9c-0.5,0.8-0.8,1.8-0.7,3.1c0,0.1,0.1,0.2,0.2,0.3
		c0,0,0.1,0,0.2,0c0.1,0.1,0.1,0.2,0.2,0.2c1.9,0.3,6.1,1.6,11.5,3.6s12.1,4.5,19.1,7.4c13.5,5.6,27.9,12.3,36.1,17.5
		c0.6,0.4,1.4,1.1,1.8,1.6c0.1,0.1,0.2,0.3,0.2,0.4c0,0.1,0,0.2,0,0.2c0,0.1-0.4,0.2-0.8,0.3c-3.2-0.7-8.3-3.4-14.1-6.8
		c-6.4-3.7-13.7-8.1-20.6-10.9c-12.1-5-26.6-11.4-33.5-12.9c0,0-0.1,0-0.1,0c-0.1,0-0.1,0.1-0.2,0.2c0,0-0.1,0-0.1,0
		c0,0-0.1,0-0.1,0.1c-0.5,0.3-0.8,0.7-1,1.1c-0.2,0.4-0.1,0.9,0.1,1.4c0.4,0.9,1.4,2,2.9,3.5c3,3,7.9,7.7,14.2,15.9
		c11,14.2,16.1,21,18.3,24.4c1.1,1.7,1.4,2.6,1.5,2.9c0,0.2,0,0.2-0.1,0.3c-0.1,0-0.2,0.1-0.3,0.2c-0.9,0-1.4-0.2-1.9-0.7
		c-0.5-0.5-1.1-1.4-1.9-2.8c-1.7-2.9-4.5-7.9-11-16.5c-4-5.2-8.8-10.8-12.9-15.5c-4-4.6-7.3-8.2-8.3-9.6c0-0.1-0.1-0.1-0.1-0.2
		c0-0.1-0.1-0.1-0.2-0.2c-0.2-0.1-0.4,0-0.6,0.1c-0.1,0.1-0.3,0.2-0.4,0.4c-0.2,0.3-0.3,0.8-0.5,1.4c-0.3,1.2-0.6,2.8-0.8,4.5
		c-0.2,1.7-0.4,3.5-0.5,4.9c-0.1,1.4-0.2,2.4-0.1,2.9v0v0V85c0,0.1,0,0.1,0.1,0.1c0.3,2.5,1.4,4.5,2.7,7.4c1.4,3,3.2,6.9,4.8,13
		c1.3,5.2,2.7,10.5,3.3,14.6c0.3,2,0.5,3.8,0.4,5c0,0.6-0.2,1.1-0.3,1.4c-0.2,0.3-0.3,0.4-0.6,0.5h0c-0.4,0.1-0.5,0.1-0.7-0.1
		c-0.1-0.1-0.3-0.5-0.4-1.1c-0.2-1.2-0.3-3.2-0.6-6.2c-0.6-6-2.3-15.7-8-30.6c0,0,0-0.1,0-0.1c0,0-0.1,0-0.1,0c0-0.1,0-0.1-0.1-0.1
		c0,0-0.1,0-0.1,0c0,0,0,0-0.1,0c0,0,0,0-0.1,0.1c0,0-0.1,0-0.1,0c-0.1,0.1-0.1,0.1-0.2,0.2c-0.1,0.1-0.2,0.3-0.3,0.5
		c-0.2,0.4-0.5,1.1-0.8,1.9c-0.6,1.6-1.3,4-2,6.7c-0.9,3.6-1.7,8-2.2,12.3c0-0.7-0.1-1.1-0.1-1.7c-0.1-1.6-0.1-3.1,0.1-4.4
		c0.1-0.6,0.2-1.2,0.3-1.7c0.1-0.2,0.1-0.3,0.2-0.5c0.1-0.2,0.2-0.5,0.3-0.7c0,0,0,0,0,0c0,0,0,0,0,0c0.1-0.1,0.1-0.2,0-0.3
		c0,0,0,0-0.1,0c-0.1-0.1-0.2-0.1-0.3-0.1c-0.1,0-0.1,0-0.2,0.1c-2.5,2.4-4.2,4.2-5.4,6.9c-0.6,1.3-1.1,2.9-1.6,4.8
		c0.1-1.3,0.1-2.5,0.2-3.4c0.1-1,0.2-1.7,0.3-2c0.1-0.1,0-0.3-0.1-0.4c-0.1-0.1-0.2-0.1-0.3-0.1c-0.1,0-0.1,0.1-0.1,0.1
		c0,0-0.1,0-0.1,0c0,0,0,0-0.1,0c-1.6,0.7-3.9,2.4-5.9,4.4c-0.9,1-1.7,2-2.4,3.1c0.5-2,1-2.8,1.4-3.7c0.1-0.2,0.2-0.3,0.4-0.5
		c0.1-0.1,0.1-0.2,0-0.3c0-0.1-0.1-0.1-0.2-0.1c0,0,0,0,0,0c0,0-0.1-0.1-0.1-0.1c0,0-0.1,0-0.1,0c-0.1,0-0.1-0.1-0.1,0
		c0,0,0,0.1-0.1,0.1c-8.8,0.8-14.1,4.1-17.2,7.8c-2.1,2.5-3.1,5.1-3.6,7.3c0.4-5.6,3.8-10.9,8.6-12.9c2.8-1.1,6.5-1.6,9.9-2.2
		c3.3-0.6,6.2-1.3,7.6-2.9c4-1.4,6.9-5.1,8.9-9.1c2-4,3.2-8.2,3.6-10.5c1.7-9.6,0-19.7,5.3-27.6c2.6-4,7-7.4,14.6-10
		s18.2-4.3,33.2-4.9c12.2-0.4,19.6-2,24.7-3.9c5.1-1.9,7.9-4.1,10.9-5.9c1.7-1,4.6-3.5,7.6-5.5c1.5-1,3.1-2,4.5-2.6
		C333.7,26.7,334.3,26.6,334.8,26.5L334.8,26.5z M217.1,28c-0.5,1.1-1.1,2.3-1.8,3.3c-0.5,0.7-1.1,1.4-1.4,1.8
		c-0.2,0.2-0.4,0.4-0.5,0.5c0,0,0,0,0,0.1c0,0,0,0,0,0c0,0,0,0,0,0c0,0,0,0,0,0c0,0-0.1,0.1-0.1,0.1c-2.2,0.3-4.3,0.6-6,1.3
		c-0.2,0.1-0.4,0.3-0.6,0.4c-1.3-0.4-2.5-0.7-3.7-1c0,0,0,0,0,0c0-0.1,0.2-0.3,0.6-0.5c0.3-0.2,0.9-0.4,1.5-0.6
		c1.2-0.4,2.9-0.7,4.6-1.2C212.3,31.3,215.3,30.2,217.1,28L217.1,28z M338.4,28.1c0.3,0,0.5,0.1,0.7,0.3c0.3,0.2,0.4,0.6,0.4,1
		c-0.1,0.4-0.3,0.8-0.6,1.3c0-0.3,0.1-0.6,0-0.9c-0.3-0.5-0.8-0.8-1.4-0.9c0.1-0.2,0.2-0.5,0.3-0.7C338,28.1,338.2,28,338.4,28.1
		L338.4,28.1z M225.1,30.9c-1.1,5.7-4.1,9.3-7.1,11.5c-1.6,1.2-3.2,2.1-4.3,2.8c-0.6,0.3-1.1,0.6-1.4,0.9c-0.2,0.1-0.3,0.3-0.4,0.4
		c-0.1,0.1-0.2,0.3-0.2,0.5c0,0.2,0.1,0.3,0.3,0.3c0.5,0,1.8,0,3,0c0.5,0,0.7,0,1.1,0c1.5,3.1,2,7.4,1.9,12.3
		c-0.1,5.3-1,11.3-2.1,17c-1.2,5.8-2.6,12.1-2.6,17.7c0,2.8,0.4,5.3,1.3,7.5c0.8,1.7,2,3.2,3.6,4.3c-0.3,0.5-0.8,0.9-1.7,1.2
		c-1,0.4-2.3,0.7-3.7,0.9c-2.9,0.5-6.2,0.7-8.6,1.5c-1.6,0.5-5.3,2.3-8,5.7c-2.3,2.8-3.9,6.7-3.2,11.5c0,0.1-0.1,0.2,0,0.3
		c0.1,0.1,0.1,0.3,0.2,0.4c0.1,0.7,0.2,1.4,0.4,2.2v0c0,0.2,0.2,0.3,0.4,0.2c0.2,0,0.3-0.2,0.2-0.4c0,0,0,0,0,0c0,0,0-0.1,0-0.1
		c-0.1-0.2-0.1-0.5-0.1-0.7c0.6,0.3,1.4,0.5,2.3,0.5c-1.2,2.6-2,5.7-2.5,8.9c-0.6-0.9-1.5-1.7-2.6-2.5c0.1-0.4,0.2-0.7,0.2-1.1
		c0-1.8-1.2-4-3.9-6.5c0.2-0.3,0.4-0.6,0.5-1c0.5-1.6,0.2-3.7-1.4-6.5c1-1.7,1-4.1-0.4-7.9c0,0,0,0-0.1,0c0.1-0.1,0.3-0.2,0.4-0.4
		c1.2-1.5,1.5-3.8,0.5-7.3c0,0,0,0,0,0c0.2-0.2,0.5-0.4,0.7-0.6c1.2-1.4,1.6-3.5,1.1-6.9c0.4-0.2,0.8-0.5,1.2-0.9
		c1.1-1.2,1.5-3.3,1.3-6.5c0.8-0.3,1.5-0.6,2.1-1.2c1.1-1.1,1.5-2.9,1.2-5.6c0.5-0.2,1.1-0.5,1.5-1c1-1.1,1.5-2.9,1.3-5.5
		c0.4-0.2,0.7-0.3,1-0.6c0.6-0.7,0.8-1.7,0.8-3.2c0-1.2-0.2-3.1-0.3-5.1c0.5-0.7,0.8-1.5,1-2.6c0.2-1.6,0-3.6-0.6-6.1
		c0.8-2,1.3-4.2,1.1-6.9c0.6,0.2,1.2,0.3,2.1,0.2c1-0.2,2.1-0.7,3.5-1.7c0,0,0.1,0,0.1-0.1c0,0,0,0,0.1,0c0.1-0.1,0.2-0.3,0.1-0.4
		c-0.1-0.1-0.3-0.2-0.4-0.1c0,0,0,0,0,0c-0.3,0.2-0.7,0.4-0.9,0.6c-0.3,0.2-0.5,0.2-0.6,0.1c-1.4-0.5-1.7,0.1-5.7-3.2
		c-0.1-0.1-0.1-0.1-0.2-0.1c-0.1,0-0.2,0.1-0.3,0.1c-0.1,0.1-0.1,0.2,0,0.3c0,0,0.1,0.1,0.1,0.1c0,0,0,0,0,0
		c0.4,0.8,1.1,1.6,1.8,2.2c0.3,0.2,0.5,0.3,0.7,0.5c-0.9-0.2-1.6-0.5-2.2-0.8c-0.1-0.1-0.3,0-0.4,0.1c-0.1,0.1-0.1,0.2-0.1,0.4
		c1.7,4,0.5,8.9-2.5,12c-2.9,3.1-7.5,4.7-12.6,2.2c-0.1-0.1-0.2-0.2-0.3-0.2c-0.1,0-0.1,0.1-0.2,0.1c0,0,0,0,0,0
		c-0.7,1.2-1.3,2.2-2.5,3.4c-0.8,0.7-1.9,1.5-3.4,2.3c0.6-0.6,1.1-1.2,1.3-1.7c0.6-1.2,0.6-2.3,0.5-3.7c0-0.1-0.1-0.3-0.2-0.3
		c-0.1,0-0.3,0-0.4,0.2c-0.9,1.7-3.7,4.1-8.2,5.8c1.9-1.6,3.1-3.3,3.2-5c0-0.1-0.1-0.3-0.2-0.3c-0.1-0.1-0.3,0-0.4,0.1
		c-2.5,2.2-6.9,2.9-11.1,3.2c0.9-0.4,1.8-1.1,2.7-2c1.6-1.8,2.9-4.5,3.7-8c3,1.7,5.7,2.3,8,2.2c2.6-0.2,4.7-1.2,6.2-2.1
		c0,0.6-0.1,1.2-0.1,2c0,0.2,0.1,0.3,0.3,0.3c0.1,0,0.3-0.1,0.4-0.2c1.4-3.3,2.1-5.4,1.9-7.2c-0.2-1.7-1.3-3.1-3.2-4.8
		c-0.1-0.1-0.2-0.1-0.3-0.1c-0.1,0-0.2,0.1-0.3,0.3c0,0.4-0.1,0.8-0.1,1.2c-3.9-0.2-8.1-3.9-16.5,2.5c-0.2-3.7,0-6.1,1-8.1
		c0.4,0.1,0.8,0,1.2,0c0.8-0.1,1.5-0.6,2.1-1.5c0.5-0.8,0.8-2,0.9-3.5c5.1,0.2,10.8,1.2,17.1,3c0,0,0,0,0.1,0c0.1,0,0.3-0.1,0.4-0.2
		c0,0,0-0.1,0-0.1c0,0,0,0,0,0c0.1-0.1,0-0.3-0.2-0.4c0,0,0,0,0,0c0,0,0,0,0,0c-1-0.4-1.8-0.9-2.5-1.3c-0.4-0.4-0.8-0.8-1-1.2
		c-0.3-1,0.1-2.1,1.6-3c2.8-1.7,9.5-2.4,20.4,1.3c-0.4,0.5-0.8,1.1-1,1.8c0,0.1,0,0.3,0.1,0.4c0.1,0.1,0.3,0.1,0.4,0
		c3.1-3.1,7.4-3.5,11.6-4.2C219,34.7,222.6,33.9,225.1,30.9L225.1,30.9z M221.9,35.8c-0.1,0-0.1,0-0.2,0.1c-2.7,2.2-5.1,2.8-7.7,3.3
		c-2.2,0.3-3.2,1.2-3.8,1.5c-0.1,0.1-0.3,0.2-0.3,0.2c-0.1,0-0.1,0-0.2,0c-0.2-0.1-0.5-0.3-1-0.9c-0.1-0.1-0.2-0.1-0.4-0.1
		c-0.1,0.1-0.2,0.2-0.2,0.3c0,0,0,0.1,0.1,0.2c0,0,0,0,0,0c0.1,0.5,0.4,1.2,0.9,2c0.2,0.4,0.5,0.8,0.7,1.1c0.2,0.3,0.4,0.6,0.6,0.7
		c0.1,0,0.2,0.1,0.3,0c0.1,0,0.2-0.1,0.2-0.2c0.9-1.8,1.6-2.9,2.2-3.5c0.6-0.6,1.1-0.7,1.5-0.6c0.4,0.1,0.7,0.3,1.1,0.6
		c0.2,0.1,0.3,0.3,0.5,0.4c0.2,0.1,0.4,0.2,0.6,0.2c0.1,0,0.2-0.1,0.2-0.1c1-1.4,2.9-2.9,5.2-4.7c0.1-0.1,0.2-0.2,0.1-0.4
		C222.2,35.9,222.1,35.8,221.9,35.8L221.9,35.8z M136.2,36.7c3.7,5.2,8.6,10.1,15.6,13.8c-2.9,0.3-5-0.3-6.9-1.5
		c-2.3-1.5-4.1-4-5.8-6.6c0,0,0,0,0,0c-0.1-0.1-0.2-0.2-0.3-0.1c-0.1,0-0.2,0.1-0.2,0.2c0,0.1-0.1,0.2,0,0.3c0,0,0,0,0,0
		c2.3,5,4.2,7.2,5.4,8.9c1.1,1.5,1.5,2.5,1.3,4.7c-2.8-2.1-5-5.7-6.5-9.6C137.3,42.8,136.5,39.1,136.2,36.7L136.2,36.7z M324.7,37.1
		c-1.8,2.6-3.6,5.6-4.9,9.1c-2.6,7.1-3.2,15.8,1.9,23.3c-11.3-4.3-28.3-6.8-44-8.3c-8.7-0.8-16.9-1.3-23.4-1.6
		c-5.8-0.2-9.6-0.2-11.8-0.1c1-1.8,3.4-3.4,6.8-4.8c3.8-1.6,8.7-2.9,13.5-3.9c9.8-2.1,19.8-3.1,21.9-3.2c15.6-0.5,26.5-3.7,33.9-7.1
		C321,39.2,323,38.1,324.7,37.1L324.7,37.1z M185.6,38.2c-0.5,0-1.1,0-1.8,0.2c-0.2,0-0.2,0.2-0.2,0.3c0,0.5,0.3,0.9,0.6,1.1
		c0.3,0.3,0.7,0.4,1,0.7c0.8,0.5,1.6,1.1,2.3,2.9c0.1,0.1,0.2,0.2,0.3,0.2c0.1,0,0.2-0.1,0.3-0.2c0.1-0.3,0.2-0.5,0.2-0.6
		c0,0,0,0,0.1-0.1c0.1,0.1,0.2,0.2,0.4,0.4c0.1,0.1,0.3,0.3,0.5,0.3c0.2,0.1,0.5,0,0.7,0c2.5-0.8,4.2-1.2,5.4-1.3
		c1.2-0.1,1.8,0.1,2.4,0.6c0.1,0.1,0.3,0.1,0.4,0c0.1-0.1,0.1-0.3,0.1-0.4c0,0,0,0-0.1-0.1c-1.2-1.8-2.5-2.5-3.8-2.6
		c-1.3-0.2-2.6,0.1-4.1-0.1c-1.5-0.2-2.3-0.7-3.2-1C186.5,38.4,186.1,38.2,185.6,38.2L185.6,38.2z M185.9,39.2
		c0.7,0.1,2.3,0.7,2.8,0.7c-0.4,1.4,0.4,1.9,1,2.3C187.8,42.4,186,39.4,185.9,39.2L185.9,39.2z M166.2,39.2c0.1,0.6,0.1,1.6-0.2,2.4
		c-0.2,0.5-0.4,0.8-0.9,1c-0.4,0.2-1.1,0.1-2-0.3c0,0,0,0,0,0c-0.6-0.3-2.5-1.2-4.5-1.8c-0.5-0.1-0.9-0.1-1.4-0.2
		C159.8,39.6,162.8,39.2,166.2,39.2L166.2,39.2z M193,40.1c1-0.1,1.8,0.5,0.9,1c-0.9,0.5-2.6,1.3-3.5,1c0.9,0,1.2-1.1,0.8-1.9
		C190.8,40.1,192,40.2,193,40.1z M197.5,43.4c-1.7,0-2.8,0-3.6,0.3c-0.8,0.2-1.4,0.6-2,1c-0.1,0.1-0.2,0.2-0.1,0.3
		c0,0.1,0.1,0.2,0.3,0.2c0.6,0.1,0.9,0.2,1.1,0.3c0.1,0,0.1,0.1,0.1,0.1c0,0.1,0.1,0.2,0.2,0.3c0,0.1,0.2,0.2,0.3,0.2
		c0.1,0,0.2-0.1,0.3-0.2c0.4-0.9,0.8-1.3,1.3-1.6c0.5-0.2,1.2-0.3,2.1-0.3c0.1,0,0.1,0,0.2,0v0c0,0,0,0,0,0c0.1,0,0.2-0.2,0.2-0.3
		C197.8,43.6,197.6,43.4,197.5,43.4C197.5,43.4,197.5,43.4,197.5,43.4C197.5,43.4,197.5,43.4,197.5,43.4L197.5,43.4z M377.8,45.8
		c-12.1,13.9-15,28.9-15.7,33.5c-1.6-2.8-3.6-5.8-2.3-9.7v0c2.9-7,3.9-8.1,11.6-18.1c0,0,0,0,0,0c0.1-0.1,0.1-0.3,0-0.4
		c-0.1-0.1-0.3-0.1-0.4,0c0,0,0,0,0,0c0,0,0,0,0,0c0,0-0.1,0.1-0.1,0.1c0,0,0,0,0,0c-8.3,6.9-12,11.6-15.3,14.7
		c-3,2.9-5.7,4.5-11.2,5.3C354.3,62.7,359,55,377.8,45.8L377.8,45.8z M219,47c0.1,0,0.1,0,0.2,0c0.8,0.3,1.8,0.8,2.8,1.6
		c1.6,1.3,3.1,3.6,3.8,7.1c-0.6-0.9-1.4-1.5-2.2-1.9c-1.4-0.5-2.8-0.5-3.7-0.5c-0.1-0.7-0.1-1.6-0.2-2.3c1.1-0.1,2.2-0.1,3.3,1.1
		c0.1,0.1,0.3,0.1,0.4,0c0.1-0.1,0.1-0.3,0-0.4c0,0,0,0,0,0c-1.4-1.9-2.8-2.8-4.1-2.9C219.2,48.3,219.1,47.6,219,47L219,47z
		 M144.7,50.2c0.2,0.1,0.5,0.2,0.7,0.3c3.6,2.6,6.7,4.2,9.6,4.7c3.1,0.5,6.1,0,9.4-1.2h0c0.7-0.3,2.1-0.6,3.7-0.9
		c1.6-0.3,3.6-0.4,5.5-0.4c1.9,0,3.8,0.1,5.3,0.5c1,0.3,1.8,0.7,2.4,1.1c-3-0.6-5.8-0.8-9.3-0.7c-0.1,0-0.2,0-0.2,0.1
		c-0.1,0.1-0.2,0.2-0.2,0.4c0,0.1,0.1,0.3,0.2,0.3s0.2,0.1,0.2,0.1c0.3,0,0.5,0,0.9-0.1c0.8-0.1,2-0.3,3.2-0.2
		c1.2,0.1,1.8,0.1,4.5,1c0.2,0.2,0.3,0.4,0.4,0.7c-0.1,0-0.2-0.1-0.4-0.1c-0.3-0.1-0.7-0.2-1.3-0.3c-1.1-0.2-2.5-0.5-4.2-0.7
		c-3.3-0.4-7.4-0.5-10.6,0.5h0c-2.8,1.1-6.5,1.7-10.1,1.1c-3.4-0.6-6.7-2.2-9.3-5.4C145.1,50.9,144.9,50.5,144.7,50.2L144.7,50.2z
		 M366.7,55.9c-6.5,7.8-9.9,14.5-11.7,19.1c-1.1,2.8-1.6,4.9-2,6.1c-0.2,0.5-0.4,0.8-0.5,0.9c-0.8-0.7-1.7-1.3-2.6-1.9
		c0-0.3,0-0.6,0.2-1.1c0.2-0.7,0.6-1.6,1.1-2.6c1-2,2.5-4.5,4.5-7.3C358.7,65,362.4,60.3,366.7,55.9L366.7,55.9z M220.1,60.1
		c2,1.4,4,3,5.1,5.4c0.9,1.9,1.2,4.3,0.5,7.5c-0.2-1.5-0.8-2.8-1.8-3.6c-0.8-0.7-1.8-1.1-2.9-1.1c-0.7,0-1.4,0.2-2,0.6
		c0.2-1.2,0.4-2.4,0.5-3.4c0.3-0.1,0.7-0.1,1.2,0.1c0.6,0.2,1.2,0.6,1.8,1c0.6,0.4,1.2,0.9,1.6,1.5c0.4,0.5,0.6,1,0.7,1.4
		c0,0.2,0.1,0.3,0.3,0.3c0.2,0,0.3-0.1,0.3-0.3c0-0.5-0.2-0.9-0.6-1.4c-0.1-0.2-0.1-0.3-0.2-0.5c-0.4-0.7-1-1.4-1.7-2
		c-0.6-0.6-1.3-1.2-1.9-1.6c-0.5-0.3-0.9-0.5-1.2-0.6C219.9,62,220,61,220.1,60.1L220.1,60.1z M197.5,61.3c0.7,1.7,0.8,3,0.6,4
		c-0.3,1.1-1,2-2,2.6c-1.7,1.2-4.3,1.7-6.6,2.1c-0.2-0.1-0.7-0.1-0.8-0.2c-0.1-0.1-0.2-0.2-0.2-0.2c0-0.1,0-0.1,0-0.2
		c0,0,0-0.1,0.1-0.1c0.1-0.1,0.1-0.2,0.3-0.4c0.4-0.3,0.9-0.7,1.5-1.1c1.2-0.8,2.7-1.8,4.2-3.2C195.7,63.7,196.6,62.6,197.5,61.3
		L197.5,61.3z M239.7,62.5c24,0.9,30.3,2.6,46.2,4.4c11,1.3,21,4.2,28.3,6c0.1,0,0.1,0,0.1,0c-7.1,1.8-10.3,6.2-11.3,10.6
		c-0.6,2.6-0.4,5.1,0,7.1c0.1,0.7,0.4,1.2,0.6,1.7c-8.5-5.2-21.8-11.3-34.5-16.6c-7-2.9-13.7-5.5-19.1-7.4
		c-4.7-1.7-8.2-2.8-10.5-3.3C239.3,64.2,239.3,63.2,239.7,62.5z M237.9,68.3c0.3,0,0.6,0.1,1.2,0.3c0.8,0.2,1.7,0.6,2.9,1
		c2.3,0.8,5.2,2,8.5,3.3c6.5,2.6,14.2,5.9,20.2,8.4c6.6,2.7,15.8,8.2,23.3,12.4c0.4,0.2,0.7,0.4,1,0.6c-0.4,0-0.7-0.1-1-0.1
		c-2.5,0.1-5.5,0.6-8.5,1.7c-5.7,2.1-11.3,6.6-13.3,14.7c-0.2-0.3-0.3-0.6-0.6-0.9c-3.3-4.6-9.2-11.7-17.3-22
		c-5-6.4-9.9-11-13.1-14.3c-1.6-1.7-2.7-3-3.2-3.9C237.9,68.9,237.8,68.6,237.9,68.3L237.9,68.3z M197,69c0.4,2,0.4,3.4,0.1,4.4
		c-0.3,1-0.8,1.6-1.7,2c-1.2,0.6-3.3,0.6-5.5,0.7c-0.8-0.1-1.3-0.4-1.6-0.8c-0.3-0.4-0.4-0.9-0.3-1.5c0.1-1.1,0.9-2.5,1.6-3.1h0
		c0.2,0,0.3,0,0.7,0c0.1,0,0.1-0.1,0.1-0.1C193.1,70.5,195.4,70.1,197,69L197,69z M325.7,73.3c0,0.1,0.1,0.1,0.1,0.1
		c0.2,0.4,0.2,0.8,0,1.4c-0.2,0.5-0.6,1-1,1.4c0,0,0,0-0.1,0c0.2-0.3,0.4-0.7,0.5-1c0.1-0.4,0-0.9-0.1-1.3c0.1,0,0.2-0.1,0.2-0.1
		C325.4,73.7,325.5,73.5,325.7,73.3z M236.9,73.9c0.2,0.1,0.2,0.1,0.4,0.2c1,0.8,2.4,2.4,4.1,4.4c3.3,4.1,7.7,10,12,15.3
		c4.4,5.5,7.9,11.9,11.1,16.6c0.5,0.8,1,1.4,1.4,2c-1.5-0.4-3.1-0.8-5-0.8c-1,0-2,0.1-3.1,0.2c-4,0.7-8.1,2.9-11.3,7.8
		c-0.7-4-2.1-9-3.8-14.7c-2.5-8.3-4-11.5-5-13.5c-1-2-1.6-2.8-2.3-6.6c0,0,0,0,0,0c-0.1-1.6,0.2-4.7,0.6-7.3
		c0.2-1.3,0.5-2.5,0.7-3.3C236.8,74.1,236.9,74,236.9,73.9L236.9,73.9z M218,75c0.4,0.6,1,1.2,1.7,1.8c1,0.9,2.3,1.8,3.2,3
		c0.9,1.2,1.6,2.6,1.5,4.5c0,1.4-0.7,3.2-1.8,5.3c0.1-1,0.1-1.9-0.2-2.6c-0.5-1.2-1.6-2.1-2.6-2.7c-1.1-0.6-2.2-1-3-1.3
		c-0.2-0.1-0.3-0.1-0.4-0.2c0.2-0.8,0.5-1.4,0.9-1.7c0.5-0.4,1.1-0.3,1.8-0.1c0.7,0.2,1.4,0.7,2,1.2c0.6,0.5,1,1.1,1.1,1.3
		c0.1,0.2,0.2,0.2,0.4,0.2c0.2-0.1,0.2-0.2,0.2-0.4c0,0,0,0,0,0c0,0,0,0,0,0c-0.9-2.4-2.6-3.1-3.7-3.9c-0.6-0.4-1-0.8-1.1-1.5
		C217.7,77.1,217.8,76.2,218,75L218,75z M142,75.6c2.3-0.1,4.1,0.9,5,2.5c-0.3,0.2-0.5,0.2-1,0.3c-0.2-0.9-1.7-1.9-3-2.1
		c-0.1-0.1-0.2-0.1-0.3,0c-0.1,0.1-0.2,0.2-0.2,0.3c0,0.1,0.1,0.2,0.2,0.3c0.9,0.5,2,0.8,1.6,1.7c-0.5,0-0.8,0-1.1,0
		c0-0.9-1.9-1.7-3.7-2.4C140.4,75.8,141.2,75.7,142,75.6L142,75.6z M195.3,76.8c0.2,2.4-0.3,3.7-1.1,4.5c-0.8,0.8-2.1,1-3.4,1
		c-1.4,0-2.8-0.3-4.1-0.5c0-0.1-0.1-0.1-0.1-0.1h0c-0.4,0-0.6-0.1-0.8-0.2c-0.2-0.1-0.2-0.3-0.2-0.5c0-0.4,0.3-1.1,0.7-1.8
		c0.5-0.7,1.1-1.3,1.7-1.7c0.5-0.4,1-0.5,1.3-0.5c2.1,0,4.2,0,5.4,0C194.9,76.9,195.1,76.8,195.3,76.8L195.3,76.8z M339,78.5
		c9.4,0,21.2,9.6,21.2,23.3c0,9.5-5.5,25.4-25.8,32.3c-5.7-11.2-16.5-21.2-30.4-25.9c-0.1,0-0.1,0-0.2,0c-0.1,0-0.3,0.2-0.3,0.3
		c0,0.1,0.1,0.3,0.2,0.3c15.2,5.2,25.3,17,30.3,29.5c1.3,3.3,4.6,7.8,7.9,10.9c3.3,3.1,7.1,5.1,10.7,5.1c2.5,0.1,5.3,1.5,6.5,4.7
		c0.9,2.6,0.9,5.8-1.5,9.4c0.4-1.6,0.1-2.9-0.5-3.8c-0.9-1.4-2.8-2-4-2c-2.2,0.1-3.4,1.1-6.4,2.6c-0.2,0.1-0.2,0.3-0.1,0.4
		c0,0.1,1.1,0.2,2.2,0.2c0.1,1.7,2.8,19.9,3.2,22.5c2,12.6,10.7,6.5,12.2,6.7c2.9,0.4,3.5,1.2,4.4,2.2c-1,0.1-1.8,3-1.3,4.9
		c-3.5,2.6-7.1-1.3-9.7-1.4c-3,0.1-6.3,2.2-9.7,3.2c-3.2,1-4.7,1.8-8.7,0c0.6-0.2,1.4-0.4,1.4-0.4c0.1,0,0.2,0,0.2,0
		c0.1,0,0.1,0,0.1,0c0.1,0,0.2-0.1,0.3-0.2c0.1-0.1,0-0.2-0.1-0.3c-0.1-0.1-0.2-0.1-0.3-0.1c0,0,0,0-0.1,0h-0.2c-0.2,0-0.4,0-0.7,0
		c-0.5,0-1.2,0-2,0c-1.5,0-3.1,0-3.7,0c-1.7,0-4.1,0.5-6.2,1.6c-2,1.1-3.6,2.5-5.5,2.5c-1.1,0-2.2-0.2-3.1-0.9
		c0.5-1.7,0.4-4-0.9-5.9l-0.3,0c2.2-0.3,3-1.4,4.4-1.5c1.7,0,1.7,3.4,10.6-2.3c0.1-0.1,0.2-0.2,0.2-0.3c0-0.1-0.1-0.2-0.2-0.3
		c-0.1-0.1-0.2,0-0.3,0c-7.8,3.6-5.4,0.9-9.4,1.1c-3.8,0.2-3.9,1.4-6.2,1.4c-1.2,0-2.6-0.6-2.9-1.2c0.9-0.2,1.2-3.2,0.8-4.7
		c0-0.1,0.1-0.1,0.1-0.2c0-0.1,0-0.3-0.1-0.4c0.5-0.6,1.9-0.9,3.1-0.9c1.1,0,2.6,1.1,4.4,1.8c1.7,0.7,3.3-0.6,5.4,0.8
		c0.2,0.1,0.3,0,0.4-0.1c0.1-0.2,0-0.3-0.1-0.4c-0.7-0.4-2.3-2.1-4.1-2.8c-1.1-0.5-2.4-0.8-3.6-1c-0.8-0.8-2.3-2.1-2.1-2.3
		c0.4-0.3,0.8-0.6,1.2-1.1c0.4-0.4,0.7-1,0.8-1.5c0.1-0.4,0-0.5-0.2-0.8c0-0.1,0.1-0.2,0.1-0.4c0.5-0.5,0.7-0.8,1.4-0.8
		c1,0.1,1.6,0.5,2.5,1.3c0.9,0.8,1.8,2.1,2.6,3.6c1.2,2.2,2.9,3.4,4.6,4.6c-0.5,0.4-1.2,1-1.2,1c-0.1,0-0.1,0-0.3,0
		c-0.2,0.1-0.2,0.3-0.2,0.4c0.1,0.2,0.2,0.2,0.4,0.2c0,0,0.1,0,0.2,0c0.2,0,0.4,0.1,0.7,0.2c0.6,0.1,1.4,0.3,2.2,0.4
		c0.8,0.1,1.7,0.2,2.5,0c0.8-0.1,1.5-0.5,1.9-1.2c2.6-4.8,2.4-11.9,0.9-18.2c-1.5-6.3-6-14.8-6.2-14.9c-0.2-2.1-5.4-8.4-6.5-7
		c0-0.2,0.1-0.5,0-0.7c-0.1-0.4-0.3-0.9-0.6-1.3c-0.6-0.9-1.4-1.8-2.3-2.6c-0.9-0.8-1.8-1.4-2.7-1.5c-0.4-0.1-0.9,0-1.2,0.2
		c-0.1,0.1-0.1,0.2-0.2,0.3c-0.1-0.5-0.4-0.9-0.7-1.4c-0.6-0.9-1.5-1.8-2.5-2.5c-1-0.7-2-1.3-2.8-1.4c-0.4-0.1-0.9-0.1-1.2,0.1
		c0,0,0,0.1-0.1,0.1c-0.1-0.4-0.3-0.7-0.6-1.1c-0.6-0.9-1.6-1.8-2.6-2.5c-1.1-0.7-2.2-1.2-3.3-1.2c-0.6,0-1.2,0.3-1.6,0.7
		c0-0.7-0.2-1.4-0.6-2.1c-0.7-1.2-1.7-2.3-2.9-3.1c-1.2-0.8-2.5-1.3-3.6-1.2c-0.6,0-1.1,0.2-1.4,0.6l0,0c-0.1-0.7-0.4-1.4-0.9-2
		c-0.8-1-2.1-1.7-3.4-2.2c-1.3-0.4-2.6-0.6-3.6-0.4c-0.5,0.1-1,0.3-1.3,0.6c-0.1,0.1-0.1,0.2-0.2,0.3c0-0.1,0-0.1-0.1-0.2
		c-0.3-0.4-0.7-0.7-1.2-1c-1-0.6-2.4-1.1-3.7-1.3c-0.7-0.1-1.4-0.1-2-0.1c-0.6,0.1-1.2,0.2-1.7,0.4c-0.6,0.3-1,0.9-1.2,1.7
		c-0.3-0.6-0.8-1-1.5-1.3c-1.1-0.4-2.5-0.4-3.8-0.2c-1.3,0.2-2.6,0.7-3.4,1.4c-0.2,0.2-0.4,0.4-0.5,0.7c-0.2-0.1-0.3-0.3-0.5-0.4
		c-0.9-0.4-2.3-0.6-3.6-0.5c-1.3,0.1-2.7,0.4-3.6,1.1c-0.5,0.3-0.8,0.8-0.9,1.3c0,0,0,0.1,0,0.1c-0.3-0.2-0.6-0.4-1-0.4
		c-1.2-0.2-2.8-0.1-4.2,0.3c-1.4,0.4-2.8,1-3.5,2c-0.3,0.4-0.5,0.9-0.4,1.5c-0.2-0.1-0.4-0.2-0.7-0.3c-1.2-0.2-2.7,0.1-4.1,0.6
		c-1.3,0.5-2.5,1.2-3.1,2.1c-0.2,0.3-0.3,0.7-0.4,1c-0.4-0.2-0.8-0.3-1.2-0.4c-1.3-0.1-2.7,0.3-3.9,0.9s-2.3,1.4-2.8,2.4
		c-0.1,0.2-0.2,0.5-0.2,0.7c-0.5-0.1-0.9-0.1-1.4,0c-0.4,0.1,0.4-1.4,1.1-2.8c0.5-0.7,0.9-1.3,1.5-2c0.2,0,0.3-0.2,0.2-0.4
		c0-0.2-0.2-0.3-0.4-0.2c0,0-0.1,0-0.1,0c-3.1,1.5-5.6,5.2-7.4,9.5c-1.8,4.3-2.9,9.2-2.8,13v0c0.4,3.7,1.8,5.5,2.6,7.2
		c0.8,1.7,1.2,3.3-0.3,7c0,0,0,0,0,0c-0.9,1.9-1.1,2.4-3.6,3.6c2.8-5.9-6.1-9.4-16-3.8c-0.1,0-0.2,0.2-0.2,0.3
		c0,0.1,0.1,0.2,0.2,0.3c0.1,0.1,0.2,0.1,0.3,0c0.7-0.1,1.2-0.2,1.8-0.3c1.3,2.4-4,7.5-7.3,12.2c-1.7,2.5-6.4,8.9-6.4,11.9
		s0.7,4.5,3.1,4.4c0.6,0,1.8,0.1,3.1-0.2c1.4-0.3,3.4-1.1,4.6-1.1c1.2,0,2,0.1,3.2,1.1c-0.3,0.1-2.8,4.5-1.2,6.2
		c-0.1,0.3-1.3,0.5-1.6,0.5c-0.7,0-2.6-0.8-3.6-1.1c-2.1-0.7-3.1-1.3-5.3-1.2c-2.3,0-5.7,1-8.2,1.8c-2.5,0.9-4.7,1.5-10.1,1.7
		c-0.7,0-1.5-0.1-2.1-0.3c0.9-1.4,1.5-1.8,1.5-1.8c0.1,0,0.1,0,0.1,0c0.1,0,0.2-0.1,0.3-0.2c0.1-0.1,0-0.2-0.1-0.3
		c-0.1-0.1-0.2-0.1-0.3-0.1c0,0,0,0-0.1,0c0,0-0.1,0-0.2,0c-0.2,0-0.4,0-0.7,0c-0.5,0-5.7,0.9-7.7,2.1c-2,1.1-3.2,3.7-5.1,3.7
		c-1.1,0-1.5,0-2.4-0.7c0.9-4.3-2.2-5.5-0.8-6.6c1.4,0.2,6.8,0.9,11.8-2.3c0.1-0.1,0.2-0.2,0.2-0.3c0-0.1-0.1-0.2-0.2-0.3
		c-0.1-0.1-0.2,0-0.3,0c-2.8,1.8-4.9-1.5-7.1-1.3c-3.8,0.3-3,1-5.3,1c-1.2,0-2.6-0.6-2.9-1.2c0.8-1.7,2.1-4,1.4-5.3
		c0.5-0.6,1.2-0.7,2.4-0.7c1.1,0,1.7,1,3.4,1.8c6.2,3.2,4.3,0.7,9.1,2.4c0.2,0.1,0.3,0,0.4-0.1s0.2-0.8-0.4-0.9
		c-5.3-0.8-6.8-2.9-8-4.1c-0.4-0.4-1.3-0.6-2.2-0.8c-2.6-2.4-2.6-4.5-2.3-4.6c0.4-0.3,1.8-2.1,1.5-2.6c0.6-0.7,1-0.4,1.7-0.5
		c2.6,0.1,5.3,4,4.6,5.5c0,0.1,2.3,2.2,3.7,3.9c1.1,1.4,3.4,4.1,6.5,3.6c0,0.1,0.1,0.2,0.2,0.2c0.1,0,0.2,0,0.3-0.1
		c5.8-5.2,9.9-13.6,12.7-21.1c1.4-3.7,2.4-7.2,3.1-10c0.7-2.8,1-4.7,1-5.5c0-4.2-1-10.9-0.9-17.3c0.1-5.9,1.1-11.6,4.5-15.2
		c0.8-0.2,1.7-0.4,2.5-0.7c2.1-0.8,4.2-2.1,5.9-4c0.1,0.5,0.2,1,0.3,1.6c0.4,1.3,1,2.6,1.8,3.9c1.7,2.6,4.2,5,7.6,5.5h0
		c0,0,0.1,0,0.1,0c0.2,0.1,0.4,0,0.4-0.2c0,0,0,0,0-0.1c0,0,0,0,0,0c0-0.1,0-0.3-0.2-0.3c0,0-0.1,0-0.1,0c-0.4-0.1-0.7-0.3-0.9-0.5
		c-0.2-0.3-0.3-0.7-0.3-1.2c0-1,0.3-2.3,0.8-3.7c0.4-1.1,0.9-2.1,1.4-3.1c1,2.1,2.4,4.3,4.7,5.8c2.7,1.7,6.4,2.2,11.2,0.1
		c0,0,0,0,0,0c0,0,0.1,0,0.1,0c0.1,0,0.1-0.1,0.1-0.2c0,0,0.1,0,0.1-0.1c0,0,0-0.1,0-0.1c0,0,0,0,0,0c0-0.1,0-0.2-0.1-0.3
		c-3.6-1.7-4.6-3.8-4.7-5.9c-0.1-1.1,0.2-2.2,0.5-3.1c1.9,2.2,4.2,3.9,6.2,4.6c1.1,0.4,2.2,0.6,3,0.4c0.4-0.1,0.8-0.3,1-0.6
		c0.1,0.4,0.3,0.8,0.5,1.1c0.2,0.3,0.6,0.5,0.9,0.6c0,0.7-0.1,1.2-0.4,1.5c-0.4,0.4-0.9,0.5-1.5,0.4h0h0h0h0l0,0h0c0,0,0,0,0,0
		c0,0-0.1,0.1-0.1,0.1c0,0,0,0,0,0l0,0c0,0.1,0,0.1,0,0.2v0c0,0,0,0,0,0v0l0,0c0,0.1,0.1,0.1,0.2,0.1c0,0,0,0,0,0
		c0.2,0.3,0.5,0.5,0.8,0.6c0.1,0,0.2,0.1,0.3,0.1c0.1,0,0.2,0.1,0.4,0.1c0.1,0,0.2-0.1,0.3-0.1c0.2,0,0.4,0.1,0.5,0
		c1-0.1,2-0.7,2.8-1.4c0.9-0.7,1.6-1.5,1.9-2.5c0.4-0.9,0.4-2-0.3-2.8c0,0-0.1,0-0.1,0c0.1-0.7,0.1-1.5,0.1-2.5c0.3-1,1-2.2,2.2-3.4
		c1.3-1.3,3.1-2.7,5.1-3.7c3.9-1.9,9-2.4,14.3,0.4c0.1,0.1,0.2,0.2,0.3,0.3c0.4,0.4,0.9,0.6,1.3,0.8c0.1,0.8,0,1.3-0.4,1.6
		c-0.4,0.3-1,0.4-1.5,0.3c0,0-0.1,0-0.1,0c0,0-0.1,0-0.1,0c-0.1,0-0.1,0-0.2,0.1c0,0-0.1,0.1-0.1,0.1v0c0,0.1,0,0.1,0,0.2v0l0,0v0h0
		c0,0.1,0.1,0.1,0.1,0.1c0.2,0.3,0.5,0.5,0.8,0.7c0.1,0.1,0.2,0.1,0.4,0.2c0.2,0.1,0.3,0.1,0.5,0.1c0.2,0,0.3,0.1,0.5,0.1
		c0.9,0,1.8-0.3,2.6-0.7c0.8-0.5,1.5-1.1,1.8-1.9c0.2-0.5,0.2-1,0-1.6c0.2-0.4,0.2-0.9,0-1.4c-0.1-0.4-0.4-1-0.7-1.5
		c0-0.7,0.1-1.3,0.1-2c1.1-3.3,2.8-5.3,5-6.4c2.5-1.3,5.6-1.7,9.2-1.6c12,0.2,20.3,2.9,26.8,5.5s11.4,5.3,16.7,5.2
		c5-0.1,9.5-1.3,12.9-3.8c3.4-2.5,5.5-6.5,5.5-11.7c0-2-0.6-3.6-1.5-5.2c-1.6-2.9-4.2-5.1-6.9-6.1c-1-0.4-2.1-0.6-3.1-0.6
		c-1,0-2,0.2-2.9,0.6c-1.8,0.9-2.9,2.8-2.9,5.4c0,2.8,2.4,4.9,5,4.9c2.6,0,5.4-2,6.7-6.4c1,0.9,1.8,1.9,2.5,3.1
		c-0.6,4.2-2.5,6.7-4.9,8.3c-2.4,1.6-5.2,2.2-7.3,2.3c-5.5,0.3-11.7-5.3-11.6-13.2C323.5,84.5,329.6,78.5,339,78.5L339,78.5z
		 M148.3,79.1c2.9,2.7,0.1,4.7,0.5,7.7c2,12.5,7.3,14,8.2,19.4c2.9,18.1,11,26.7,11.5,27.3c0.3,0.4,0.6,0.8,1,1
		c-0.2,1.4,0.2,3.6,0.9,5.7c0.7,2,1.8,3.8,3.4,4.5v0c0.1,1.6,0.7,3.6,1.6,5.3c1,1.7,2.3,3.1,3.9,3.5c0.6,0.6,1,0.9,1.5,1.4
		c1.3,3-7.6,6.2-11.4,7.3c-1.4,3.9-5.9,7-9.3,7c-2.5-0.1-2.7-0.5-4.3-1.3c5.5-1,7.6-0.8,7.3-13.6c0-0.3,0-0.5,0-0.7
		c0-0.1,0-0.1,0-0.2c0,0,0,0,0-0.1c0,0,0,0,0-0.1c0-0.1-0.2-0.2-0.3-0.2c-0.1,0-0.2,0.1-0.2,0.1c-0.1,0.1-0.1,0.2,0,0.3v0v0
		c-2.6,7.9-10-22.6-11.5-33.6c-0.4-2.6,2.4-8.2,2.1-11.3c0.1-0.1-0.6-0.2-0.7-0.1c-0.2,1.3-0.8,2.8-1.4,4.3c0,0,0,0,0,0
		c-0.2,0.1-0.4,0.3-0.6,0.5c-0.5,0.4-1,1-1.5,1.8c-1,1.6-2.2,2.5-0.8,6.3c0.5,1.4-2,4-3,4.5c0.1-2.3-3.7-3-4.3-2.6
		c-0.3-2.5,0.8-5.7,2.5-7.1c1.9-1.9,3.5-8.2,2.3-11.1c-0.1-0.3-0.4-0.5-0.7-0.4c-0.2,0-0.3,0.2-0.4,0.3c-0.1,0.2-0.1,0.3,0,0.5
		c0.2,0.4,0.3,0.9,0.4,1.5c0,0,0,0,0,0c-0.9,0.7-3-3.3-1.2-4.6c0.3,0,0.7,0.2,0.9,0.1c0.3-0.1,0.6-0.4,0.5-0.8
		c-0.1-0.3-0.4-0.6-0.8-0.5c-1.1,0.2-4.7-1-6.9-2.3c-6.3,2.1-7.5,1.8-9.3-0.3c1.1-1.4,0.2-3.7,0.1-3.9c1.2-1,2.3-1.2,3.6-0.9
		c0.7,0.1,2.6,0.7,3.7,1.8c2.2-0.8,5.9,1,6.4,2.6c0.1,0.2,0.2,0.3,0.4,0.4c0,0,0.1,0.2,0.1,0.2c0.2,0.1,0.5,0,0.7-0.2
		c0.2-0.2,0.2-0.4,0.1-0.7c-0.4-1.5-2.3-9.1-7.8-9.1h0c0,0-2.8-0.6-2.9-3.7c1-0.4,3.4-2.1,3.2-4.1c0,0,0.1,0,0.1,0
		c2.7,0.8,4,3.6,4,5c1.1,0.8,4.9,1.8,5.9,11.9c0,0.2,0.1,0.5,0.3,0.6c0.2,0.1,0.5,0.1,0.7-0.1c0.2-0.2,0.3-0.4,0.2-0.7
		c-0.2-2.5-0.7-4.4-1.2-6.1c0.1-2.8-0.5-4.7-2.5-7.2c0,0,0-0.1-0.1-0.1c-1-1.7-1.1-3.4,0.1-4.7C145.4,80.2,148.2,79.2,148.3,79.1
		L148.3,79.1z M131.9,81c0.8,0,1.5,0.1,2.2,0.2c0.1,0.2,0,1,0,1.5c-0.1,0.1-0.2,0.2-0.3,0.3c-1.3-0.2-3.9-1.4-4.9-0.1
		c-0.1,0.1-0.3,0.2-0.2,0.3c0,0.1,0.2,0.2,0.3,0.2c0.2,0,0.3,0,0.5-0.1c1.1-0.3,2.8,0,3.2,0.7c-0.2,0.1-0.4,0.2-0.5,0.3
		c-1.2-0.3-2.9-0.5-4.7,0.5C127.4,81.9,129.6,81,131.9,81L131.9,81z M184.4,82.9c0.7,0,1.7,0.1,2.9,0.3c1.4,0.2,3,0.5,4.5,0.4
		c0.3,0,0.5-0.1,0.8-0.2c0.5,2.4,0.1,3.9-0.7,4.6c-0.9,0.8-2.4,1-4.1,1c-1.7-0.1-3.5-0.4-5.1-0.6c-0.3,0-0.5,0-0.7,0
		c-0.2,0-0.5-0.1-0.6-0.2c-0.2-0.1-0.3-0.3-0.3-0.5c-0.1-0.4,0-1,0.4-1.7C182,84.8,183.3,83.5,184.4,82.9L184.4,82.9z M180.4,89.4
		c0.8,0,1.6,0.1,2.8,0.3c1.7,0.2,3.6,0.5,5.3,0.5c0.3,0,0.5-0.1,0.8-0.1c0.4,3-0.1,4.5-1.1,5.3c-1,0.8-2.5,0.9-4.3,0.8
		c-1.8-0.1-3.7-0.5-5.5-0.5c-0.4,0-0.8,0.1-1.2,0.1c0,0-0.1,0-0.1,0c-0.1,0-0.2,0-0.3,0c-0.1-0.1-0.3-0.2-0.3-0.4
		c-0.1-0.4,0-1.2,0.4-2.1C177.7,91.8,179.1,90.3,180.4,89.4L180.4,89.4z M215.2,90.8c2.2,0.4,4.1,1.5,5.2,3.2
		c1.1,1.6,1.5,3.6,0.8,5.9c-0.2-0.6-0.4-1.2-0.8-1.5c-0.6-0.5-1.3-0.7-2-0.6c-1.1,0.1-2.2,0.5-2.8,0.8c-0.1-0.3-0.2-0.5-0.2-0.8
		c-0.1-0.6-0.1-1.3-0.2-2c0.3-0.1,0.9-0.2,1.5-0.1c1.3,0.1,2.9,0.6,3.7,1.2c0.1,0.1,0.3,0.1,0.4,0c0.1-0.1,0.1-0.3,0-0.4
		c-1.8-1.6-3.2-2-4.2-2.2c-0.5-0.1-0.9-0.2-1.2-0.4c-0.1-0.1-0.2-0.3-0.3-0.5C215.1,92.5,215.2,91.7,215.2,90.8L215.2,90.8z
		 M233.3,93.5c0.1,0,0.4,0.1,0.6,0.4c0.3,0.3,0.6,0.8,0.9,1.4c0.6,1.2,1.2,2.9,1.8,4.7c1.1,3.6,2,7.8,2.3,9.8
		c1.1,7.1,1.2,11.7,1.4,14.5c0,0.3,0.1,0.5,0.1,0.7c-0.5,0.3-1,0.4-1.8,0.3c-0.9-0.1-1.9-0.6-2.9-1.2c-2-1.2-3.9-3.1-4.7-4.7
		c0-0.1,0-0.1,0-0.2c-0.1-0.1-0.2-0.1-0.3-0.1h0c0,0,0,0,0,0c-0.2,0-0.3,0.1-0.3,0.3c0,0.1,0,0.1,0,0.2c-1.5,1.7-2.2,3.3-2.4,4.7
		c-0.2,1.5,0.3,2.8,1,3.8c0.7,1,1.8,1.9,2.8,2.4c0.6,0.3,1,0.4,1.4,0.5c-1.9,0.3-4.3,0.6-6.6-0.1c-2.7-0.8-5.2-3-6.4-8.5
		c0,0,0,0,0,0c0-0.1,0.1-0.1,0-0.2c-0.1-0.1-0.2-0.2-0.3-0.2c-0.1,0-0.1,0-0.2,0.1c0,0,0,0,0,0c-2.4,1.9-3.9,4.8-4.5,7.4
		c-0.3,1.3-0.3,2.5,0.1,3.5c0,0.1,0.1,0.1,0.1,0.2c-2.4-1.4-4-3.2-4.8-5.2c-1-2.4-1.1-5.2-0.7-8c0.1-0.1,0.1-0.2,0.2-0.2
		c0,0,0.1-0.1,0.1-0.1c0,0,0.1-0.1,0.1-0.1c0,0,0,0,0,0c0,0,0,0,0.1-0.1c0,0,0,0,0-0.1c0,0,0,0,0,0v-0.1l-0.1-0.1l-0.1-0.1l-0.1,0
		l-0.1,0c0,0,0,0-0.1,0c-0.1,0-0.1,0-0.1,0c0,0,0,0,0,0c-0.1,0-0.2,0.1-0.2,0.2c-1,1.6-3.4,4.2-6.5,5.9c-2.7,1.5-5.9,2.3-8.9,1.4
		c1.8-6.1,5.2-9.9,8.7-12c3.4-2,7-2.5,9.6-2.3c0,0,0,0,0,0c-0.4,1.5-0.6,3.5-0.7,5.8v0v0c0,0.2,0.1,0.3,0.3,0.3
		c0.2,0,0.3-0.1,0.3-0.3v0c0,0,0.1,0,0.1,0c0.4-1.8,1.8-4.2,3.4-5.9c0.8-0.8,1.8-1.5,2.6-1.9c0.7-0.3,1.3-0.3,1.8-0.2
		c-0.1,0.6-0.2,1-0.2,1.7c-0.1,2.7-0.1,5.8-0.1,8.1v0.1c0,0.2,0.1,0.3,0.3,0.3h0c0,0,0,0,0,0c0.1,0,0.1-0.1,0.2-0.1
		c0.1,0,0.1,0,0.2-0.1c0,0,0,0,0,0c0,0,0,0,0,0c0,0,0,0,0-0.1c1.1-4.7,2.2-8.7,3.3-11.2c0.6-1.3,1.1-2.2,1.6-2.6
		c0.2-0.2,0.4-0.3,0.6-0.3c0.1,0,0.3,0.1,0.4,0.2c0,0,0,0,0,0.1c0.1,0.2,0.1,0.5,0.2,0.9c0.1,0.8,0.3,1.8,0.4,3
		c0.2,2.4,0.4,5.3,0.6,7.2c0,0,0,0,0,0c0,0.2,0.1,0.3,0.3,0.3s0.3-0.1,0.3-0.3c0,0,0,0,0,0c0.3-6.2,1.5-12.7,2.8-17.6
		c0.6-2.4,1.3-4.5,1.7-5.9C233.2,93.9,233.3,93.8,233.3,93.5L233.3,93.5z M127.4,95.3c0.1,0.3,0.2,0.4,0.3,1
		c-0.8,0.1-1.7,0.3-2.4,1.1c-0.1,0.1-0.1,0.2-0.1,0.3c0,0.1,0.1,0.2,0.2,0.2c0.1,0,0.2,0,0.3-0.1c0.5-0.6,1.4-0.6,2-0.5
		c0,0.5-0.2,1-0.4,1.5c-0.8-0.1-1.8-0.2-2.7,1.1C123.9,96.7,126.1,95.6,127.4,95.3L127.4,95.3z M177,97c0.8-0.1,1.7,0,2.7,0
		c1.8,0.2,3.8,0.6,5.6,0.6c0.6,0,1.1-0.1,1.6-0.2c0.4,3.1-0.2,4.9-1.3,5.9c-1.1,1-2.9,1.3-4.9,1.3c-2,0-4.1-0.2-6-0.2
		c-0.9,0-1.7,0.1-2.4,0.4c-0.2-0.1-0.4-0.2-0.4-0.5c-0.1-0.6,0.2-1.9,0.9-3.1c0.7-1.3,1.6-2.6,2.6-3.5c0.2-0.2,0.5-0.3,0.7-0.5
		C176.5,97.2,176.7,97.1,177,97L177,97z M305.8,99.2c0.2,0,0.5,0.2,0.7,0.2c-0.1,0.3-0.3,0.7-0.5,1c-0.1,0.1-0.1,0.1-0.2,0.1
		c0.1-0.3,0.2-0.6,0.1-0.8C305.9,99.5,305.8,99.3,305.8,99.2z M185.2,105.5c0.8,3,0.5,4.7-0.6,5.7c-1.1,1.1-3,1.6-5.1,1.9
		c-2.2,0.3-4.5,0.4-6.5,0.8c-0.8,0.2-1.6,0.5-2.2,0.9c-0.1-0.1-0.3-0.2-0.4-0.4c-0.3-0.7-0.4-1.8-0.2-3.1c0.2-1.2,0.5-2.6,1-3.6
		c0.2-0.5,0.5-1,0.7-1.3c0.1-0.1,0.2-0.1,0.3-0.2c1.2-0.3,2.5-0.5,4.1-0.4c2.1,0,4.3,0.2,6.3,0.1C183.4,106,184.3,105.8,185.2,105.5
		L185.2,105.5z M183.8,113.6c0.8,1.4,1.3,2.6,1.4,3.5c0.1,1,0,1.6-0.4,2.2c-0.8,1.1-2.6,1.6-4.8,2c-2.2,0.4-4.7,0.6-6.8,1.1
		c-1.1,0.3-2.2,0.7-3,1.3c-0.2-0.1-0.3-0.2-0.4-0.4c-0.3-0.6-0.4-1.6-0.2-2.8c0.1-1.1,0.5-2.4,0.9-3.3c0.2-0.5,0.4-0.9,0.7-1.2
		c0.1-0.2,0.2-0.2,0.4-0.3c0.7-0.3,1.5-0.5,2.5-0.7c2.1-0.4,4.6-0.4,6.8-0.8C181.9,114.3,182.9,114,183.8,113.6L183.8,113.6z
		 M272.8,117.5c0,1-0.7,1.8-1.6,2.1c-0.5,0.2-0.9,0.2-1.4,0.1c-0.1,0-0.1,0-0.2-0.1c-0.1,0-0.2-0.1-0.3-0.2c0.9,0,1.7-0.2,2.2-0.7
		c0.3-0.3,0.5-0.7,0.7-1.1c0,0,0,0,0-0.1C272.4,117.6,272.6,117.5,272.8,117.5L272.8,117.5z M184.5,121.9c0.8,0.9,1.3,1.8,1.4,2.5
		c0.2,0.8,0.1,1.4-0.2,2c-0.6,1.2-2.1,2.1-4,3c-1.9,0.8-4.2,1.6-6.3,2.4c-1.2,0.4-2.2,0.9-3.2,1.4c-1.1-0.2-1.8-0.8-2.3-1.7
		c-0.5-0.9-0.7-2-0.6-3.1c0-1.1,0.3-2.2,0.7-2.9c0.1-0.1,0.1-0.1,0.2-0.2c1-0.6,2.3-1,3.8-1.2c2.2-0.4,4.7-0.4,6.9-0.8
		C182.3,122.9,183.5,122.5,184.5,121.9z M141.3,125c0.3,0.1,0.7,0.3,1.1,0.4c-0.4,0.7-1.1,1.7-2,1.6c-0.1,0-0.2,0-0.3,0.1
		c-0.1,0.1-0.1,0.3,0,0.4c0.1,0.1,0.2,0.2,0.3,0.1c1.2,0,2.3-1,3-1.8c0.4,0.2,0.8,0.5,1.1,0.8c-1.2,1.1-3.8,2.8-6.5,0.3
		C139.7,127.2,140.8,125.9,141.3,125L141.3,125z M244.9,128c0,1.1-0.7,2.1-1.6,2.6c-0.4,0.3-1.2,0.3-1.1,0.3c0.5-0.2,0.9-0.6,1.2-1
		c0.3-0.4,0.5-0.8,0.6-1.2c0-0.2,0-0.2,0.1-0.4C244.3,128.3,244.6,128.1,244.9,128L244.9,128z M280.2,128.2c2.2-0.1,4.2,1,4.8,2.4
		c0,0.1,0,0.2,0,0.3c0,0.4-0.1,0.9-0.1,1.5c-0.1,1.2-0.2,2.8-0.3,4.4c-0.2,2.9-0.3,5.2-0.4,5.8c-2.8,2.1-5.2,0.1-5.9-1.6
		c-0.1-0.6-0.5-2.7-1-5.5c-0.3-1.5-0.6-3.1-0.8-4.2c-0.1-0.5-0.2-0.8-0.2-1.2C277.3,128.9,278.8,128.3,280.2,128.2L280.2,128.2z
		 M271.5,128.8c1.2,0,2.3,0.5,3.1,1.6c0.1,0.3,0.1,0.8,0.2,1.3c0.2,1.2,0.5,2.7,0.8,4.2c0.5,2.8,0.9,5.2,1,5.6
		c-0.8,1.4-5,2.4-6.5,0.3c0,0,0-0.1,0-0.1l-2.8-11.3C268,129.7,269.8,128.8,271.5,128.8L271.5,128.8z M185.4,129.4
		c1.5,0.9,2.6,1.8,3.2,2.6c0.6,0.8,0.9,1.5,0.9,2.2c-0.1,1.3-1.3,2.6-3.1,3.8c-1.8,1.2-4.2,2.3-6.4,3.3c-1.1,0.5-2.1,1-3,1.5
		c-1.1,0.2-2-0.1-2.8-0.7c-0.9-0.7-1.6-1.7-2-2.9c-0.5-1.1-0.7-2.4-0.7-3.4c0-0.7,0.2-1.2,0.4-1.6c3.9-1.7,8.6-2.5,12-4
		C184.4,130.1,184.9,129.7,185.4,129.4L185.4,129.4z M262.6,129.9c1.1-0.1,2.2,0.2,3.3,1l2.7,10.8c-0.8,2-4.1,2.7-5.5,1.9l-4.1-11.2
		C258.8,131.4,260.5,130.1,262.6,129.9z M288.3,130.1c2.3,0.1,5.6,2.4,5.6,4.4l-2.8,11c-0.5,1.4-4.6,0.8-5.4-2.1c0,0,0,0,0,0
		c0,0,0.2-3.2,0.4-6.4c0.1-1.6,0.2-3.2,0.3-4.5c0-0.6,0.1-1.1,0.1-1.5c0-0.1,0-0.1,0-0.2C286.9,130.3,287.6,130.1,288.3,130.1
		L288.3,130.1z M255.9,132.2c0.6,0,1.1,0.2,1.5,0.4l4.2,11.6c-0.5,1.4-5.4,4.1-6.8,2.6l-4.2-11.6
		C250.8,133.7,253.7,132.2,255.9,132.2z M297.2,134.5c2.3,0,5,2.1,5,5.2l-4.4,10.9c-1.6,0.6-5.3-0.9-5.4-3.8l3-11.7
		C295.9,134.8,296.5,134.5,297.2,134.5L297.2,134.5z M247.2,135.3c0.7,0,1.3,0.2,2,0.6l4.1,11.3c-0.5,2.2-4.7,4.7-6.4,2.8l-4.8-11
		c0,0,0-0.2,0.1-0.2C242.3,138,244.7,135.3,247.2,135.3z M190.1,137.1c2.3,1.4,3.1,2.9,3.1,4.5c-0.1,1.5-1.1,3.2-2.7,4.7
		c-2.4,2.4-5.8,4.3-8.6,5.6c-0.6,0-1.4-0.2-2.1-0.8c-0.9-0.6-1.7-1.5-2.4-2.5c-0.7-1-1.1-2-1.3-2.8c-0.1-0.4-0.1-0.8,0-1.1
		c0.1-0.2,0.2-0.4,0.4-0.5c3.9-1.8,8.7-3.3,11.8-5.5C189,138.3,189.6,137.7,190.1,137.1L190.1,137.1z M239.1,139.1
		c0.6-0.1,1.2,0,1.7,0.2l5,11.4c0.1,3-5.8,5.8-7.2,4.5l-4.5-12.5C234.1,141.6,236.8,139.5,239.1,139.1z M305.3,140.1
		c2.2,0.1,5.2,1.5,5.1,3.5l-4.3,11.5c-2.2,1.7-6.8-2.2-6.9-3.8l4.4-10.8C303.9,140.3,304.5,140.1,305.3,140.1L305.3,140.1z
		 M230.5,142.4c0.7-0.2,1.5,0,2.4,0.8l4.5,12.5c-0.1,1.3-5.1,4.8-7.7,3.3c-0.6-1.4-2.8-6.5-3.3-9.9c0.3-1.1,0.6-2.2,1-3.1
		c0.4-0.9,0.8-1.5,1.2-2.3C229.1,143.3,229.7,142.7,230.5,142.4L230.5,142.4z M277.6,144.1C277.6,144.1,277.6,144.1,277.6,144.1
		c0.2,1,5.7,2.1,6.3,2c-0.4,1.2,3.1,3.5,5.1,4.2c0.5,0.7,0.5,2.1,0.5,2.9c-0.2,2,0.4,4.5,3.3,6.4c1.9,1.2,8.1,3.4,8.1,8.4
		c0,3.6-2.9,5.1-4.2,5.9c1.1-2.2-0.1-4.4-2.5-4.8c-1.7-0.3-5.9-0.5-9.6-0.2c-0.4,0-0.6,0.3-0.6,0.7s0.3,0.6,0.7,0.6
		c1.6,0.3,2.4,0.2,2.2,1.7c0,0,0,0.1,0,0.1c-5.8,4.6-18.3,16.3-18.6,20.8c-0.1,1.3,1.2,2.6,2.9,2.5c0.1,0,6.1-2.9,8.6-0.7
		c-1.4,1.4-0.3,4.6-0.4,4.8c-3.2,2.3-7-1-13.2-1c-6.2-0.1-11.3,4-15.3,4.1c-0.5,0-0.8-0.1-1.1-0.2c0.4-0.5,0.6-1,0.7-1
		c0.1,0,0.4-0.2,0.5-0.2c0.1,0,0.2-0.1,0.3-0.2c0-0.1,0-0.2-0.1-0.3c-0.1-0.1-0.2-0.1-0.3-0.1c0,0,0,0-0.1,0c-0.1,0-0.1,0-0.2,0
		c-0.2,0-2.8,0.7-3.5,0.7c-1.5,0-4.7,1.1-6.8,2.2c-1.4,0.6-4,3.6-8.1,2.7c0.5-1.7-0.2-4-1.5-5.8c0.2,0,0.6-0.6,0.9-1.1
		c6-1,5.4,2.1,6.8-0.2c0.9-1.5,1.4,2.4,8.9-3.8c0.1-0.1,0.2-0.2,0.2-0.3c0-0.1-0.1-0.2-0.2-0.3c-0.1-0.1-0.2-0.1-0.3,0
		c-9,3.7-6.3,1.1-10.3,1.3c-3.8,0.2-2.8,1.1-5.1,1c-1.2,0-2.5-1.1-2.8-1.6c1-0.2,1-3.3,0.3-4.6c0.5-0.6,1.9-0.9,3.2-0.9
		c3.4,0,4.7,3.1,8.3,3.5c2.6,0,4.9-2.1,7.1-0.7c0.2,0.1,0.4,0,0.4-0.1c0.1-0.1,0-0.3-0.1-0.4c15.6,0.5,27.2-33.6,24.7-37.3
		c0-0.1,0-0.2-0.1-0.3c0,0-0.1,0-0.1,0c-0.3-1-0.9-2.4-2.6-3c0,0,0-0.1,0-0.1c-0.4-0.5-1.2-3.5-4.4-3.9c0.2-0.8,0.3-1.4,0.3-1.8
		c1.6-0.4,3.4-1,3.7-1.5C270.5,145.4,277.8,145.2,277.6,144.1L277.6,144.1z M312.8,144.6c2.1,0,4.9,1.8,5.2,3.5l-3.5,9.2
		c-1.6,1.9-5.6,0.5-6.2,0c-0.4-0.4-0.6-1.1-0.6-1.8l3.7-10.3C311.7,144.8,312.2,144.6,312.8,144.6z M192.8,145.7
		c0,0.5-0.1,1-0.1,1.4c-0.2,2.8-0.2,5.3-0.2,7.7c0,0,0,0,0,0v0c-0.5,1.7-1.2,2.7-2,3.3c-0.8,0.5-1.7,0.6-2.7,0.3
		c-1.9-0.6-3.9-2.7-5.4-5.4c3.8-1.3,7.7-3.7,10-6.6C192.6,146.1,192.6,145.9,192.8,145.7z M263.7,146.3c-0.3,4.2-7.1,9.2-9.7,9.1
		c0,0,0,0,0,0c-0.5-0.4-1.1-0.7-1.5-1.2C251.6,152.6,261.6,146.9,263.7,146.3L263.7,146.3z M290.9,148.9c0,0,0.1,0.1,0.1,0.1
		c-0.1,0-0.1,0-0.2,0.1C290.8,149,290.8,149,290.9,148.9z M265.7,149.2c2.6,0.2,3.6,3.4,2.7,3.8c0.1,0.2-2.4,5.9-5.3,7.4
		c-1,0.5-2.3,0.2-3.1,0.1c-1.5-0.6-3.1-2.1-3.6-3.6c0.7-1.4,4.6-2.6,7.9-7.7C264.9,149.2,265.4,149.1,265.7,149.2L265.7,149.2z
		 M319.2,149.3c1.8-0.4,5.5,1.6,5.7,4.4l-2.1,5.8c-1.3,0.9-7.1,1-7.1-1.2l3.3-8.8C319.1,149.4,319.2,149.3,319.2,149.3z
		 M225.8,153.8c1.1-0.6,2.3,4,2.8,5.5l0,0c0,0.3-2,5.8-3.4-2.1c0-0.5,0.2-1.9,0.4-3.1C225.7,154,225.8,153.8,225.8,153.8z
		 M270.1,154.3c0.3,0.4,1.2,0.5,1.5,1.9c-0.3,2.2-0.9,4.9-1.9,7.8c-1.4,0.5-3.7-0.3-5.1-1.1c-0.3-0.4-0.5-0.7-0.3-1.3
		c3.1-2.1,4.6-5.8,5.2-7.1C269.7,154.3,270,154.1,270.1,154.3z M325.9,155.2c1.2-0.2,4.5,2.3,4.9,5.4l0.1,0.2
		c-0.6,1.9-5.3,1.5-6.6-0.9L325.9,155.2z M192.3,157.5c0,1.3-0.1,2.3-0.2,3.2c-0.4-0.3-0.6-0.8-0.8-1.2c0,0,0.1,0,0.1-0.1
		C191.7,158.9,192,158.3,192.3,157.5L192.3,157.5z M236.4,181.6c0.9,0,1.2,0.2,2,1c0.9,0.8,1.5,2.3,3,3.8c1.4,1.4,5.3,3.5,7.6,4.1
		c-0.8,0.3-1.6,0.4-2.5,0.6c-2.2-0.7-4.7,0.9-8.3-2.1c-0.5-0.4-1.8-0.7-3.1-0.9c-0.7-0.6-2.8-2.1-2.5-2.3c1-1.5,2-3.1,1.8-3.5
		C234.8,181.7,235.5,181.6,236.4,181.6L236.4,181.6z M230.7,182c0.9-0.2,1.9,0.1,2.7,0.5c-0.1,0.2-0.2,0.4-0.3,0.6
		c-0.6-0.4-1.4-0.7-2.8-0.4c-0.1,0-0.2,0.1-0.3,0.2c0,0.1,0,0.2,0.1,0.3s0.2,0.1,0.4,0c1.1-0.3,1.7,0.2,2.2,0.6
		c-0.1,0.2-0.2,0.4-0.3,0.6c-0.7-0.5-3.2-2.1-3.8,0.4C228.6,183.1,229.6,182.3,230.7,182z M317.7,183.3c1,0.1,1.7,0.5,2.2,0.8
		c0,0.2,0.2,0.3,0.1,0.5c0,0.1-0.1,0.1-0.1,0.2c-0.8-0.5-2.2-1.1-3.8-0.7c-0.1,0-0.2,0.1-0.3,0.2c0,0.1,0,0.2,0.1,0.3
		c0.1,0.1,0.2,0.1,0.4,0.1c1.4-0.3,2.2,0.8,2.9,1.3c-0.3,0.3-0.6,0.6-0.9,0.7c-0.5-0.4-3-2.6-5,0.3
		C314.6,183.8,316.2,183.1,317.7,183.3L317.7,183.3z M159.2,183.6c1-0.2,1.7,0.6,2.1,1.1c0,0.1-0.1,0.2-0.1,0.2c0.1,0.1,0,0.2,0,0.4
		c-0.6-0.3-1.4-0.5-2.8-0.1c-0.1,0-0.2,0.1-0.3,0.2c0,0.1,0,0.2,0.1,0.3c0.1,0.1,0.2,0.1,0.4,0.1c1.2-0.3,1.6,0.1,2.1,0.6
		c-0.2,0.3-0.5,0.6-0.7,0.7c-0.8-0.5-2.7-1.6-3.6,0C157.4,184.7,158.3,183.8,159.2,183.6L159.2,183.6z M231.5,185.5
		C231.5,185.5,231.5,185.6,231.5,185.5C231.5,185.6,231.5,185.6,231.5,185.5C231.5,185.6,231.5,185.5,231.5,185.5z M227.1,190.4
		c0.1,0,0.1,0,0.1,0c0.2,0.1,0.5,0.2,0.6,0.3c0.1,0.1,0.2,0.4,0.3,0.6c-0.9-0.1-2,0-3,0.8c-0.1,0.1-0.2,0.2-0.1,0.3
		c0,0.1,0.1,0.2,0.2,0.3c0.1,0,0.2,0,0.3-0.1c1-0.8,2-0.2,2.8,0.1c0,0.3-0.1,0.6-0.2,1c-0.8-0.6-2.6-1.7-4.2,0.1
		C223.8,190.8,225.9,190.4,227.1,190.4L227.1,190.4z M313.9,193.2c0.3,0,0.3,0,0.5,0.1c0.1,0.4,0.1,0.8,0,1.2
		c-0.9-0.1-2.1-0.1-3.1,0.8c-0.1,0.1-0.2,0.2-0.1,0.3c0,0.1,0.1,0.2,0.2,0.3c0.1,0,0.3,0,0.3-0.1c0.8-0.7,1.6-0.3,2.4,0
		c-0.1,0.2-0.1,0.4-0.2,0.6c-0.9-0.3-3.4-1-3.8,2.4C308.2,193.6,311.9,193.1,313.9,193.2L313.9,193.2z M281.2,195.3c0,0,0,0.1,0,0.1
		c2.3,0.1,6.6,3,1.4,6.2c1.7-2.2-1.5-3-1.9-3.1c0-0.1,0-0.2,0-0.2c0.8,0,1.5-0.4,2.9,1c0.1,0.1,0.1,0.2,0.3,0.2c0.1,0,0.2,0,0.3-0.1
		c0.1-0.1,0.1-0.2,0-0.3c-0.6-1.4-2.5-2.1-3.4-2.3C280.8,196.3,281,195.8,281.2,195.3L281.2,195.3z M156.7,195.8
		c0.1,0.3,0.1,0.7,0,1.2c-0.9-0.1-2.2-0.1-3.2,0.7c-0.1,0.1-0.2,0.2-0.2,0.3c0,0.1,0.1,0.2,0.2,0.3c0.1,0,0.2,0,0.3-0.1
		c0.8-0.7,1.7-0.3,2.4,0c-0.2,0.4-0.3,0.8-0.5,1.1c-0.8-0.4-2.3-0.9-3.7,0.4C152.5,196,155.2,195.7,156.7,195.8L156.7,195.8z
		 M368.9,198.3c1,0.3,6.7,2.5,2,6.9c1.2-3.4-2.1-3.8-2.7-3.8c0-0.1,0-0.3,0-0.5c0.9,0.1,2,0.1,2.5,1.2c0,0.1,0.1,0.2,0.3,0.2
		c0.1,0,0.2,0,0.3-0.1c0.1-0.1,0.1-0.2,0-0.3c-0.6-1.4-1.9-2-2.8-2.3C368.5,199.1,368.6,198.6,368.9,198.3L368.9,198.3z
		 M318.1,201.3c0.2,0.3,0.3,0.7,0.5,1.2c-0.9,0.2-2.3,0.8-3,2.3c-0.1,0.1-0.1,0.2,0,0.3c0.1,0.1,0.2,0.2,0.3,0.1
		c0.1,0,0.2-0.1,0.3-0.2c0.5-1.2,1.8-1.1,2.7-1.2c0,0.2,0,0.3,0,0.5c-0.7,0.1-4.1,0.5-2.9,3.8C310.9,203.7,317.6,201.5,318.1,201.3
		L318.1,201.3z M230.4,201.6c0.1,0.2,0.3,0.4,0.4,0.8c-0.9,0.3-2,0.9-2.6,2.2c-0.1,0.1-0.1,0.2,0,0.3c0.1,0.1,0.2,0.2,0.3,0.1
		c0.1,0,0.2-0.1,0.3-0.2c0.5-1.1,1.6-1.1,2.5-1.2c0.1,0.5,0.1,1,0.1,1.4c-1-0.2-3.4,0.1-4.1,2C225.2,204.9,227.9,202.2,230.4,201.6z
		 M208.6,202.4c2.3,0.5,6.6,2.5,1.9,6.8c1.6-2.4-1.7-3.1-2.6-3.2c-0.1-0.2-0.1-0.5-0.1-0.8c0.9,0.1,2.4,0.1,2.9,1.2
		c0,0.1,0.1,0.2,0.3,0.2c0.1,0,0.2,0,0.3-0.1c0.1-0.1,0.1-0.2,0-0.3c-0.6-1.4-2.3-2.2-3.3-2.5C208.1,203.1,208.3,202.7,208.6,202.4
		L208.6,202.4z M159.2,207.3L159.2,207.3c0.2,0.4,0.5,0.6,0.6,1c-0.8,0.3-1.8,0.9-2.3,2.1c-0.1,0.1,0,0.2,0,0.3
		c0.1,0.1,0.2,0.2,0.3,0.1c0.1,0,0.2-0.1,0.3-0.2c0.4-0.9,1.2-1,2-1.1c0.1,0.5,0.1,0.9,0,1.4c-1.1,0-3,0.1-2,2.9
		C155.2,210.1,157.5,207.4,159.2,207.3L159.2,207.3z"/>
</g>
</svg>
