<svg xmlns="http://www.w3.org/2000/svg" xmlns:xlink="http://www.w3.org/1999/xlink" viewBox="0 0 119.5 99.5"><defs><linearGradient id="a" x1="31.93" y1="51.68" x2="102.3" y2="-18.7" gradientTransform="matrix(1, 0, 0, -1, -0.2, 84)" gradientUnits="userSpaceOnUse"><stop offset="0" stop-color="#4c9cff"/><stop offset="1" stop-color="#36f"/></linearGradient></defs><title>logo-gradient</title><path d="M94.6,40.9A4.9,4.9,0,0,1,89.7,45h-.9C81.6,43.6,75.6,40.5,69,34.7L55.3,48.3a40.9,40.9,0,0,1,9.5,26.3,5,5,0,0,1-10,0A31.2,31.2,0,0,0,45,51.8c-1.2-1.1-7.2-7.2-7.2-7.2a5,5,0,0,1,0-7.1h0L58.2,17.1a5,5,0,0,1,7.1,0h0l7,7C78.9,30.7,84,33.8,90.5,35A5.3,5.3,0,0,1,94.6,40.9ZM69.6,10a10,10,0,1,1,10,10,9.8,9.8,0,0,1-10-9.7h0ZM24.8,49.6a25,25,0,0,0-2,49.9V91L11.9,80.1a2,2,0,0,1,0-2.7h0a2,2,0,0,1,2.7,0l8.3,8.3V77.9l-7.4-7.4a2,2,0,0,1,.1-2.7,2,2,0,0,1,2.5,0l4.8,4.8V61.8a1.9,1.9,0,0,1,1.8-1.9,2,2,0,0,1,1.9,1.6V72.6l4.8-4.8a2,2,0,0,1,2.7.1,2,2,0,0,1,0,2.5l-7.4,7.4v7.8L35,77.3a2,2,0,0,1,2.7,0,1.9,1.9,0,0,1,0,2.7h0L26.6,91v8.5A25,25,0,0,0,49.7,72.7h0A25.2,25.2,0,0,0,24.8,49.6Zm70,0a25,25,0,0,0-1.9,49.9V91L82,80.1a1.9,1.9,0,1,1,2.6-2.8h.1L93,85.7V77.9l-7.4-7.4a2,2,0,0,1,0-2.7,1.9,1.9,0,0,1,2.7,0h0l4.8,4.8V61.8a1.9,1.9,0,0,1,3.7-.5V72.6l4.8-4.8a2,2,0,0,1,2.7,0,1.9,1.9,0,0,1,0,2.7h0l-7.4,7.4v7.8l8.3-8.3A1.9,1.9,0,1,1,108,80h-.1L96.7,91v8.5a25,25,0,0,0-1.9-49.9Z" transform="translate(0)" fill="url(#a)"/></svg>