<svg xmlns="http://www.w3.org/2000/svg" xmlns:xlink="http://www.w3.org/1999/xlink" viewBox="0 0 192 192"><defs><style>.a{fill:none;}.b{fill:url(#a);}.c{fill:url(#b);}.d{fill:#fff;}</style><linearGradient id="a" x1="28.12" y1="28.12" x2="163.88" y2="163.88" gradientUnits="userSpaceOnUse"><stop offset="0" stop-color="#4c9cff"/><stop offset="1" stop-color="#36f"/></linearGradient><linearGradient id="b" x1="96" y1="192" x2="96" y2="144.3" gradientUnits="userSpaceOnUse"><stop offset="0" stop-color="#fff" stop-opacity="0.4"/><stop offset="1" stop-color="#fff" stop-opacity="0.1"/></linearGradient></defs><title>splash-logo</title><rect class="a" width="192" height="192"/><circle class="b" cx="96" cy="96" r="96"/><path class="c" d="M96,192a95.82,95.82,0,0,0,74.44-35.38A228.1,228.1,0,0,0,96,144.3a228.1,228.1,0,0,0-74.44,12.32A95.82,95.82,0,0,0,96,192Z"/><path class="d" d="M131.72,86.75a5.06,5.06,0,0,1-5,4.19,2.92,2.92,0,0,1-.92-.1c-7.36-1.33-13.5-4.5-20.26-10.44l-14,13.92a41.8,41.8,0,0,1,9.72,26.9,5.12,5.12,0,1,1-10.23,0A31.93,31.93,0,0,0,81,97.9c-1.23-1.13-7.37-7.37-7.37-7.37a5.07,5.07,0,0,1,0-7.26L94.47,62.4a5.07,5.07,0,0,1,7.27,0l7.16,7.16c6.75,6.75,12,9.92,18.62,11.15A5.33,5.33,0,0,1,131.72,86.75ZM106.14,55.13a10.23,10.23,0,1,1,10.23,10.23,10.07,10.07,0,0,1-10.23-10.23ZM60.3,95.65a25.57,25.57,0,0,0-2,51V138L47.1,126.85a2.05,2.05,0,0,1,0-2.76h0a2,2,0,0,1,2.77,0l8.49,8.49v-8L50.79,117a2,2,0,0,1,.1-2.76,2,2,0,0,1,2.56,0l4.91,4.91V108.13a1.9,1.9,0,1,1,3.78-.31v11.36l4.92-4.91a1.92,1.92,0,0,1,2.76,2.66l-7.57,7.57v8L70.74,124a2,2,0,0,1,2.76,0,1.94,1.94,0,0,1,0,2.76L62.14,138v8.7a25.58,25.58,0,0,0,23.64-27.42A25.86,25.86,0,0,0,60.3,95.65Zm71.62,0a25.56,25.56,0,0,0-1.94,51V138l-11.16-11.15a2,2,0,0,1,2.66-2.86l.11.1,8.49,8.49v-8L122.51,117a2,2,0,0,1,0-2.76,1.94,1.94,0,0,1,2.76,0l4.91,4.91V108.13a1.9,1.9,0,0,1,3.79-.31v11.36l4.91-4.91a2,2,0,0,1,2.76,0,1.94,1.94,0,0,1,0,2.76l-7.57,7.57v8l8.49-8.49a2,2,0,0,1,2.87,2.66l-.11.1L133.86,138v8.7a25.56,25.56,0,0,0-1.94-51Z"/></svg>