<svg xmlns="http://www.w3.org/2000/svg" xmlns:xlink="http://www.w3.org/1999/xlink" viewBox="0 0 24 24"><defs><style>.a{fill:none;}.b{fill:url(#a);}</style><linearGradient id="a" x1="6.65" y1="5.62" x2="19.38" y2="18.35" gradientUnits="userSpaceOnUse"><stop offset="0" stop-color="#4c9cff"/><stop offset="1" stop-color="#36f"/></linearGradient></defs><title>history-gradient</title><path class="a" d="M0,0H24V24H0Z"/><path class="b" d="M13.26,3A9,9,0,0,0,4,12H2.21a.49.49,0,0,0-.35.85l2.79,2.8a.5.5,0,0,0,.71,0l2.79-2.8A.5.5,0,0,0,7.79,12H6a7,7,0,0,1,7.1-7A7.09,7.09,0,0,1,20,11.9,7,7,0,0,1,13,19a6.9,6.9,0,0,1-4.28-1.48,1,1,0,0,0-1.24,1.57A8.86,8.86,0,0,0,13,21a9,9,0,0,0,9-9.26A9.11,9.11,0,0,0,13.26,3Zm-.51,5a.76.76,0,0,0-.75.75v3.68a1,1,0,0,0,.49.86l3.12,1.85a.75.75,0,0,0,.77-1.29L13.5,12.14V8.74A.75.75,0,0,0,12.75,8Z"/></svg>