<svg xmlns="http://www.w3.org/2000/svg" xmlns:xlink="http://www.w3.org/1999/xlink" viewBox="0 0 119.5 99.5"><defs><style>.a{fill:url(#a);}</style><linearGradient id="a" x1="31.93" y1="50.32" x2="102.3" y2="120.7" gradientTransform="translate(0 -18)" gradientUnits="userSpaceOnUse"><stop offset="0" stop-color="#4c9cff"/><stop offset="1" stop-color="#36f"/></linearGradient></defs><title>logo-gradient</title><path class="a" d="M94.8,40.9A4.94,4.94,0,0,1,89.9,45a2.77,2.77,0,0,1-.9-.1c-7.2-1.3-13.2-4.4-19.8-10.2L55.5,48.3A40.85,40.85,0,0,1,65,74.6a5,5,0,0,1-10,0,31.24,31.24,0,0,0-9.8-22.8C44,50.7,38,44.6,38,44.6a5,5,0,0,1,0-7.1h0L58.4,17.1a5,5,0,0,1,7.1,0h0l7,7c6.6,6.6,11.7,9.7,18.2,10.9A5.3,5.3,0,0,1,94.8,40.9ZM69.8,10a10,10,0,1,1,10,10,9.84,9.84,0,0,1-10-9.7ZM25,49.6a25,25,0,0,0-2,49.9V91L12.1,80.1a2,2,0,0,1,0-2.7h0a2,2,0,0,1,2.7,0l8.3,8.3V77.9l-7.4-7.4a2,2,0,0,1,.1-2.7,2,2,0,0,1,2.5,0l4.8,4.8V61.8a1.88,1.88,0,0,1,1.8-1.9,2,2,0,0,1,1.9,1.6V72.6l4.8-4.8a2,2,0,0,1,2.7.1,2,2,0,0,1,0,2.5l-7.4,7.4v7.8l8.3-8.3a2,2,0,0,1,2.7,0,1.9,1.9,0,0,1,0,2.7h0L26.8,91v8.5A25,25,0,0,0,49.9,72.7h0A25.2,25.2,0,0,0,25,49.6Zm70,0a25,25,0,0,0-1.9,49.9V91L82.2,80.1a1.91,1.91,0,0,1,2.6-2.8l.1.1,8.3,8.3V77.9l-7.4-7.4a2,2,0,0,1,0-2.7,1.9,1.9,0,0,1,2.7,0h0l4.8,4.8V61.8a1.87,1.87,0,0,1,3.7-.5V72.6l4.8-4.8a2,2,0,0,1,2.7,0,1.9,1.9,0,0,1,0,2.7h0l-7.4,7.4v7.8l8.3-8.3a1.91,1.91,0,0,1,2.8,2.6l-.1.1L96.9,91v8.5A25,25,0,0,0,95,49.6Z" transform="translate(-0.2)"/></svg>