<svg xmlns="http://www.w3.org/2000/svg" xmlns:xlink="http://www.w3.org/1999/xlink" viewBox="0 0 24 24"><defs><style>.a{fill:none;}.b{fill:url(#a);}</style><linearGradient id="a" x1="6.34" y1="5.87" x2="17.65" y2="17.19" gradientUnits="userSpaceOnUse"><stop offset="0" stop-color="#4c9cff"/><stop offset="1" stop-color="#36f"/></linearGradient></defs><title>overlays</title><path class="a" d="M0,0H24V24H0Z"/><path class="b" d="M12.6,18.06a1,1,0,0,1-1.23,0L5.22,13.28A1,1,0,0,0,4,14.85l6.76,5.26a2,2,0,0,0,2.46,0L20,14.85a1,1,0,0,0,0-1.57h0a1,1,0,0,0-1.22,0Zm.63-3L20,9.78A1,1,0,0,0,20,8.2L13.23,2.94a2,2,0,0,0-2.46,0L4,8.21A1,1,0,0,0,4,9.79l6.76,5.26A2,2,0,0,0,13.23,15Z"/></svg>